<svg width="68" height="21" viewBox="0 0 68 21" fill="none" xmlns="http://www.w3.org/2000/svg">
<g clip-path="url(#clip0_989_1406)">
<g clip-path="url(#clip1_989_1406)">
<mask id="mask0_989_1406" style="mask-type:luminance" maskUnits="userSpaceOnUse" x="0" y="0" width="68" height="21">
<path d="M0 0H68V21H0V0Z" fill="white"/>
</mask>
<g mask="url(#mask0_989_1406)">
<path d="M6.54504 19.3736C6.66826 19.4004 6.8143 19.4049 7.00142 19.4049C7.33913 19.4049 7.68142 19.3021 7.89135 19.0877C8.03739 18.9402 8.1241 18.7392 8.1241 18.48C8.1241 18.1628 7.98719 17.9483 7.78182 17.8053C7.56276 17.6579 7.27981 17.5953 6.98316 17.5953C6.85994 17.5953 6.69108 17.6087 6.5496 17.6177V19.3736H6.54504ZM8.36598 15.6562V16.103H6.54504V17.2111C6.67739 17.1932 6.9284 17.1798 7.06531 17.1798C7.46692 17.1798 7.8594 17.2647 8.15148 17.4568C8.47095 17.6579 8.69001 17.9841 8.69001 18.4666C8.69001 18.8509 8.55766 19.1458 8.3386 19.3602C7.99632 19.6909 7.42585 19.8204 6.85081 19.8204C6.46746 19.8204 6.17994 19.7981 6.00195 19.7713V15.6562H8.36598ZM10.9947 18.27C10.3923 18.2566 9.71229 18.3638 9.71229 18.9358C9.71229 19.2843 9.9496 19.4496 10.2326 19.4496C10.625 19.4496 10.876 19.2038 10.9628 18.9536C10.981 18.9 10.9947 18.8375 10.9947 18.7838V18.27ZM11.0769 19.7847L11.0312 19.4094H11.013C10.8441 19.6417 10.5201 19.8517 10.0865 19.8517C9.47497 19.8517 9.16007 19.4272 9.16007 18.9983C9.16007 18.2834 9.81269 17.8902 10.981 17.8947V17.8321C10.981 17.5864 10.9126 17.1441 10.2919 17.1441C10.0089 17.1441 9.71685 17.229 9.50236 17.363L9.37913 17.0055C9.63014 16.8447 9.99068 16.7419 10.374 16.7419C11.3005 16.7419 11.5241 17.363 11.5241 17.9528V19.0609C11.5241 19.32 11.5378 19.5702 11.5743 19.7713H11.0769V19.7847ZM12.948 16.8179V18.0109H14.3856V16.8179H14.9287V19.7847H14.3856V18.4398H12.948V19.7847H12.4003V16.8179H12.948ZM16.3754 16.8179V18.1047H16.5077L17.6441 16.8179H18.315L16.996 18.1583C17.4844 18.2075 17.7765 18.5247 18.0138 19.0564C18.0959 19.253 18.2009 19.5389 18.3378 19.7802H17.7628C17.6806 19.6507 17.5756 19.4183 17.4798 19.1726C17.2744 18.6945 16.9915 18.4755 16.4803 18.4755H16.3754V19.7802H15.8323V16.8179H16.3754ZM22.3083 19.673C22.1668 19.7445 21.8473 19.8428 21.4411 19.8428C20.5284 19.8428 19.9351 19.2351 19.9351 18.3281C19.9351 17.4166 20.574 16.7553 21.5598 16.7553C21.8838 16.7553 22.1714 16.8358 22.322 16.9072L22.1987 17.3228C22.0664 17.2513 21.861 17.1843 21.5598 17.1843C20.8661 17.1843 20.4919 17.6847 20.4919 18.3058C20.4919 18.9938 20.9437 19.4138 21.5416 19.4138C21.8565 19.4138 22.0618 19.3334 22.217 19.2664L22.3083 19.673ZM23.4675 18.06H23.8828C24.2889 18.06 24.7088 17.9438 24.7088 17.5953C24.7088 17.3004 24.4441 17.1619 23.8965 17.1619C23.7139 17.1619 23.6044 17.1753 23.472 17.1843V18.06H23.4675ZM23.4629 19.4272C23.6181 19.4451 23.7322 19.4496 23.9056 19.4496C24.2752 19.4496 24.8229 19.3647 24.8229 18.9358C24.8229 18.5068 24.3848 18.4175 23.8599 18.4175H23.4583V19.4272H23.4629ZM22.9426 16.8536C23.1571 16.8179 23.5496 16.7866 23.9056 16.7866C24.4122 16.7866 25.2519 16.867 25.2519 17.5283C25.2519 17.8947 24.9644 18.1226 24.6221 18.1941V18.2075C25.0648 18.27 25.3934 18.5158 25.3934 18.9402C25.3934 19.7177 24.3939 19.816 23.796 19.816C23.4583 19.816 23.1069 19.7936 22.9472 19.7802V16.8536H22.9426ZM28.0038 18.0109C28.0084 17.6668 27.8624 17.1351 27.2417 17.1351C26.6849 17.1351 26.443 17.6355 26.3974 18.0109H28.0038ZM26.3883 18.3996C26.402 19.1279 26.8766 19.4272 27.4288 19.4272C27.8213 19.4272 28.0586 19.3602 28.2685 19.2753L28.3598 19.6596C28.1636 19.7445 27.835 19.8428 27.3512 19.8428C26.4202 19.8428 25.8634 19.2441 25.8634 18.3504C25.8634 17.4568 26.402 16.7509 27.2828 16.7509C28.2731 16.7509 28.5332 17.6043 28.5332 18.1494C28.5332 18.2611 28.5195 18.346 28.515 18.3996H26.3883ZM29.4734 16.8179L30.4728 18.1092H30.5869V16.8179H31.1117V18.1092H31.2167L32.2162 16.8179H32.846L31.6503 18.1672C32.1066 18.2164 32.3759 18.48 32.5585 18.9492C32.6634 19.2351 32.7638 19.5479 32.8916 19.7802H32.3394C32.239 19.6015 32.1523 19.3558 32.0656 19.1011C31.8785 18.6185 31.5955 18.4711 31.203 18.4711H31.1117V19.7802H30.5869V18.4711H30.4865C30.0621 18.4711 29.8065 18.623 29.6148 19.11C29.5144 19.3692 29.4323 19.6015 29.3273 19.7847H28.7979C28.9211 19.5479 29.0216 19.2351 29.1311 18.9581C29.3182 18.48 29.5875 18.2164 30.0438 18.1672L28.8436 16.8179H29.4734ZM33.8956 16.8179V18.0689C33.8956 18.5426 33.8911 18.833 33.8637 19.2575L33.882 19.2619C34.0645 18.9 34.1695 18.6945 34.3703 18.3504L35.315 16.8179H35.9585V19.7802H35.4336V18.5247C35.4336 18.0421 35.4473 17.7875 35.4701 17.3138H35.4519C35.2556 17.6936 35.1279 17.9304 34.9499 18.2343C34.6624 18.6945 34.3292 19.2619 34.0052 19.7847H33.3754V16.8224H33.8956V16.8179ZM37.1085 16.8179L37.5421 17.4568C37.6562 17.6221 37.7475 17.7741 37.8479 17.9394H37.8661C37.9665 17.7607 38.0669 17.6087 38.1673 17.4479L38.5918 16.8179H39.185L38.1536 18.2521L39.217 19.7847H38.5918L38.1491 19.119C38.0304 18.9492 37.93 18.7838 37.825 18.6051H37.8113C37.7109 18.7838 37.606 18.9402 37.4919 19.119L37.0538 19.7847H36.4468L37.5238 18.27L36.497 16.8179H37.1085ZM41.6221 18.5738C41.6221 18.6543 41.6358 18.7258 41.6495 18.7928C41.7499 19.1681 42.0785 19.4228 42.4755 19.4228C43.0551 19.4228 43.3928 18.9581 43.3928 18.2789C43.3928 17.6847 43.0734 17.1753 42.4938 17.1753C42.1195 17.1753 41.7681 17.439 41.6632 17.8411C41.6449 17.9081 41.6267 17.9885 41.6267 18.06V18.5738H41.6221ZM41.0744 17.7875C41.0744 17.4077 41.0607 17.0994 41.0516 16.8179H41.5445L41.5673 17.3272H41.581C41.8046 16.9653 42.1606 16.7509 42.6581 16.7509C43.3883 16.7509 43.9405 17.3585 43.9405 18.2566C43.9405 19.3245 43.2787 19.8472 42.5668 19.8472C42.1652 19.8472 41.8138 19.6775 41.6358 19.3826H41.6221V20.9955H41.0744V17.7875ZM46.5555 18.0109C46.5601 17.6668 46.4095 17.1351 45.7934 17.1351C45.2366 17.1351 44.9901 17.6355 44.9491 18.0109H46.5555ZM44.9399 18.3996C44.9536 19.1279 45.4283 19.4272 45.9805 19.4272C46.373 19.4272 46.6148 19.3602 46.8202 19.2753L46.9115 19.6596C46.7198 19.7445 46.3867 19.8428 45.9029 19.8428C44.9719 19.8428 44.4151 19.2441 44.4151 18.3504C44.4151 17.4568 44.9536 16.7509 45.8344 16.7509C46.8248 16.7509 47.0849 17.6043 47.0849 18.1494C47.0849 18.2611 47.0712 18.346 47.0667 18.3996H44.9399ZM48.2943 16.8179V19.3602H49.3531V16.8179H49.8916V19.3602H50.9458V16.8179H51.4935V19.7847H47.7558V16.8179H48.2943ZM54.3048 18.0109C54.3093 17.6668 54.1633 17.1351 53.5426 17.1351C52.9858 17.1351 52.744 17.6355 52.6983 18.0109H54.3048ZM52.6938 18.3996C52.7075 19.1279 53.1821 19.4272 53.7343 19.4272C54.1268 19.4272 54.3641 19.3602 54.574 19.2753L54.6699 19.6596C54.4736 19.7445 54.145 19.8428 53.6613 19.8428C52.7303 19.8428 52.1735 19.2441 52.1735 18.3504C52.1735 17.4568 52.712 16.7509 53.5928 16.7509C54.5832 16.7509 54.8433 17.6043 54.8433 18.1494C54.8433 18.2611 54.8296 18.346 54.825 18.3996H52.6938ZM56.0527 16.8179V18.0109H57.4903V16.8179H58.0334V19.7847H57.4903V18.4398H56.0527V19.7847H55.505V16.8179H56.0527ZM59.4436 16.8179V18.0689C59.4436 18.5426 59.439 18.833 59.4116 19.2575L59.4299 19.2619C59.6124 18.9 59.7174 18.6945 59.9182 18.3504L60.8629 16.8179H61.5064V19.7802H60.9815V18.5247C60.9815 18.0421 60.9952 17.7875 61.0181 17.3138H60.9998C60.8081 17.6936 60.6758 17.9304 60.4978 18.2343C60.2103 18.6945 59.8771 19.2619 59.5531 19.7847H58.9233V16.8224H59.4436V16.8179ZM63.2634 15.6115C63.2817 15.8751 63.414 16.0762 63.665 16.0762C63.9343 16.0762 64.0575 15.8796 64.0895 15.6115H64.482C64.4546 16.1119 64.1305 16.3711 63.6513 16.3711C63.0991 16.3711 62.8892 16.036 62.8618 15.6115H63.2634ZM62.9075 16.8179V18.0689C62.9075 18.5426 62.9029 18.833 62.8755 19.2575L62.8938 19.2619C63.0763 18.9 63.1813 18.6945 63.3821 18.3504L64.3268 16.8179H64.9703V19.7802H64.4454V18.5247C64.4454 18.0421 64.4591 17.7875 64.482 17.3138H64.4637C64.272 17.6936 64.1397 17.9304 63.9617 18.2343C63.6742 18.6945 63.341 19.2619 63.017 19.7847H62.3872V16.8224H62.9075V16.8179ZM12.1265 1.19299C10.8852 1.19299 9.73511 1.55938 8.78128 2.18044C8.78128 2.18044 17.1695 5.97384 17.1877 5.97831C17.9727 6.32235 17.9864 5.83087 17.9864 5.83087C17.457 3.18576 15.0336 1.19299 12.1265 1.19299ZM16.243 10.6028C16.2385 10.5983 8.19712 7.63597 6.55417 7.03725C6.29403 6.93895 6.17081 7.12661 6.17994 7.23831C6.36249 10.2364 8.9547 12.6134 12.1311 12.6134C13.9611 12.6134 15.595 11.827 16.6903 10.5849C16.6857 10.5849 16.5032 10.71 16.243 10.6028Z" fill="#1C1A1A"/>
<path fill-rule="evenodd" clip-rule="evenodd" d="M17.0779 8.40444C17.046 8.39551 4.17619 2.72998 4.03928 2.67189C3.68331 2.51104 3.17673 2.85508 3.45512 3.27508C3.50075 3.3421 4.50935 4.76742 4.50935 4.76742C4.50935 4.76742 4.2127 4.28934 4.24465 4.06593C4.2629 3.90955 4.41807 3.83806 4.53216 3.88721C4.64169 3.92742 16.7585 9.0121 16.8178 9.04338C17.2559 9.23104 17.621 9.097 17.7579 8.78423C17.8492 8.52061 17.9268 8.24359 17.9816 7.9621C17.9314 8.10061 17.6712 8.63232 17.0779 8.40444ZM18.05 6.26423C18.0363 6.40721 17.9359 7.03274 17.224 6.7021C17.0962 6.64402 2.7021 0.12955 2.50586 0.0357203C2.23203 -0.0938541 1.63418 0.120614 1.94451 0.701465C1.95364 0.719337 3.09914 2.50657 3.08545 2.47976C3.06263 2.45295 2.89378 2.05083 2.81619 1.68444C2.77968 1.537 2.91659 1.40295 3.12653 1.49232C3.14935 1.50125 17.151 7.51083 17.2559 7.55551C17.5571 7.69402 18.05 7.627 18.082 7.25168C18.0865 7.13551 18.0911 7.02381 18.0911 6.90317C18.0865 6.69317 18.0774 6.47423 18.05 6.26423ZM16.6809 9.70019C16.6353 9.68678 5.61377 5.18742 5.51337 5.14721C5.12089 4.9953 4.86532 5.35274 5.11633 5.68338L6.01539 6.81827C6.01539 6.81827 5.82827 6.50104 5.81458 6.367C5.80089 6.22849 5.89216 6.07657 6.17512 6.19274C6.46263 6.30891 16.3021 10.2006 16.3295 10.214C16.6353 10.3168 16.9091 10.3078 17.0369 10.1381C17.2331 9.86104 17.3974 9.59742 17.5434 9.28913C17.4522 9.44104 17.1327 9.86998 16.6809 9.70019Z" fill="#1C1A1A"/>
<path d="M57.7551 5.70124C57.8464 5.52252 57.9924 5.41529 58.2024 5.38401V4.97295H55.706V5.38401C55.8977 5.42422 56.0209 5.52252 56.0894 5.67444C56.1533 5.83082 56.1898 6.18827 56.1898 6.76912V8.51167H54.6381V6.76912C54.6381 6.18827 54.6746 5.83082 54.743 5.67444C54.8115 5.52252 54.9347 5.42422 55.1218 5.38401V4.97295H52.6346V5.38401C52.8445 5.41529 52.986 5.52252 53.0818 5.70124C53.1412 5.82188 53.1685 6.17933 53.1685 6.76912V10.8976C53.1685 11.4874 53.1412 11.8404 53.0818 11.961C52.986 12.1442 52.8445 12.2425 52.6346 12.2783V12.6893H55.1218V12.2783C54.9347 12.2381 54.8115 12.1442 54.743 11.9878C54.67 11.8359 54.6381 11.4695 54.6381 10.8932V9.02997H56.1898V10.8932C56.1898 11.4651 56.1578 11.8315 56.0894 11.9878C56.0163 12.1442 55.8931 12.2381 55.706 12.2783V12.6893H58.2024V12.2783C57.9924 12.2425 57.8464 12.1442 57.7551 11.961C57.6958 11.8404 57.6639 11.4874 57.6639 10.8976V6.76912C57.6639 6.17933 57.6958 5.82188 57.7551 5.70124ZM25.7541 8.88252L27.6982 1.51465H30.6053V1.93465H30.3726C30.1626 1.93465 29.9938 1.99273 29.866 2.1089C29.7793 2.1938 29.7063 2.3189 29.6515 2.49316C29.615 2.6272 29.5922 2.97124 29.5922 3.52529V10.6608C29.5922 11.2327 29.615 11.5902 29.6515 11.7332C29.6926 11.8717 29.7702 12.0012 29.8888 12.1085C30.012 12.2157 30.1672 12.2693 30.3726 12.2693H30.6053V12.6893H26.8722V12.2693H27.1049C27.3194 12.2693 27.4837 12.2112 27.6161 12.0995C27.6982 12.0191 27.7758 11.8895 27.8214 11.6974C27.8579 11.5723 27.8762 11.2238 27.8762 10.6608V3.31975L25.3524 12.6893H25.0102L22.3906 3.16337V10.3257C22.3906 10.8753 22.3951 11.2149 22.4134 11.34C22.4636 11.6125 22.5594 11.8404 22.7146 12.0102C22.8606 12.1844 23.1025 12.2693 23.4357 12.2693V12.6893H20.8252V12.2693H20.8982C21.0579 12.2738 21.2085 12.2336 21.3409 12.1487C21.4824 12.0683 21.5873 11.9521 21.6512 11.8091C21.7243 11.6661 21.779 11.4606 21.8201 11.2059C21.8247 11.1478 21.8292 10.8664 21.8292 10.3659V3.52529C21.8292 2.95784 21.811 2.60486 21.7699 2.46188C21.7334 2.32337 21.6512 2.20273 21.5326 2.09103C21.4094 1.9838 21.2542 1.93018 21.0534 1.93018H20.8252V1.51465H23.7414L25.7541 8.88252ZM61.2327 1.51465V8.75295C61.2327 8.75295 62.7524 6.44741 62.8209 6.33571C63.008 6.02295 63.0993 5.40188 62.3371 5.40188V4.98635H64.5414V5.40188C64.3315 5.41975 64.149 5.49571 63.9892 5.63869C63.5876 5.94252 62.5243 7.60912 62.5243 7.60912L63.6834 10.2632C64.1535 11.3355 64.4319 11.827 64.5141 11.961C64.6327 12.1487 64.7833 12.2559 64.9659 12.2783V12.6893H62.4193V12.2783C62.5334 12.2783 62.6155 12.2425 62.6657 12.1755C62.7114 12.1085 62.7388 12.0415 62.7388 11.961C62.7388 11.8359 62.6657 11.6036 62.5151 11.2595L61.543 9.14167L61.219 9.62869V10.8976C61.219 11.751 61.2555 11.8493 61.3286 11.9968C61.397 12.1398 61.543 12.2336 61.7575 12.2738V12.6849H59.211V12.2738C59.4209 12.2381 59.5669 12.1353 59.6537 11.9566C59.713 11.8359 59.7449 11.4829 59.7449 10.8976V3.30188C59.7449 2.72103 59.713 2.35912 59.64 2.21614C59.5761 2.07763 59.43 1.97933 59.211 1.93465V1.51465H61.2327ZM38.1036 1.51465V4.53954H37.67C37.5879 3.71741 37.6335 3.07848 37.3277 2.64061C37.1132 2.31444 36.7573 2.15805 36.2781 2.15805H35.7624V10.6608C35.7624 11.2327 35.7852 11.5902 35.8217 11.7332C35.8673 11.8717 35.9449 12.0012 36.059 12.1085C36.1777 12.2157 36.3374 12.2693 36.5428 12.2693H36.7801V12.6893H33.0424V12.2693H33.2751C33.4851 12.2693 33.6494 12.2112 33.7771 12.0995C33.8684 12.0191 33.9414 11.8895 33.9916 11.6974C34.0327 11.5723 34.051 11.2238 34.051 10.6608V2.15805H33.5353C33.0561 2.15805 32.7001 2.3189 32.4856 2.64061C32.1798 3.07848 32.2209 3.71741 32.1388 4.53954H31.7052V1.51465H38.1036ZM43.7398 10.9423C43.612 11.3087 43.4341 11.5946 43.1967 11.7868C42.9594 11.9834 42.6993 12.0817 42.4209 12.0817C42.2338 12.0817 42.0877 12.0057 41.9873 11.8583C41.8915 11.7019 41.8504 11.4785 41.8504 11.1881L41.855 10.7725V5.50018C42.389 5.49571 42.7951 5.57167 43.0644 5.73699C43.3337 5.90678 43.5481 6.19273 43.7033 6.60827C44.0867 7.63592 44.0912 9.92358 43.7398 10.9423ZM45.1957 5.9738C44.4153 4.96848 43.0644 4.8389 41.8504 4.85231V2.15805H43.2515C43.7307 2.15805 44.0821 2.3189 44.2966 2.64061C44.6024 3.07848 44.5613 3.71741 44.6434 4.53954H45.077V1.51465H39.1898V1.93465C39.5184 1.93465 39.742 1.9838 39.8606 2.07763C39.9793 2.17146 40.0614 2.2921 40.1071 2.45295C40.1573 2.60933 40.1801 2.87741 40.1801 3.47614V10.6117C40.1801 11.2149 40.1573 11.5946 40.1071 11.7466C40.0614 11.9029 39.9793 12.0325 39.8652 12.1264C39.742 12.2246 39.5229 12.2738 39.1898 12.2738V12.6938H42.8179C43.8311 12.6938 44.6024 12.3587 45.1318 11.6929C45.9989 10.6027 46.0902 7.11316 45.1957 5.9738ZM49.5541 10.9066C49.0292 11.7555 47.8061 11.2283 48.4222 9.94146C48.6276 9.49912 49.1296 8.77082 49.5541 8.37763V10.9066ZM51.4708 11.4025C51.375 11.5991 51.1651 11.5678 51.1331 11.5187C51.092 11.4785 51.0692 11.407 51.051 11.3221C51.0327 11.2327 51.0281 11.0093 51.0281 10.6519V7.82358C51.0281 6.99252 51.0008 6.46082 50.9506 6.22848C50.8136 5.52699 50.3755 4.76295 49.3122 4.75848C48.9288 4.75848 48.5592 4.85231 48.1986 5.04444C47.8381 5.24103 47.5597 5.51358 47.3634 5.8755C47.1672 6.23741 47.0759 6.53678 47.0394 7.05954C47.0166 7.71635 47.4273 7.9755 47.8426 7.9755C48.2579 7.9755 48.5957 7.64486 48.5957 7.23827C48.5957 7.09529 48.5546 6.98358 48.4816 6.84507C48.3675 6.63954 47.8198 6.24188 48.3218 5.62082C48.4724 5.46444 48.6641 5.37954 48.8923 5.37954C49.2985 5.37954 49.4171 5.6655 49.4947 5.94699C49.5358 6.0989 49.5541 6.46529 49.5541 7.04614V7.82358C48.4724 8.60103 47.7651 9.22656 47.4456 9.69571C47.1216 10.1649 46.9025 10.5804 46.9025 11.1657C46.9025 12.0415 47.4 12.7921 48.1575 12.7876C48.9151 12.7832 49.335 12.2917 49.5541 11.5544C49.5906 11.9744 49.6864 12.2827 49.8461 12.4883C50.0104 12.6938 50.2249 12.7966 50.5033 12.7966C50.7452 12.7966 51.0555 12.7206 51.2426 12.5374C51.4298 12.3587 51.5941 12.0817 51.772 11.6751L51.4708 11.4025Z" fill="#1C1A1A"/>
</g>
</g>
</g>
<defs>
<clipPath id="clip0_989_1406">
<rect width="68" height="21" fill="white"/>
</clipPath>
<clipPath id="clip1_989_1406">
<rect width="68" height="21" fill="white"/>
</clipPath>
</defs>
</svg>
