<svg width="43" height="21" viewBox="0 0 43 21" fill="none" xmlns="http://www.w3.org/2000/svg">
<path d="M1.13477 4V6.65918C1.13477 6.96452 1.12565 7.26074 1.10742 7.54785C1.09375 7.83496 1.08236 8.05827 1.07324 8.21777H1.13477C1.33984 7.88053 1.63607 7.5957 2.02344 7.36328C2.41081 7.13086 2.90527 7.01465 3.50684 7.01465C4.44564 7.01465 5.19303 7.34049 5.74902 7.99219C6.30957 8.63932 6.58984 9.60319 6.58984 10.8838C6.58984 11.7269 6.46224 12.4378 6.20703 13.0166C5.95182 13.5954 5.5918 14.0329 5.12695 14.3291C4.66211 14.6253 4.11296 14.7734 3.47949 14.7734C2.88704 14.7734 2.39941 14.6641 2.0166 14.4453C1.63835 14.222 1.34668 13.9508 1.1416 13.6318H1.05273L0.820312 14.6367H0V4H1.13477ZM3.32227 7.96484C2.77995 7.96484 2.34928 8.07194 2.03027 8.28613C1.71126 8.49577 1.48112 8.81478 1.33984 9.24316C1.20312 9.66699 1.13477 10.2048 1.13477 10.8564V10.918C1.13477 11.8613 1.29199 12.5837 1.60645 13.085C1.9209 13.5817 2.49284 13.8301 3.32227 13.8301C4.01953 13.8301 4.54134 13.5749 4.8877 13.0645C5.23861 12.554 5.41406 11.8249 5.41406 10.877C5.41406 9.91081 5.24089 9.18392 4.89453 8.69629C4.55273 8.20866 4.02865 7.96484 3.32227 7.96484Z" fill="#1C1A1A"/>
<path d="M11.457 7.00781C12.0951 7.00781 12.6419 7.14909 13.0977 7.43164C13.5534 7.71419 13.902 8.11068 14.1436 8.62109C14.3851 9.12695 14.5059 9.7194 14.5059 10.3984V11.1025H9.33105C9.34473 11.9821 9.56348 12.652 9.9873 13.1123C10.4111 13.5726 11.0081 13.8027 11.7783 13.8027C12.2523 13.8027 12.6715 13.7594 13.0361 13.6729C13.4007 13.5863 13.779 13.4587 14.1709 13.29V14.2881C13.7926 14.4567 13.4167 14.5798 13.043 14.6572C12.6738 14.7347 12.2363 14.7734 11.7305 14.7734C11.0104 14.7734 10.3815 14.6276 9.84375 14.3359C9.31055 14.0397 8.89583 13.6068 8.59961 13.0371C8.30339 12.4674 8.15527 11.7702 8.15527 10.9453C8.15527 10.1387 8.28971 9.44141 8.55859 8.85352C8.83203 8.26107 9.21484 7.80534 9.70703 7.48633C10.2038 7.16732 10.7871 7.00781 11.457 7.00781ZM11.4434 7.9375C10.8372 7.9375 10.3542 8.13574 9.99414 8.53223C9.63411 8.92871 9.41992 9.48242 9.35156 10.1934H13.3164C13.3118 9.74674 13.2412 9.35482 13.1045 9.01758C12.9723 8.67578 12.7695 8.41146 12.4961 8.22461C12.2227 8.0332 11.8717 7.9375 11.4434 7.9375Z" fill="#1C1A1A"/>
<path d="M19.2158 4.64258C20.5055 4.64258 21.4466 4.89551 22.0391 5.40137C22.6361 5.90267 22.9346 6.62272 22.9346 7.56152C22.9346 7.98535 22.8639 8.38867 22.7227 8.77148C22.5859 9.14974 22.3626 9.4847 22.0527 9.77637C21.7428 10.0635 21.335 10.2913 20.8291 10.46C20.3278 10.624 19.7126 10.7061 18.9834 10.7061H17.7666V14.6367H16.6045V4.64258H19.2158ZM19.1064 5.63379H17.7666V9.70801H18.8535C19.4915 9.70801 20.0225 9.63965 20.4463 9.50293C20.8747 9.36621 21.196 9.14518 21.4102 8.83984C21.6243 8.52995 21.7314 8.11979 21.7314 7.60938C21.7314 6.94401 21.5195 6.44954 21.0957 6.12598C20.6719 5.79785 20.0088 5.63379 19.1064 5.63379Z" fill="#1C1A1A"/>
<path d="M27.6582 7.02148C28.5514 7.02148 29.2145 7.22201 29.6475 7.62305C30.0804 8.02409 30.2969 8.66439 30.2969 9.54395V14.6367H29.4697L29.251 13.5293H29.1963C28.9867 13.8027 28.7679 14.0329 28.54 14.2197C28.3122 14.402 28.0479 14.541 27.7471 14.6367C27.4508 14.7279 27.0863 14.7734 26.6533 14.7734C26.1976 14.7734 25.792 14.6937 25.4365 14.5342C25.0856 14.3747 24.8076 14.1331 24.6025 13.8096C24.402 13.486 24.3018 13.0758 24.3018 12.5791C24.3018 11.8317 24.598 11.2575 25.1904 10.8564C25.7829 10.4554 26.6852 10.2367 27.8975 10.2002L29.1895 10.1455V9.6875C29.1895 9.04036 29.0505 8.58691 28.7725 8.32715C28.4945 8.06738 28.1025 7.9375 27.5967 7.9375C27.2048 7.9375 26.8311 7.99447 26.4756 8.1084C26.1201 8.22233 25.7829 8.35677 25.4639 8.51172L25.1152 7.65039C25.4525 7.47721 25.8398 7.3291 26.2773 7.20605C26.7148 7.08301 27.1751 7.02148 27.6582 7.02148ZM29.1758 10.9453L28.0342 10.9932C27.0999 11.0296 26.4414 11.1823 26.0586 11.4512C25.6758 11.7201 25.4844 12.1006 25.4844 12.5928C25.4844 13.0212 25.6143 13.3379 25.874 13.543C26.1338 13.748 26.4779 13.8506 26.9062 13.8506C27.5716 13.8506 28.1162 13.666 28.54 13.2969C28.9639 12.9277 29.1758 12.374 29.1758 11.6357V10.9453Z" fill="#1C1A1A"/>
<path d="M33.7695 7.14453V14.6367H32.6348V7.14453H33.7695ZM33.2158 4.3418C33.4027 4.3418 33.5622 4.40332 33.6943 4.52637C33.8311 4.64486 33.8994 4.83171 33.8994 5.08691C33.8994 5.33757 33.8311 5.52441 33.6943 5.64746C33.5622 5.77051 33.4027 5.83203 33.2158 5.83203C33.0199 5.83203 32.8558 5.77051 32.7236 5.64746C32.596 5.52441 32.5322 5.33757 32.5322 5.08691C32.5322 4.83171 32.596 4.64486 32.7236 4.52637C32.8558 4.40332 33.0199 4.3418 33.2158 4.3418Z" fill="#1C1A1A"/>
<path d="M38.8418 14.7734C37.8939 14.7734 37.1419 14.4499 36.5859 13.8027C36.0345 13.1556 35.7588 12.194 35.7588 10.918C35.7588 9.62826 36.0413 8.65527 36.6064 7.99902C37.1716 7.33822 37.9235 7.00781 38.8623 7.00781C39.2588 7.00781 39.6051 7.06022 39.9014 7.16504C40.1976 7.26986 40.4528 7.41113 40.667 7.58887C40.8812 7.76204 41.0612 7.96029 41.207 8.18359H41.2891C41.2708 8.04232 41.2526 7.84863 41.2344 7.60254C41.2161 7.35645 41.207 7.15592 41.207 7.00098V4H42.3418V14.6367H41.4258L41.2549 13.5703H41.207C41.0658 13.7936 40.8857 13.9964 40.667 14.1787C40.4528 14.361 40.1953 14.5068 39.8945 14.6162C39.5983 14.721 39.2474 14.7734 38.8418 14.7734ZM39.0195 13.8301C39.8216 13.8301 40.389 13.6022 40.7217 13.1465C41.0544 12.6908 41.2207 12.014 41.2207 11.1162V10.9111C41.2207 9.95866 41.0612 9.22721 40.7422 8.7168C40.4277 8.20638 39.8535 7.95117 39.0195 7.95117C38.3223 7.95117 37.8005 8.22005 37.4541 8.75781C37.1077 9.29102 36.9346 10.0202 36.9346 10.9453C36.9346 11.8659 37.1055 12.5768 37.4473 13.0781C37.7936 13.5794 38.3177 13.8301 39.0195 13.8301Z" fill="#1C1A1A"/>
</svg>
