<svg width="63" height="21" viewBox="0 0 63 21" fill="none" xmlns="http://www.w3.org/2000/svg">
<g clip-path="url(#clip0_989_1415)">
<path d="M18.522 13.9082C17.9657 13.91 17.4213 13.7409 16.9574 13.4222C16.4942 13.1039 16.1325 12.6499 15.9182 12.1178C15.7041 11.5866 15.6473 11.0012 15.7551 10.4363C15.8629 9.87138 16.1303 9.35263 16.5233 8.94622C16.9168 8.53797 17.418 8.25986 17.9636 8.14699C18.5092 8.03412 19.0748 8.09154 19.589 8.31202C20.1034 8.53222 20.5426 8.90482 20.8524 9.38302C21.2137 9.94178 21.3767 10.6135 21.3134 11.2833C21.2502 11.953 20.9646 12.5791 20.5056 13.0544C19.9791 13.5999 19.2659 13.9069 18.522 13.9082ZM18.522 5.00002C17.5463 4.99765 16.5858 5.24999 15.7286 5.73382C14.8726 6.21702 14.1478 6.91661 13.6213 7.76782C12.8274 9.05129 12.5356 10.601 12.8054 12.1004C13.0753 13.5997 13.8864 14.9355 15.0732 15.8348C15.8604 16.4332 16.7801 16.8163 17.7474 16.9489C18.7148 17.0814 19.6987 16.9591 20.6085 16.5932C21.5176 16.2283 22.3234 15.6315 22.9517 14.858C22.5685 15.5954 22.0142 16.2128 21.3726 16.601V16.9106H24.3088V10.9688C24.3013 9.38416 23.6888 7.86725 22.6054 6.75082C21.5196 5.63167 20.0522 5.00251 18.522 5.00002ZM46.3669 13.9664H42.5476V12.02H46.2946C46.7628 12.02 47.3095 12.476 47.3095 12.9938C47.3095 13.3694 47.0252 13.9676 46.3669 13.9676V13.9664ZM42.5476 8.03842L45.7553 8.03662C46.1027 8.03662 46.6772 8.40802 46.6772 9.00202C46.6772 9.47602 46.305 9.98602 45.6588 9.98602H42.5476V8.03722V8.03842ZM48.9759 10.6412C49.6723 9.54622 49.7365 8.04922 49.1001 6.93022C48.7844 6.37607 48.3358 5.91632 47.7979 5.59582C47.2595 5.27467 46.6503 5.10334 46.0293 5.09842H39.6102V16.91L46.7917 16.9052C49.0446 16.9052 50.3018 14.9822 50.3018 13.3688C50.3018 11.8166 49.4481 11.0378 48.9753 10.64L48.9759 10.6412ZM36.707 9.45082C37.6705 12.14 37.7197 14.5796 37.7197 16.9106H34.739C34.739 15.02 34.6749 13.2986 34.2922 11.7416C33.779 9.65542 32.8242 8.13862 31.9364 8.13862C31.0492 8.13862 30.0932 9.65542 29.5805 11.7416C29.1979 13.2986 29.1343 14.9756 29.1343 16.9106H26.1537C26.1537 14.7896 26.2022 12.14 27.1657 9.45082C28.0639 6.94582 29.7429 5.00002 31.937 5.00002C34.131 5.00002 35.8083 6.94582 36.707 9.45082ZM8.59286 5.09782H11.5747V6.34222C11.5754 7.23588 11.383 8.11833 11.0117 8.92462C10.6402 9.73162 10.0995 10.4422 9.4292 11.0042C10.0995 11.5664 10.6402 12.2772 11.0117 13.0844C11.383 13.8907 11.5754 14.7731 11.5747 15.6668V16.9112H8.59228V15.3554C8.59236 14.9741 8.51989 14.5966 8.37905 14.2444C8.2382 13.8923 8.03175 13.5725 7.77154 13.3034C7.24475 12.7587 6.53148 12.4528 5.78791 12.4528C5.04435 12.4528 4.33108 12.7587 3.80428 13.3034C3.54386 13.5724 3.3372 13.8922 3.19615 14.2443C3.05511 14.5964 2.98246 14.974 2.98239 15.3554V16.9106H2.96736e-06V15.6662C-0.000670866 14.7726 0.1917 13.8901 0.562957 13.0838C0.934883 12.2767 1.47598 11.5662 2.14663 11.0042C1.47567 10.4422 0.934366 9.73142 0.562379 8.92402C0.191302 8.11769 -0.000870958 7.23524 2.96736e-06 6.34162V5.09782H2.98239V6.65302C2.98239 7.42222 3.27774 8.16022 3.8037 8.70442C4.3305 9.24917 5.04377 9.55503 5.78733 9.55503C6.5309 9.55503 7.24417 9.24917 7.77097 8.70442C8.03138 8.43542 8.23805 8.11567 8.37909 7.76353C8.52014 7.41138 8.59278 7.03379 8.59286 6.65242V5.09842V5.09782ZM57.2127 13.9082C56.6566 13.9099 56.1124 13.7408 55.6487 13.4222C55.302 13.1852 55.0106 12.871 54.7957 12.5024C54.5807 12.1338 54.4476 11.7201 54.4061 11.2914C54.3645 10.8627 54.4155 10.4297 54.5554 10.0241C54.6952 9.6184 54.9204 9.25018 55.2146 8.94622C55.509 8.64175 55.8646 8.40859 56.256 8.26341C56.6473 8.11823 57.0648 8.06462 57.4784 8.10641C57.892 8.14821 58.2916 8.28437 58.6487 8.50516C59.0057 8.72596 59.3113 9.02593 59.5437 9.38362C59.9049 9.94226 60.0679 10.6138 60.0047 11.2835C59.9416 11.9531 59.6562 12.5791 59.1975 13.0544C58.6706 13.6002 57.957 13.9072 57.2127 13.9082ZM63 10.9688C62.9915 9.55985 62.5044 8.19917 61.6244 7.12642C60.7424 6.05172 59.5249 5.33269 58.1843 5.09482C56.8426 4.85635 55.4628 5.11389 54.2852 5.82262C53.1097 6.5296 52.2115 7.64377 51.7484 8.96962C51.2866 10.294 51.2902 11.7452 51.7588 13.067C52.2283 14.3904 53.1318 15.4999 54.3106 16.2008C55.4917 16.9034 56.8727 17.1537 58.2132 16.9082C59.5527 16.6634 60.7668 15.938 61.6435 14.8586C61.2603 15.5954 60.706 16.2128 60.0639 16.601V16.9106H63V10.9688Z" fill="#1C1A1A"/>
</g>
<defs>
<clipPath id="clip0_989_1415">
<rect width="63" height="21" fill="white"/>
</clipPath>
</defs>
</svg>
