<svg width="55" height="21" viewBox="0 0 55 21" fill="none" xmlns="http://www.w3.org/2000/svg">
<path d="M22.5337 18.7853H18.3213L20.956 2.26831H25.1681L22.5337 18.7853Z" fill="#1C1A1A"/>
<path d="M37.8029 2.67194C36.9721 2.33775 35.6542 1.96875 34.0248 1.96875C29.8649 1.96875 26.9356 4.21775 26.9176 7.43314C26.8831 9.80545 29.0149 11.1231 30.6094 11.9141C32.2391 12.7224 32.7931 13.2499 32.7931 13.9704C32.7765 15.0769 31.4762 15.587 30.2634 15.587C28.5817 15.587 27.6805 15.324 26.3111 14.7084L25.7565 14.4445L25.167 18.1522C26.155 18.6085 27.9752 19.0135 29.8649 19.0312C34.2848 19.0312 37.1623 16.817 37.1964 13.3905C37.2132 11.5103 36.0875 10.0696 33.6606 8.8923C32.1873 8.13657 31.285 7.62698 31.285 6.85373C31.3023 6.15077 32.0482 5.43076 33.7113 5.43076C35.0807 5.3955 36.0868 5.72923 36.8491 6.06319L37.2301 6.23858L37.8029 2.67194Z" fill="#1C1A1A"/>
<path d="M43.402 12.9339C43.7489 11.985 45.0837 8.31258 45.0837 8.31258C45.0662 8.34785 45.43 7.34619 45.638 6.73128L45.9324 8.15448C45.9324 8.15448 46.73 12.1081 46.9033 12.9339C46.2449 12.9339 44.234 12.9339 43.402 12.9339ZM48.6016 2.26831H45.3434C44.3386 2.26831 43.5752 2.56678 43.1417 3.63873L36.8848 18.785H41.3047C41.3047 18.785 42.0323 16.7464 42.1887 16.3074C42.6736 16.3074 46.9733 16.3074 47.5971 16.3074C47.718 16.8873 48.0997 18.785 48.0997 18.785H51.9999L48.6016 2.26831Z" fill="#1C1A1A"/>
<path d="M14.8023 2.26831L10.677 13.5313L10.2262 11.247C9.46354 8.61128 7.07161 5.7476 4.40234 4.3237L8.18096 18.7677H12.6354L19.2565 2.26831H14.8023Z" fill="#1C1A1A"/>
<path d="M6.84662 2.26831H0.0693343L0 2.60204C5.2867 3.97269 8.78798 7.27659 10.2265 11.2477L8.7532 3.65671C8.51065 2.60181 7.76524 2.30311 6.84662 2.26831Z" fill="#1C1A1A"/>
</svg>
