<svg width="36" height="21" viewBox="0 0 36 21" fill="none" xmlns="http://www.w3.org/2000/svg">
<g clip-path="url(#clip0_989_1393)">
<path d="M19.3428 15.0871C19.4548 15.0397 19.5505 14.9582 19.6175 14.8531C19.6845 14.748 19.7196 14.6242 19.7184 14.4979V8.60562C19.7174 8.38647 19.6346 8.17639 19.4876 8.02025C19.3406 7.8641 19.141 7.77425 18.9315 7.7699H18.862C17.6193 7.77317 16.427 8.28456 15.54 9.19484C15.2322 9.51297 15.0577 9.94578 15.0547 10.3983C15.0517 10.8509 15.2205 11.2862 15.524 11.6087L18.6761 14.9476C18.7609 15.0383 18.8699 15.1002 18.9889 15.125C19.1078 15.1499 19.2312 15.1367 19.3428 15.0871Z" fill="#1C1A1A"/>
<path d="M0.59633 5.96493C0.484284 6.01218 0.388487 6.0937 0.321473 6.19884C0.254459 6.30397 0.219351 6.42781 0.220743 6.55415V12.4513C0.221687 12.6704 0.30454 12.8803 0.451583 13.0363C0.598626 13.1923 0.798189 13.282 1.0076 13.2861H1.07708C2.31986 13.283 3.51218 12.7716 4.39915 11.8611C4.70658 11.5429 4.88073 11.1101 4.88337 10.6577C4.88601 10.2053 4.71693 9.77036 4.41323 9.44823L1.26112 6.10929C1.17714 6.01794 1.06872 5.95527 0.950086 5.92951C0.831449 5.90374 0.708137 5.91609 0.59633 5.96493Z" fill="#1C1A1A"/>
<path d="M5.61224 20.3332C5.65753 20.4503 5.7355 20.5504 5.836 20.6205C5.93649 20.6906 6.05484 20.7273 6.17562 20.726H11.8141C12.0236 20.725 12.2243 20.6384 12.3735 20.4846C12.5226 20.3308 12.6083 20.1221 12.6122 19.9031C12.6122 19.8785 12.6122 19.855 12.6122 19.8304C12.6091 18.5307 12.1201 17.2837 11.2498 16.3559C10.9456 16.0341 10.5318 15.8516 10.0991 15.8484C9.66642 15.8453 9.25022 16.0218 8.94182 16.3392L5.74745 19.6409C5.66104 19.7287 5.60193 19.8418 5.57781 19.9652C5.55369 20.0887 5.56569 20.217 5.61224 20.3332Z" fill="#1C1A1A"/>
<path d="M14.3334 0.719893C14.2883 0.602628 14.2104 0.502359 14.1099 0.432254C14.0093 0.362149 13.8909 0.325485 13.77 0.327076H8.13622C7.92669 0.328058 7.72582 0.414679 7.57653 0.568442C7.42723 0.722205 7.34132 0.930924 7.33716 1.15003V1.2227C7.33942 2.521 7.82704 3.7669 8.69584 4.69422C8.99986 5.01602 9.41353 5.19851 9.84606 5.20164C10.2786 5.20477 10.6946 5.02828 11.0029 4.71091L14.1954 1.4142C14.2826 1.32652 14.3425 1.2133 14.3672 1.08939C14.3918 0.965484 14.38 0.836682 14.3334 0.719893Z" fill="#1C1A1A"/>
<path d="M13.5115 20.6779C13.6226 20.7279 13.7456 20.7415 13.8642 20.7169C13.9829 20.6924 14.0917 20.6308 14.1763 20.5404L18.1631 16.3707C18.3107 16.2151 18.3943 16.0053 18.3958 15.7862C18.3974 15.567 18.3169 15.356 18.1716 15.1981C18.1556 15.1814 18.1396 15.1637 18.1227 15.147C17.2422 14.2301 16.0535 13.7099 14.811 13.6975C14.3783 13.6949 13.9624 13.8719 13.6543 14.1897C13.3462 14.5074 13.1713 14.94 13.1678 15.3925L13.1378 20.0867C13.1358 20.2132 13.1705 20.3373 13.2372 20.4428C13.3039 20.5483 13.3995 20.6302 13.5115 20.6779Z" fill="#1C1A1A"/>
<path d="M6.43333 0.374161C6.3222 0.324206 6.19922 0.310604 6.08056 0.335144C5.9619 0.359684 5.85312 0.421217 5.76854 0.511647L1.7845 4.6814C1.63689 4.83694 1.55336 5.04673 1.55178 5.26588C1.5502 5.48502 1.6307 5.69611 1.77605 5.85396L1.82488 5.90503C2.70499 6.82149 3.89285 7.34169 5.13474 7.35452C5.56732 7.35714 5.98321 7.18011 6.29111 6.86232C6.59902 6.54453 6.77376 6.11194 6.77699 5.65952L6.80704 0.965351C6.80896 0.8389 6.77431 0.714793 6.70762 0.609298C6.64093 0.503803 6.54532 0.421842 6.43333 0.374161Z" fill="#1C1A1A"/>
<path d="M0.266724 14.2279C0.21814 14.3445 0.204605 14.4738 0.227914 14.5987C0.251224 14.7236 0.310276 14.8381 0.397241 14.9271L4.38409 19.0968C4.53281 19.2512 4.7334 19.3386 4.94294 19.3402C5.15247 19.3419 5.35429 19.2577 5.50522 19.1057L5.55499 19.0546C6.43201 18.1335 6.92918 16.8898 6.93996 15.59C6.94246 15.1375 6.77321 14.7026 6.46935 14.3805C6.1655 14.0585 5.75188 13.8757 5.31931 13.8724L0.831983 13.837C0.711051 13.8349 0.59233 13.871 0.491437 13.9408C0.390544 14.0106 0.312205 14.1106 0.266724 14.2279Z" fill="#1C1A1A"/>
<path d="M19.6788 6.82425C19.7266 6.70803 19.7396 6.5794 19.7161 6.4553C19.6927 6.3312 19.6338 6.21743 19.5474 6.12897L15.5615 1.96412C15.4127 1.80974 15.2122 1.72238 15.0026 1.72073C14.7931 1.71908 14.5913 1.80327 14.4403 1.95529C14.4234 1.97198 14.4065 1.98868 14.3906 2.00635C13.5148 2.92635 13.0174 4.16791 13.0047 5.46609C13.0024 5.91844 13.1717 6.35326 13.4755 6.67523C13.7793 6.9972 14.1928 7.18005 14.6253 7.18368L19.1136 7.21511C19.2345 7.21712 19.3531 7.18087 19.454 7.11113C19.5549 7.04138 19.6333 6.94139 19.6788 6.82425Z" fill="#1C1A1A"/>
</g>
<path d="M31.466 10.0561L31.3934 10.4843C31.2676 10.3336 31.1127 10.2126 30.939 10.1292C30.7652 10.0458 30.5765 10.0019 30.3854 10.0004H30.3533C30.1768 9.99589 30.0014 10.029 29.8375 10.0978C29.6737 10.1665 29.5249 10.2694 29.4003 10.4003C29.3893 10.4118 29.3774 10.4233 29.3673 10.4357C29.3572 10.4481 29.3546 10.4516 29.3479 10.4587C29.1147 10.7477 28.9911 11.1164 29.0006 11.4947V11.5053C28.9901 11.8831 29.1125 12.2518 29.3445 12.5413C29.3513 12.5493 29.3572 12.5572 29.3639 12.5643C29.3707 12.5714 29.3859 12.5882 29.3969 12.5997C29.5215 12.7306 29.6703 12.8335 29.8341 12.9022C29.998 12.971 30.1735 13.0041 30.3499 12.9996H30.382C30.5732 12.9981 30.7618 12.9542 30.9356 12.8708C31.1093 12.7874 31.2642 12.6664 31.39 12.5157V12.9439H32V10.0561H31.466ZM30.5071 12.4219C29.9875 12.4219 29.6157 12.0388 29.6157 11.5C29.6157 10.9612 29.9875 10.5781 30.5071 10.5781C30.7406 10.5781 30.9645 10.6753 31.1296 10.8481C31.2947 11.021 31.3875 11.2555 31.3875 11.5C31.3875 11.7445 31.2947 11.979 31.1296 12.1519C30.9645 12.3247 30.7406 12.4219 30.5071 12.4219Z" fill="#1C1A1A"/>
<path d="M25 10.0662V15H25.61V12.9654C25.7356 13.143 25.8903 13.2857 26.0638 13.384C26.2373 13.4824 26.4257 13.5341 26.6166 13.5358H26.6487C26.8248 13.5412 26.9999 13.5022 27.1634 13.4212C27.3269 13.3402 27.4753 13.2188 27.5996 13.0644C27.6114 13.0509 27.6224 13.0373 27.6333 13.0227C27.64 13.0142 27.6462 13.0051 27.6519 12.9956C27.8851 12.6551 28.0088 12.2204 27.9995 11.7744V11.7619C28.0088 11.3159 27.8851 10.8812 27.6519 10.5407L27.6333 10.5136C27.6224 10.499 27.6114 10.4854 27.5996 10.4719C27.4753 10.3176 27.3269 10.1962 27.1634 10.1151C26.9999 10.0341 26.8248 9.99507 26.6487 10.0005H26.6166C26.4257 10.0022 26.2373 10.054 26.0638 10.1523C25.8903 10.2506 25.7356 10.3933 25.61 10.5709L25.5366 10.0662H25ZM25.5172 11.7682C25.5138 11.6243 25.5343 11.4811 25.5772 11.3474C25.6202 11.2137 25.6849 11.0922 25.7672 10.9905C25.8495 10.8887 25.9478 10.8088 26.056 10.7557C26.1642 10.7026 26.28 10.6773 26.3964 10.6815C26.9161 10.6815 27.2874 11.1331 27.2874 11.7682C27.2874 12.4033 26.9161 12.8548 26.3964 12.8548C26.28 12.859 26.1642 12.8338 26.056 12.7806C25.9478 12.7275 25.8495 12.6476 25.7672 12.5458C25.6849 12.4441 25.6202 12.3226 25.5772 12.1889C25.5343 12.0552 25.5138 11.912 25.5172 11.7682Z" fill="#1C1A1A"/>
<path d="M36 10L34.2515 15H33.6085L34.2002 13.3995L33 10.0011H33.6785C34.2648 11.7003 34.45 12.2738 34.5252 12.7039C34.5961 12.2791 34.7644 11.7077 35.3401 10.0011L36 10Z" fill="#1C1A1A"/>
<defs>
<clipPath id="clip0_989_1393">
<rect width="20" height="21" fill="white"/>
</clipPath>
</defs>
</svg>
