<svg width="54" height="21" viewBox="0 0 54 21" fill="none" xmlns="http://www.w3.org/2000/svg">
<path fill-rule="evenodd" clip-rule="evenodd" d="M8.57987 4.00232C9.00441 3.99966 10.2661 3.88041 10.8005 5.77319C11.1605 7.04819 11.734 9.1367 12.5209 12.0387H12.8414C13.6853 8.97921 14.265 6.8907 14.5805 5.77319C15.1205 3.86069 16.4705 4.00236 17.0105 4.00236L21.1768 4.00236V17.6023H16.9304V9.58764H16.6457L14.2786 17.6023H11.0837L8.71663 9.5817H8.43188V17.6023H4.18555V4.00236L8.57987 4.00232ZM27.2744 4.00236V12.023H27.6132L30.4926 5.42769C31.0515 4.1152 32.2428 4.00236 32.2428 4.00236H36.352V17.6024H32.0169V9.5817H31.6782L28.8553 16.177C28.2963 17.4836 27.0486 17.6024 27.0486 17.6024H22.9394V4.00236H27.2744ZM51.3357 10.4652C50.731 12.2633 48.8321 13.5511 46.7296 13.5511H42.1835V17.6024H38.0612V10.4652H51.3357Z" fill="#1C1A1A"/>
<path fill-rule="evenodd" clip-rule="evenodd" d="M46.9282 4.00232H37.8447C38.0609 7.03014 40.5457 9.62215 43.1179 9.62215H51.6219C52.1126 7.10568 50.4232 4.00232 46.9282 4.00232Z" fill="#1C1A1A"/>
</svg>
