<svg width="77" height="21" viewBox="0 0 77 21" fill="none" xmlns="http://www.w3.org/2000/svg">
<g clip-path="url(#clip0_989_1420)">
<mask id="mask0_989_1420" style="mask-type:luminance" maskUnits="userSpaceOnUse" x="0" y="0" width="77" height="21">
<path d="M77 0H0V21H77V0Z" fill="white"/>
</mask>
<g mask="url(#mask0_989_1420)">
<path fill-rule="evenodd" clip-rule="evenodd" d="M5.20633 10.3305L4.86114 11.1242C4.97474 11.1242 4.97474 11.1242 5.09272 11.1242C5.43791 11.1242 5.55588 11.1242 5.78748 11.0127C5.9011 11.0127 6.01904 10.9011 6.01904 10.7853C6.01904 10.6737 6.01904 10.5579 6.01904 10.4464C5.90542 10.3348 5.78748 10.3348 5.55588 10.3348C5.44228 10.3348 5.21069 10.3348 5.21069 10.3348L5.20633 10.3305ZM71.5662 7.37895H73.6463L72.0293 12.6H69.9498L71.5662 7.37895ZM43.0114 3.51785C42.3167 2.83573 40.9316 3.17894 39.7736 3.6294C39.7736 3.74094 39.7736 3.85677 39.7736 3.96832C39.7736 5.55567 39.0789 6.80409 37.9253 7.48621C38.6201 7.48621 39.5421 7.25882 40.4684 6.69252C42.3167 5.67149 43.5882 4.30723 43.0114 3.51357V3.51785ZM75.8439 13.3936H56.0765L56.308 14.8694H76.307L75.8439 13.3936ZM1.04217 17.7052L0.928563 18.3873H2.20009C1.96851 18.842 1.62331 18.9536 1.16014 18.9536C0.928563 18.9536 0.58337 18.9536 0.351784 18.842L0.0065918 19.7516C0.469761 19.8631 0.932934 19.8631 1.16452 19.8631C2.89921 19.8631 3.70758 18.842 3.70758 17.7052C3.70758 17.0231 3.36239 16.5683 2.66763 16.3409C2.20446 16.2294 1.62768 16.2294 1.05091 16.3409L0.819322 17.2505C1.28249 17.1389 2.20883 17.0231 2.32244 17.7052H1.05091H1.04217ZM4.27999 17.2505L3.70321 19.8631H4.97474L5.20633 18.842H5.66949L5.43791 19.8631H6.70943L7.28621 17.2505H6.01466L5.78311 18.1599H5.31993L5.5515 17.2505H4.27999ZM10.406 18.8378V18.7262C10.5197 18.4989 10.5197 18.3873 10.5197 18.1599C10.5197 18.0484 10.5197 17.9326 10.406 17.821C10.406 17.5936 10.0609 17.1389 9.24811 17.1389C7.85862 17.1389 7.39983 18.2758 7.39983 18.842C7.39983 19.181 7.51345 19.4083 7.745 19.6357C8.09023 19.8631 8.43977 19.8631 8.78495 19.8631C9.13017 19.8631 9.59333 19.8631 10.0565 19.7516L10.1701 19.0694C9.82489 19.181 9.47534 19.2968 9.13017 19.2968C8.55339 19.2968 8.55339 18.9579 8.55339 18.842H10.4017L10.406 18.8378ZM8.67138 18.2715C8.78495 17.8167 9.01655 17.8167 9.13455 17.8167C9.24811 17.8167 9.3661 17.8167 9.3661 18.0441C9.3661 18.1557 9.3661 18.1557 9.3661 18.2715H8.67138ZM12.3724 17.2505H11.1008L10.2924 20.8842H11.682L11.9135 19.5199C12.1451 19.8588 12.4903 19.8588 12.7219 19.8588C13.5302 19.8588 14.225 19.1767 14.225 18.1557C14.225 17.2462 13.5303 17.1346 13.2987 17.1346C12.8355 17.1346 12.4903 17.362 12.2588 17.7009L12.3724 17.2462V17.2505ZM12.4859 18.0441C12.5995 18.0441 12.8312 18.0441 12.8312 18.2715C12.8312 18.383 12.7175 18.7262 12.7175 18.8378C12.6039 19.0651 12.3724 19.0651 12.2544 19.0651C12.2544 19.0651 12.0228 19.0651 12.0228 18.8378C12.0228 18.6104 12.1364 18.4989 12.1364 18.2715C12.25 18.0441 12.368 18.0441 12.4816 18.0441H12.4859ZM16.8773 17.9326L16.9909 17.2505H14.793L14.2163 19.8631H15.4878L15.951 17.9326H16.8773ZM19.1888 17.2505L18.3804 18.3873L18.612 17.2505H17.4541L16.8773 19.8631H18.1489L18.9572 18.6147H19.0708L18.7256 19.8631H19.9971L20.4604 17.2505H19.1888ZM23.9297 17.2505H21.9635C21.1551 17.2505 20.6919 17.7052 20.6919 18.2715C20.6919 18.6104 20.9235 18.7262 21.1551 18.8378L20.3467 19.8588H21.6182L22.195 18.9493H22.3086L22.0771 19.8588H23.4666L23.9297 17.2462V17.2505ZM22.5402 17.8167L22.4266 18.383H22.313C22.1994 18.383 22.0814 18.383 22.0814 18.1557C22.0814 18.0441 22.0814 17.8167 22.4266 17.8167H22.5402ZM25.7781 17.2505L25.6645 17.9326H26.3592L26.014 19.8631H27.2856L27.6307 17.9326H28.4391L28.5527 17.2505H25.7781ZM28.8979 17.2505L28.3211 19.8631H30.2874C31.0958 19.8631 31.4453 19.4083 31.4453 18.9536C31.4453 18.7262 31.2137 18.4989 30.9822 18.4989C31.4453 18.3873 31.5589 18.0441 31.5589 17.7052C31.5589 17.2505 30.9822 17.2505 30.8642 17.2505H28.8979ZM29.9378 17.8167H30.0515C30.165 17.8167 30.3966 17.8167 30.3966 17.9283C30.3966 18.0398 30.3966 18.2672 29.9335 18.2672H29.8199L29.9335 17.8125L29.9378 17.8167ZM29.7062 18.7262H29.9378C30.0515 18.7262 30.283 18.7262 30.283 18.9536C30.283 19.0651 30.1694 19.2925 29.8199 19.2925H29.5883L29.7019 18.7262H29.7062ZM33.8704 17.1389C32.4809 17.1389 31.7905 18.0484 31.7905 18.842C31.7905 19.181 32.0221 19.8631 33.2936 19.8631C34.5652 19.8631 35.2599 19.0694 35.2599 18.2758C35.2599 17.7095 34.9147 17.1389 33.8704 17.1389ZM33.6388 17.9326C33.8704 17.9326 33.8704 18.0441 33.8704 18.1599C33.8704 18.3873 33.8704 18.6147 33.7568 18.842C33.7568 18.9536 33.6432 19.181 33.4116 19.181C33.298 19.181 33.18 19.0694 33.18 18.842C33.18 18.7305 33.2936 18.2758 33.4116 18.1599C33.4116 18.0484 33.5252 17.9326 33.6432 17.9326H33.6388ZM38.4934 18.842V18.7305C38.607 18.5031 38.607 18.3916 38.607 18.1642C38.607 18.0527 38.607 17.9368 38.4934 17.8253C38.4934 17.5979 38.1481 17.1432 37.3354 17.1432C35.9459 17.1432 35.4871 18.2801 35.4871 18.8464C35.4871 19.1853 35.6007 19.4127 35.8323 19.64C36.0639 19.8674 36.5271 19.8674 36.8723 19.8674C37.2174 19.8674 37.6806 19.8674 38.1438 19.7559L38.2574 19.0737C37.9122 19.1853 37.5627 19.3011 37.2174 19.3011C36.6407 19.3011 36.6407 18.9622 36.6407 18.8464H38.489L38.4934 18.842ZM36.7587 18.2758C36.8723 17.821 37.1038 17.821 37.2218 17.821C37.3354 17.821 37.4534 17.821 37.4534 18.0484C37.4534 18.1599 37.4534 18.1599 37.4534 18.2758H36.7587ZM41.268 17.9368L41.4996 17.2547H39.1881L38.6113 19.8674H40.0009L40.346 17.9368H41.2724H41.268ZM43.3479 17.1432C42.0764 17.1432 41.3816 18.0527 41.3816 18.8464C41.3816 19.1853 41.6132 19.8674 42.8848 19.8674C44.0426 19.8674 44.851 19.0737 44.851 18.2801C44.851 17.7138 44.5058 17.1432 43.3479 17.1432ZM43.2343 17.9368C43.4659 17.9368 43.4659 18.0484 43.4659 18.1642C43.4659 18.3916 43.3523 18.619 43.3523 18.8464C43.2387 18.9579 43.1207 19.1853 43.0071 19.1853C42.8935 19.1853 42.7755 19.0737 42.7755 18.8464C42.7755 18.7348 42.8891 18.2801 43.0071 18.1642C43.0071 18.0527 43.1207 17.9368 43.2387 17.9368H43.2343ZM50.1731 15.8948C49.9415 16.0063 49.7099 16.1222 49.3647 16.1222C48.7879 16.1222 48.2068 16.1222 47.6301 16.4611C46.9353 16.9158 46.5901 17.9368 46.5901 18.7305C46.5901 19.1853 46.7037 19.8674 47.9796 19.8674C49.4827 19.8674 49.9459 18.9579 49.9459 18.3916C49.9459 17.7095 49.3691 17.3705 48.6743 17.3705C48.3292 17.3705 47.866 17.4821 47.5164 17.8253V17.7138C47.6301 17.3748 47.9796 17.1475 48.2112 17.1475C48.5564 17.0359 48.7879 17.0359 49.2511 17.0359C49.5963 17.0359 49.8279 16.9244 49.9459 16.8085L50.1775 15.8991L50.1731 15.8948ZM48.0932 19.1853C47.9796 19.1853 47.8616 18.9579 47.8616 18.9579C47.8616 18.7305 47.9752 18.5031 47.9752 18.3916C48.0888 18.1642 48.2068 18.1642 48.3204 18.1642C48.552 18.1642 48.552 18.2758 48.552 18.3916C48.552 18.3916 48.552 18.5031 48.552 18.619C48.4384 18.8464 48.3204 19.1853 48.0888 19.1853H48.0932ZM50.2911 17.2547L50.6363 19.8674V19.979C50.5227 20.2063 50.2911 20.2063 50.1731 20.2063C50.0595 20.2063 49.9415 20.2063 49.8279 20.0948L49.7143 20.8884C49.9459 21 50.1775 21 50.409 21C51.2174 21 51.6806 20.6611 52.1438 19.979L53.5332 17.2547H52.2617L51.685 18.842H51.5714V17.2547H50.2998H50.2911ZM56.8803 17.2547H54.2193L54.1057 17.7095C53.9921 18.2758 53.8741 18.7305 53.4109 19.0737H53.1793L52.8342 20.5495H54.1057L54.2193 19.8674H55.4909L55.3772 20.5495H56.5351L56.8803 19.0737H56.5351L56.8803 17.259V17.2547ZM55.2636 19.0694H54.5688C54.914 18.7305 55.032 18.5031 55.032 18.1599L55.1456 17.9326H55.4909L55.2592 19.0694H55.2636ZM57.2298 17.2547L57.6929 19.8674V19.979C57.5793 20.2063 57.3478 20.2063 57.2298 20.2063C57.1162 20.2063 56.9982 20.2063 56.7667 20.0948L56.6531 20.8884C56.8847 21 57.2298 21 57.4614 21C58.156 21 58.7332 20.6611 59.0784 19.979L60.5812 17.2547H59.3099L58.6152 18.842V17.2547H57.2254H57.2298ZM60.8128 17.2547L60.2361 19.8674H63.8191L63.7056 20.5495H64.8633L65.0949 19.0737H64.7498L65.2129 17.259H63.9415L63.5964 19.0737H63.1333L63.5964 17.259H62.4381L61.975 19.0737H61.6299L61.975 17.259H60.8172L60.8128 17.2547ZM68.4419 18.842L68.5555 18.7305C68.5555 18.5031 68.5555 18.3916 68.5555 18.1642C68.5555 18.0527 68.5555 17.9368 68.5555 17.8253C68.4419 17.5979 68.2103 17.1432 67.2841 17.1432C65.8948 17.1432 65.4361 18.2801 65.4361 18.8464C65.4361 19.1853 65.5497 19.4127 65.7812 19.64C66.1264 19.8674 66.5895 19.8674 66.821 19.8674C67.1661 19.8674 67.6292 19.8674 68.0923 19.7559L68.2059 19.0737C67.9743 19.1853 67.5112 19.3011 67.1661 19.3011C66.703 19.3011 66.5895 18.9622 66.703 18.8464H68.4375L68.4419 18.842ZM66.8254 18.2758C66.8254 17.821 67.1706 17.821 67.1706 17.821C67.2841 17.821 67.5157 17.821 67.5157 18.0484C67.5157 18.1599 67.5157 18.1599 67.4021 18.2758H66.8254ZM71.2167 17.9368L71.4482 17.2547H69.1371L68.6734 19.8674H69.9453L70.2904 17.9368H71.2167ZM73.4148 17.1432C72.0249 17.1432 71.3346 18.0527 71.3346 18.8464C71.3346 19.1853 71.5662 19.8674 72.8381 19.8674C74.1094 19.8674 74.8041 19.0737 74.8041 18.2801C74.8041 17.7138 74.459 17.1432 73.4192 17.1432H73.4148ZM73.1832 17.9368C73.4148 17.9368 73.4148 18.0484 73.4148 18.1642C73.4148 18.3916 73.3012 18.619 73.3012 18.8464C73.1876 18.9579 73.1876 19.1853 72.9555 19.1853C72.842 19.1853 72.724 19.0737 72.724 18.8464C72.724 18.7348 72.8381 18.2801 72.9555 18.1642C72.9555 18.0527 73.0696 17.9368 73.1876 17.9368H73.1832ZM75.6123 16.3495L75.3808 18.5074H76.307L77.0022 16.3495H75.6123ZM75.1492 18.8464L75.0356 19.8674H76.0754L76.307 18.8464H75.1492ZM74.341 8.63163H76.5391L74.9221 10.4464L75.6167 12.6043H73.3056L72.842 10.4464L74.3454 8.63163H74.341ZM65.322 8.63163H67.4021L66.939 9.88005H68.2103L68.5555 8.63163H70.6356L69.3642 12.6043H67.2841L67.7472 11.1285H66.5895L66.1264 12.6043H64.0462L65.3181 8.63163H65.322ZM55.4954 8.85902C56.3036 8.63163 56.9982 8.52011 57.4614 8.52011C58.156 8.52011 58.5017 8.63163 58.8512 8.85902C59.0828 9.19793 59.1964 9.54114 59.1964 10.1074C59.1964 10.219 59.0828 10.3348 59.0828 10.5622C58.9692 10.7896 58.8512 11.017 58.7371 11.2443C58.6236 11.4717 58.392 11.6991 58.1604 11.9264C57.9289 12.038 57.6973 12.2653 57.3522 12.3812C57.0071 12.4927 56.6576 12.6085 56.3125 12.6085C56.0809 12.7201 55.8493 12.7201 55.5037 12.7201C55.0407 12.7201 54.6956 12.6085 54.464 12.4927L54.8092 14.9896H52.9608V12.9475L51.9209 14.9896H50.0726L49.7274 12.9475L49.0327 14.9896H47.1843L48.9191 11.2443H50.8853L51.3485 13.059L52.1569 11.2443H53.4284C53.4284 11.1328 53.4284 10.9054 53.4284 10.678L54.0052 8.86333C54.2368 8.29703 54.4683 7.95381 54.9315 7.61491C55.3947 7.276 55.8577 7.16012 56.4349 7.04861C56.898 6.93704 57.4747 6.93704 58.1693 6.82121C58.864 6.82121 59.3271 6.82121 59.5586 6.82121L59.0955 8.29703C58.6324 8.18546 58.2873 8.06964 57.7062 8.06964C57.3611 8.06964 57.0115 8.18121 56.6664 8.18121C56.3208 8.29272 56.0892 8.29272 55.8577 8.40854C55.6261 8.52011 55.5125 8.63594 55.5125 8.74745C55.5125 8.85902 55.5125 8.85902 55.5125 8.85902H55.4954ZM61.5075 12.6043C61.3939 12.6043 60.9308 12.7158 60.9308 12.7158C60.6992 12.7158 60.4677 12.7158 60.3541 12.7158C59.7774 12.7158 59.4279 12.6043 59.1964 12.3769C58.9648 12.1495 58.8512 11.9222 58.9648 11.5832C59.0784 11.2443 59.1964 11.017 59.4279 10.9011C59.5415 10.6737 59.773 10.5622 60.0046 10.4464C60.2361 10.4464 60.5812 10.3348 60.9308 10.3348C61.2759 10.2233 61.5075 10.2233 61.857 10.1074C61.9706 10.1074 62.0886 10.1074 62.0886 10.1074C62.2027 9.99588 62.2027 9.99588 62.3201 9.88005L62.2066 9.76854C62.093 9.76854 61.975 9.76854 61.8614 9.76854C61.3983 9.76854 60.8217 9.88005 59.8954 10.1074L60.4721 8.85902C61.3983 8.74745 62.0886 8.63163 62.6702 8.63163C63.2469 8.63163 63.71 8.7432 64.0595 8.85902C64.4047 8.97054 64.5226 9.31375 64.4047 9.54114L63.4784 12.6043H61.5119H61.5075ZM61.8526 11.5832L61.9667 11.1285C61.7351 11.24 61.503 11.24 61.3895 11.24C61.2759 11.3516 61.1579 11.3516 61.1579 11.3516C61.0443 11.4631 61.0443 11.4631 61.0443 11.4631C61.0443 11.5746 61.0443 11.5746 61.0443 11.6905C61.1579 11.6905 61.1579 11.6905 61.2759 11.6905C61.3895 11.6905 61.3895 11.6905 61.5075 11.6905C61.5075 11.6905 61.739 11.579 61.8526 11.579V11.5832ZM16.6501 13.1705C16.5365 12.2611 16.5365 11.3559 16.5365 10.4464L15.147 12.6043H13.0671L15.9554 8.63163H18.2669L18.4984 11.2443C19.0752 11.2443 19.6563 11.1328 20.1151 11.1328C20.4604 11.1328 20.8099 11.1328 21.1551 11.2443C21.5003 11.3559 21.7319 11.4717 21.9635 11.5832C22.3086 11.9222 22.195 12.4927 21.8499 12.8316C21.7362 13.059 21.5046 13.1705 21.3867 13.2864C21.1551 13.3979 20.9235 13.5138 20.6919 13.5138C20.4604 13.6253 20.1151 13.6253 19.7656 13.6253C19.652 13.7368 19.534 13.7368 19.534 13.7368C19.4204 13.8484 19.4204 13.8484 19.4204 13.8484C19.4204 13.9599 19.4204 13.9599 19.534 13.9599C19.534 14.0715 19.6476 14.0715 19.8792 14.0715C20.2244 14.0715 20.8055 13.9599 21.6139 13.7326L21.2687 14.8694C20.5739 14.981 19.8792 14.981 19.3024 14.981C18.7256 14.981 18.2625 14.981 17.9129 14.7536C17.5677 14.642 17.3361 14.4147 17.3361 14.0715C17.4497 13.7326 17.5677 13.5052 17.7993 13.2778C18.0309 13.0505 18.2625 12.9389 18.6077 12.8231C18.8393 12.8231 19.3024 12.7115 19.7656 12.5957C19.8792 12.5957 19.9971 12.5957 20.1108 12.5957C20.1108 12.4842 20.1108 12.4842 20.1108 12.3683C20.2244 12.3683 20.1108 12.2568 19.9971 12.2568C19.9971 12.2568 19.8836 12.1453 19.652 12.1453C18.494 12.1453 17.6857 12.8274 16.6458 13.1663L16.6501 13.1705ZM1.96851 13.3979H16.8817L16.5365 14.8737H1.50534L1.96851 13.3979ZM5.5515 9.08641C5.66512 9.08641 6.47788 9.08641 6.59144 9.08641C7.05466 9.08641 7.39983 9.08641 7.74938 9.31375C7.98099 9.42532 8.21254 9.65271 8.21254 9.99588C8.32616 10.2233 8.32616 10.5622 8.21254 10.9054C8.09893 11.1328 7.98099 11.4717 7.74938 11.6991C7.51782 11.9264 7.28621 12.1538 6.94104 12.3812C6.59582 12.4927 6.36426 12.6085 6.01466 12.6085H2.20009L3.81682 7.27169H8.55777L8.21254 8.74745H5.66949L5.55588 9.08641H5.5515ZM13.1807 11.2443L12.3724 12.4927C11.2144 12.6043 9.82926 12.9475 8.90294 12.1538C8.55777 11.9264 8.43977 11.3601 8.67138 10.678C8.67138 10.4507 8.78495 10.2233 8.90294 9.88436C9.13455 9.65697 9.3661 9.42963 9.59771 9.20224C9.94288 8.97484 10.2924 8.86333 10.6377 8.74745C11.446 8.52011 12.3724 8.40854 13.0671 8.85902C13.4123 8.97054 13.5303 9.19793 13.6439 9.54114C13.7575 9.76854 13.7575 10.1074 13.6439 10.4507C13.6439 10.5622 13.6439 10.5622 13.5303 10.678C13.5303 10.7896 13.5303 10.7896 13.5303 10.9054H10.524C10.524 11.2443 10.7556 11.4717 11.3324 11.4717C11.9092 11.4717 12.7219 11.3601 13.1807 11.2443ZM10.7513 10.2233H11.7912V10.1118C11.7912 10.0002 11.7912 9.88436 11.7912 9.77279C11.5596 9.54545 11.2144 9.66127 11.0964 9.77279C10.8649 9.88436 10.8649 10.0002 10.7513 10.2276V10.2233ZM24.3929 14.9896H23.9297C23.6981 14.9896 23.5846 15.1011 23.353 15.1011C22.8898 15.1011 22.5446 14.9896 22.313 14.7622C21.9678 14.5348 21.8499 14.3074 21.9678 13.9685C21.9678 13.7411 22.0814 13.5138 22.1994 13.2864C22.313 13.1748 22.5446 13.059 22.7762 12.9475C23.0078 12.8359 23.2393 12.8359 23.471 12.7201C23.8161 12.7201 24.1657 12.7201 24.3973 12.6085C24.5109 12.6085 24.5109 12.6085 24.6289 12.6085C24.6289 12.497 24.7424 12.497 24.7424 12.3812C24.7424 12.3812 24.7424 12.3812 24.6289 12.2696C24.5153 12.2696 24.3973 12.2696 24.2837 12.2696C23.9385 12.2696 23.3573 12.3812 22.5489 12.6085L22.8942 11.4717C23.7025 11.2443 24.3973 11.2443 24.8604 11.2443C25.4372 11.2443 25.9004 11.3559 26.2499 11.4717C26.4815 11.5832 26.7132 11.8106 26.7132 12.1538L26.3679 14.9896H24.4017H24.3929ZM27.3991 11.4717C28.2075 11.2443 28.9023 11.2443 29.4791 11.2443C30.1738 11.2443 30.6369 11.3559 30.8685 11.4717C31.1001 11.6991 31.2137 11.9264 31.2137 12.2653C31.2137 12.3769 31.1001 12.6043 30.9822 12.7201C30.7506 12.8316 30.6369 12.9475 30.4054 13.059C30.6369 13.1705 30.8685 13.2864 30.9822 13.3979C31.0958 13.5095 31.0958 13.7368 31.0958 13.9642V14.0758C30.9822 14.3031 30.8642 14.5305 30.6326 14.642C30.401 14.8694 30.1694 14.8694 29.8242 14.981C29.4791 15.0925 29.1295 15.0925 28.6663 15.0925C28.2031 15.0925 27.6263 15.0925 27.0496 14.981V13.8441C27.5127 13.9557 28.0895 14.183 28.6663 14.183C28.7799 14.183 29.0115 14.183 29.1295 14.0715C29.2431 13.9599 29.3611 13.8441 29.3611 13.7326C29.3611 13.5052 29.1295 13.2778 28.7843 13.0505C28.8979 13.0505 29.0158 12.9389 29.1295 12.8231C29.2431 12.8231 29.3611 12.7115 29.3611 12.5957C29.3611 12.3683 29.3611 12.3683 29.1295 12.2568C29.1295 12.2568 29.0158 12.2568 28.8979 12.2568C28.3211 12.2568 27.74 12.3683 27.1632 12.5957L27.3948 11.4588L27.3991 11.4717ZM39.8872 12.3812C40.1189 12.4927 40.2324 12.8359 40.2324 13.1748C40.2324 13.5138 39.8872 13.857 39.5377 13.7411C39.3061 13.7411 39.1925 13.4022 39.1925 13.059C39.3061 12.6043 39.5377 12.3769 39.8872 12.3769V12.3812ZM31.9085 11.2443H33.7568V11.5832C33.8704 11.4717 34.102 11.3559 34.3336 11.2443C34.6788 11.1328 34.9103 11.1328 35.2599 11.1328C35.4915 11.1328 35.7231 11.1328 35.9546 11.2443C36.1863 11.3559 36.4179 11.4717 36.5314 11.6991C36.645 11.9264 36.763 12.1538 36.645 12.3812L36.4135 14.9939H34.4472L34.6788 13.0633C34.6788 12.9518 34.6788 12.8359 34.5652 12.7244C34.4515 12.6129 34.4515 12.6129 34.3336 12.6129C34.102 12.6129 33.9884 12.6129 33.8704 12.8402C33.6388 12.9518 33.6388 13.0676 33.5252 13.4065L33.4116 14.9939H31.4453L31.9085 11.2486V11.2443ZM44.6238 12.6085C44.5102 12.7201 44.3922 12.9475 44.3922 13.0633C44.3922 13.2907 44.3922 13.4022 44.5058 13.6296C44.6194 13.7411 44.7374 13.857 44.851 13.857C44.9646 13.857 45.1962 13.7455 45.3142 13.6296C45.4278 13.5181 45.5458 13.2907 45.5458 13.1748C45.5458 12.9475 45.5458 12.8359 45.4322 12.6085C45.3186 12.497 45.2006 12.3812 45.087 12.3812C44.9733 12.3812 44.8554 12.4927 44.6238 12.6085ZM44.3922 11.2443C44.7374 11.1328 45.087 11.1328 45.3186 11.1328C45.6637 11.1328 45.8953 11.1328 46.2449 11.2443C46.4765 11.3559 46.7081 11.3559 46.8217 11.5832C47.0533 11.6948 47.1668 11.8106 47.2848 12.038C47.3985 12.2653 47.5164 12.3769 47.5164 12.6043C47.5164 12.7158 47.5164 12.9432 47.5164 13.059C47.5164 13.2864 47.4028 13.5138 47.2848 13.7411C47.1712 13.8527 47.0533 14.0801 46.8217 14.3074C46.7081 14.419 46.4765 14.6464 46.2449 14.7622C46.0133 14.8737 45.6681 14.8737 45.4366 14.9896C45.0913 14.9896 44.8598 14.9896 44.6282 14.9896C44.165 14.9896 43.7018 14.878 43.3566 14.7622C43.0114 14.5348 42.7798 14.3074 42.6619 14.0801C42.5483 13.7411 42.4303 13.3979 42.4303 13.059C42.5439 12.7201 42.7755 12.2653 43.0071 11.9222C43.3523 11.5832 43.8155 11.3559 44.3966 11.24L44.3922 11.2443ZM37.4534 11.3559C37.5671 11.3559 37.685 11.3559 38.0302 11.3559C38.3754 11.2443 38.607 11.2443 38.8385 11.2443C39.0702 11.2443 39.3017 11.2443 39.6469 11.2443C40.9184 11.2443 41.6132 11.4717 41.9584 12.038C42.072 12.4927 42.19 12.8316 42.072 13.2864C42.072 13.6253 41.9584 13.9685 41.8404 14.1959C41.7268 14.4233 41.4952 14.6507 41.1457 14.878C40.9141 14.9896 40.6825 15.1054 40.3373 15.1054C39.8741 15.1054 39.4109 14.9939 38.9478 14.7665L38.7162 16.5812H36.7499L37.4447 11.3601L37.4534 11.3559ZM24.5065 13.9685L24.6201 13.5138C24.5065 13.6253 24.2749 13.6253 24.0434 13.7411H23.9297C23.8161 13.8527 23.8161 13.8527 23.8161 13.8527C23.8161 13.9642 23.8161 14.0801 23.9297 14.0801C23.9297 14.0801 24.0434 14.0801 24.1613 14.0801C24.2749 14.0801 24.3929 14.0801 24.5065 13.9685ZM55.954 9.99588C55.8405 10.2233 55.6089 10.4507 55.6089 10.678C55.4954 10.7896 55.4954 11.017 55.6089 11.1328C55.6089 11.3601 55.7225 11.3601 55.954 11.3601C56.0676 11.3601 56.2992 11.3601 56.5307 11.1328C56.6443 11.0212 56.7623 10.9054 56.8758 10.678C56.8758 10.4507 56.8758 10.3391 56.8758 10.2233C56.8758 10.1118 56.8758 9.99588 56.7623 9.88436C56.7623 9.88436 56.6487 9.77279 56.5307 9.77279C56.4171 9.77279 56.1856 9.88436 55.954 10.0002V9.99588ZM29.2474 3.52644C29.8242 2.84431 31.2137 3.18752 32.4853 3.63798C32.4853 3.74952 32.4853 3.86536 32.4853 3.9769C32.4853 5.56423 33.18 6.81265 34.3336 7.49478C33.5252 7.49478 32.7168 7.26738 31.6726 6.70108C29.9378 5.68005 28.6663 4.31581 29.2431 3.52215L29.2474 3.52644ZM44.8554 6.36218C44.5102 6.02327 43.6975 5.90744 42.7755 5.79588C42.3124 6.478 41.7356 7.0443 41.0408 7.49908C40.6956 7.72642 40.346 7.83799 40.0009 7.95381C40.464 7.95381 40.9272 7.95381 41.504 7.84224C43.8155 7.61491 45.5501 7.04861 44.8554 6.36648V6.36218ZM29.2474 5.68005C28.0895 5.79162 27.2812 6.01896 26.936 6.36218C26.1276 7.15587 27.7443 8.06533 30.1738 8.40429C31.6769 8.63163 34.7968 8.85902 36.0683 8.06533C37.4578 8.85902 40.5776 8.63163 42.0807 8.40429C44.5102 8.06533 46.1269 7.15587 45.3186 6.36218C44.9733 6.02327 44.047 5.79588 42.8891 5.68005C43.4659 4.77056 43.6975 3.9769 43.2343 3.29477C42.7711 2.72848 41.268 2.61265 39.6513 3.18323C39.3061 1.36852 37.9166 0.00427246 36.0683 0.00427246C34.3336 0.00427246 32.8304 1.36852 32.4853 3.18323C30.9822 2.61694 29.3654 2.72848 29.0158 3.29477C28.5527 3.9769 28.6707 4.77056 29.2474 5.68005ZM27.2812 6.36218C27.7443 6.02327 28.5527 5.90744 29.4791 5.79588C29.8242 6.478 30.519 7.0443 31.2137 7.49908C31.5589 7.6106 31.9085 7.83799 32.2537 7.95381C31.7905 7.95381 31.2137 7.95381 30.7506 7.84224C28.4391 7.61491 26.7044 7.04861 27.2812 6.36648V6.36218ZM36.0683 0.459022C37.5714 0.459022 38.7293 1.82327 38.8429 3.52215C38.7293 3.63369 38.4977 3.74952 38.3798 3.86106C38.2661 3.97261 38.0346 3.97261 37.9166 4.08844V4.77056C38.1481 4.54319 38.4934 4.31581 38.9565 4.08844C38.8429 6.01896 37.685 7.60629 36.0683 7.60629C34.5652 7.60629 33.2936 6.01896 33.2936 4.08844C33.7568 4.31581 34.102 4.54319 34.3336 4.77056L34.22 4.08844C34.1064 3.9769 33.9884 3.9769 33.8748 3.86106C33.7611 3.74952 33.5296 3.63369 33.298 3.52215C33.5296 1.81898 34.6875 0.459022 36.0726 0.459022H36.0683Z" fill="#1C1A1A"/>
</g>
</g>
<defs>
<clipPath id="clip0_989_1420">
<rect width="77" height="21" fill="white"/>
</clipPath>
</defs>
</svg>
