<svg width="26" height="21" viewBox="0 0 26 21" fill="none" xmlns="http://www.w3.org/2000/svg">
<g clip-path="url(#clip0_989_1380)">
<path d="M4.71243 20.954V19.5603C4.71243 19.0272 4.40018 18.6781 3.86415 18.6781C3.59614 18.6781 3.30471 18.7701 3.10435 19.0732C2.94822 18.8189 2.72444 18.6781 2.38877 18.6781C2.16499 18.6781 1.94121 18.7485 1.76427 19.0029V18.7241H1.2959V20.954H1.76427V19.7227C1.76427 19.3276 1.96463 19.1409 2.27688 19.1409C2.58913 19.1409 2.74526 19.3493 2.74526 19.7227V20.954H3.21363V19.7227C3.21363 19.3276 3.43741 19.1409 3.72624 19.1409C4.03849 19.1409 4.19462 19.3493 4.19462 19.7227V20.954H4.71243ZM11.66 18.7241H10.9002V18.0503H10.4318V18.7241H10.0077V19.1652H10.4318V20.1882C10.4318 20.6997 10.6322 21 11.1682 21C11.3686 21 11.5923 20.9297 11.7485 20.8377L11.6132 20.4182C11.4778 20.5102 11.3217 20.5346 11.2098 20.5346C10.9861 20.5346 10.8976 20.3939 10.8976 20.1638V19.1652H11.6574V18.7241H11.66ZM15.636 18.6754C15.368 18.6754 15.1884 18.8161 15.0765 19.0002V18.7214H14.6081V20.9513H15.0765V19.6957C15.0765 19.3249 15.2326 19.1138 15.5241 19.1138C15.6126 19.1138 15.7244 19.1382 15.8155 19.1598L15.9508 18.6944C15.8571 18.6754 15.7244 18.6754 15.636 18.6754ZM9.62776 18.9082C9.40399 18.7458 9.09174 18.6754 8.75607 18.6754C8.22004 18.6754 7.86355 18.9542 7.86355 19.3953C7.86355 19.766 8.13157 19.9771 8.59994 20.0448L8.82372 20.0691C9.06832 20.1151 9.20363 20.1855 9.20363 20.3018C9.20363 20.4642 9.02408 20.5806 8.71183 20.5806C8.39958 20.5806 8.15238 20.4642 7.99626 20.3478L7.77248 20.7186C8.01708 20.9053 8.35274 20.9973 8.68841 20.9973C9.31291 20.9973 9.672 20.6942 9.672 20.2775C9.672 19.8824 9.38057 19.674 8.93561 19.6036L8.71183 19.5793C8.51147 19.5549 8.35535 19.5089 8.35535 19.3709C8.35535 19.2085 8.51147 19.1165 8.75867 19.1165C9.02668 19.1165 9.2947 19.2329 9.43001 19.3033L9.62776 18.9082ZM22.0891 18.6754C21.8211 18.6754 21.6416 18.8161 21.5297 19.0002V18.7214H21.0613V20.9513H21.5297V19.6957C21.5297 19.3249 21.6858 19.1138 21.9772 19.1138C22.0657 19.1138 22.1776 19.1382 22.2687 19.1598L22.404 18.6998C22.3129 18.6754 22.1802 18.6754 22.0891 18.6754ZM16.1043 19.8391C16.1043 20.5129 16.5519 21 17.2441 21C17.5563 21 17.7801 20.9297 18.0039 20.7457L17.7801 20.3506C17.6005 20.4913 17.4236 20.5589 17.2206 20.5589C16.8407 20.5589 16.5727 20.2802 16.5727 19.8391C16.5727 19.4196 16.8407 19.1409 17.2206 19.1192C17.421 19.1192 17.6005 19.1896 17.7801 19.3276L18.0039 18.9325C17.7801 18.7458 17.5563 18.6781 17.2441 18.6781C16.5519 18.6754 16.1043 19.1652 16.1043 19.8391ZM20.4368 19.8391V18.7241H19.9684V19.0029C19.8123 18.7945 19.5885 18.6781 19.2971 18.6781C18.6934 18.6781 18.225 19.1652 18.225 19.8391C18.225 20.5129 18.6934 21 19.2971 21C19.6094 21 19.8331 20.8837 19.9684 20.6753V20.954H20.4368V19.8391ZM18.7168 19.8391C18.7168 19.444 18.9614 19.1192 19.3648 19.1192C19.7447 19.1192 20.0127 19.4223 20.0127 19.8391C20.0127 20.2342 19.7447 20.5589 19.3648 20.5589C18.964 20.5346 18.7168 20.2315 18.7168 19.8391ZM13.112 18.6754C12.4875 18.6754 12.0399 19.1409 12.0399 19.8364C12.0399 20.5346 12.4875 20.9973 13.1354 20.9973C13.4476 20.9973 13.7599 20.9053 14.0071 20.6942L13.7833 20.3451C13.6037 20.4859 13.38 20.5779 13.1588 20.5779C12.8674 20.5779 12.5785 20.4372 12.5109 20.0448H14.0955C14.0955 19.9744 14.0955 19.9284 14.0955 19.858C14.1164 19.1409 13.713 18.6754 13.112 18.6754ZM13.112 19.0949C13.4034 19.0949 13.6037 19.2816 13.648 19.628H12.5317C12.5759 19.3276 12.7763 19.0949 13.112 19.0949ZM24.7485 19.8391V17.8419H24.2801V19.0029C24.124 18.7945 23.9002 18.6781 23.6087 18.6781C23.0051 18.6781 22.5367 19.1652 22.5367 19.8391C22.5367 20.5129 23.0051 21 23.6087 21C23.921 21 24.1448 20.8837 24.2801 20.6753V20.954H24.7485V19.8391ZM23.0285 19.8391C23.0285 19.444 23.2731 19.1192 23.6764 19.1192C24.0563 19.1192 24.3243 19.4223 24.3243 19.8391C24.3243 20.2342 24.0563 20.5589 23.6764 20.5589C23.2731 20.5346 23.0285 20.2315 23.0285 19.8391ZM7.34834 19.8391V18.7241H6.87997V19.0029C6.72384 18.7945 6.50006 18.6781 6.20863 18.6781C5.60495 18.6781 5.13657 19.1652 5.13657 19.8391C5.13657 20.5129 5.60495 21 6.20863 21C6.52088 21 6.74466 20.8837 6.87997 20.6753V20.954H7.34834V19.8391ZM5.60755 19.8391C5.60755 19.444 5.85214 19.1192 6.25547 19.1192C6.63537 19.1192 6.90338 19.4223 6.90338 19.8391C6.90338 20.2342 6.63537 20.5589 6.25547 20.5589C5.85214 20.5346 5.60755 20.2315 5.60755 19.8391Z" fill="#1C1A1A"/>
<path d="M16.5077 1.78882H9.47168V14.9355H16.5077V1.78882Z" fill="#3D3B3B"/>
<path d="M9.93995 8.36211C9.93995 5.69111 11.1473 3.32049 13 1.78879C11.6365 0.67384 9.91653 0 8.04043 0C3.59608 0 0 3.73995 0 8.36211C0 12.9843 3.59608 16.7242 8.04043 16.7242C9.91653 16.7242 11.6365 16.0504 13 14.9354C11.1447 13.4254 9.93995 11.0331 9.93995 8.36211Z" fill="#1C1A1A"/>
<path d="M26 8.36211C26 12.9843 22.4039 16.7242 17.9596 16.7242C16.0835 16.7242 14.3635 16.0504 13 14.9354C14.8761 13.401 16.06 11.0331 16.06 8.36211C16.06 5.69111 14.8527 3.32049 13 1.78879C14.3609 0.67384 16.0809 0 17.957 0C22.4039 0 26 3.7643 26 8.36211Z" fill="#7B7A7A"/>
</g>
<defs>
<clipPath id="clip0_989_1380">
<rect width="26" height="21" fill="white"/>
</clipPath>
</defs>
</svg>
