<svg width="58" height="21" viewBox="0 0 58 21" fill="none" xmlns="http://www.w3.org/2000/svg">
<path fill-rule="evenodd" clip-rule="evenodd" d="M54.8244 8.22277C54.8244 7.59025 55.3206 7.05893 55.9159 7.05893C56.5361 7.05893 57.0075 7.59025 57.0075 8.22277C57.0075 8.85529 56.5361 9.38661 55.9159 9.38661C55.3206 9.41191 54.8244 8.88059 54.8244 8.22277ZM55.9159 9.1336C56.3873 9.1336 56.7346 8.72879 56.7346 8.24807C56.7346 7.76736 56.3625 7.36254 55.9159 7.36254C55.4446 7.36254 55.0973 7.76736 55.0973 8.24807C55.0973 8.72879 55.4694 9.1336 55.9159 9.1336ZM55.7671 8.75409H55.5438V7.71675H55.9655C56.04 7.71675 56.1392 7.71675 56.2136 7.76736C56.288 7.81796 56.3377 7.91916 56.3377 8.02036C56.3377 8.14687 56.2632 8.24807 56.164 8.27337L56.3377 8.72879H56.0896L55.9407 8.32397H55.7671V8.75409ZM55.7671 8.17217H55.8911C55.9407 8.17217 55.9904 8.17217 56.0152 8.14687C56.04 8.12157 56.0648 8.07097 56.0648 8.02036C56.0648 7.99506 56.04 7.94446 56.0152 7.91916C55.9904 7.89386 55.9159 7.89386 55.8911 7.89386H55.7671C55.7919 7.91916 55.7671 8.17217 55.7671 8.17217ZM39.2205 0.455414L38.9228 2.45418C38.2778 2.09997 37.8064 1.97346 37.2855 1.97346C35.9211 1.97346 34.9784 3.39031 34.9784 5.38908C34.9784 6.78062 35.6234 7.61555 36.6901 7.61555C37.1366 7.61555 37.6328 7.46375 38.253 7.13484L37.9305 9.23481C37.2607 9.43721 36.8141 9.51311 36.318 9.51311C34.3582 9.51311 33.1178 7.99506 33.1178 5.56618C33.1178 2.30238 34.8047 0 37.2359 0C37.5584 0 37.8312 0.0252993 38.0545 0.101202L38.8236 0.303609C38.9972 0.379512 39.0468 0.379511 39.2205 0.455414ZM33.1426 1.82166C33.093 1.79636 33.0186 1.79636 32.969 1.79636C32.3736 1.79636 32.0263 2.12527 31.4557 3.0108L31.6294 1.87226H29.9673L28.8509 9.31071H30.6867C31.3565 4.75656 31.5053 3.97223 32.3984 3.97223H32.5224C32.6961 3.0867 32.8946 2.42888 33.217 1.82166H33.1426ZM22.2273 9.2095C21.7312 9.38661 21.3342 9.46251 20.9125 9.46251C19.9946 9.46251 19.4737 8.88059 19.4737 7.81796C19.4737 7.61555 19.4985 7.38784 19.5233 7.13484L19.6473 6.40111L19.7218 5.81919L20.5156 0.733723H22.3265L22.1033 1.82166H23.046L22.7731 3.61802H21.88L21.3839 6.78062C21.359 6.90713 21.359 7.00833 21.359 7.08423C21.359 7.46375 21.5575 7.64085 21.9792 7.64085C22.2025 7.64085 22.3513 7.61555 22.4754 7.56495L22.2273 9.2095ZM15.0083 4.22524C15.0083 5.16137 15.4301 5.81919 16.3975 6.29991C17.117 6.67942 17.2658 6.78062 17.2658 7.13484C17.2658 7.59025 16.9433 7.81796 16.2239 7.81796C15.6781 7.81796 15.182 7.74206 14.5866 7.51435L14.3385 9.23481L14.4129 9.26011L14.7354 9.33601C14.8595 9.36131 15.0083 9.38661 15.2068 9.41191C15.6285 9.43721 15.9758 9.48781 16.2239 9.48781C18.1341 9.48781 19.0271 8.70349 19.0271 7.00833C19.0271 5.9963 18.655 5.38908 17.7372 4.93366C16.9681 4.55415 16.8937 4.47825 16.8937 4.12404C16.8937 3.71922 17.1914 3.51681 17.7868 3.51681C18.1589 3.51681 18.6302 3.56742 19.1016 3.64332L19.3744 1.92286C18.8535 1.82166 18.3077 1.77106 17.762 1.77106C15.7029 1.72046 15.0083 2.83369 15.0083 4.22524ZM53.7825 9.31071H52.046L52.1204 8.57698C51.6242 9.1589 51.1033 9.41191 50.4335 9.41191C49.0939 9.41191 48.2256 8.17217 48.2256 6.32521C48.2256 3.84573 49.59 1.74576 51.2025 1.74576C51.9219 1.74576 52.4429 2.07467 52.9638 2.75779L53.3608 0.151805H55.1717L53.7825 9.31071ZM51.0785 7.56495C51.9467 7.56495 52.5421 6.52762 52.5421 5.06017C52.5421 4.12404 52.1948 3.59272 51.5746 3.59272C50.756 3.59272 50.1606 4.63005 50.1606 6.0975C50.1358 7.05893 50.4583 7.56495 51.0785 7.56495ZM28.0075 9.1589C27.3873 9.36131 26.7671 9.46251 26.1221 9.46251C24.0879 9.46251 23.0212 8.32397 23.0212 6.1228C23.0212 3.56742 24.3856 1.69516 26.2213 1.69516C27.7346 1.69516 28.6773 2.75779 28.6773 4.40234C28.6773 4.93366 28.6028 5.49028 28.454 6.24931H24.8073C24.7825 6.37581 24.7825 6.42641 24.7825 6.47701C24.7825 7.36254 25.3283 7.79266 26.395 7.79266C27.04 7.79266 27.6354 7.64085 28.3052 7.31194C28.2803 7.31194 28.0075 9.1589 28.0075 9.1589ZM26.9904 4.70596C27.0152 4.55415 27.0152 4.42765 27.0152 4.32644C27.0152 3.71922 26.6927 3.36501 26.1469 3.36501C25.5763 3.36501 25.1546 3.84573 24.9809 4.70596H26.9904ZM7.66529 9.31071H5.85434L6.89626 2.27708L4.53955 9.31071H3.29917L3.15032 2.32768L2.03399 9.31071H0.322266L1.78591 0.151805H4.41551L4.48993 5.81919L6.25127 0.151805H9.10413L7.66529 9.31071ZM12.3787 5.9963C12.1803 5.971 12.1058 5.971 11.957 5.971C10.9151 5.971 10.3941 6.35051 10.3941 7.10953C10.3941 7.56495 10.667 7.86856 11.0639 7.86856C11.8082 7.84326 12.3539 7.08423 12.3787 5.9963ZM13.7183 9.31071H12.2051L12.2299 8.52638C11.7585 9.1589 11.1632 9.41191 10.3197 9.41191C9.3274 9.41191 8.65759 8.57698 8.65759 7.38784C8.65759 5.56618 9.84836 4.52885 11.8578 4.52885C12.081 4.52885 12.3291 4.55415 12.602 4.57945C12.6516 4.32644 12.6764 4.22524 12.6764 4.09873C12.6764 3.61802 12.3539 3.41561 11.5105 3.41561C10.9895 3.41561 10.3941 3.49151 9.9972 3.64332L9.72432 3.71922L9.55067 3.76982L9.79874 2.09997C10.7166 1.82166 11.312 1.69516 11.9818 1.69516C13.5447 1.69516 14.3881 2.45418 14.3881 3.87103C14.3881 4.25054 14.3633 4.50355 14.2393 5.36378L13.8672 8.02036L13.7928 8.50108L13.7431 8.88059L13.7183 9.1589C13.7431 9.1083 13.7183 9.31071 13.7183 9.31071ZM42.371 5.9963C42.1974 5.971 42.0981 5.971 41.9493 5.971C40.9074 5.971 40.3864 6.35051 40.3864 7.10953C40.3864 7.56495 40.6593 7.86856 41.0562 7.86856C41.8005 7.84326 42.3462 7.08423 42.371 5.9963ZM43.6858 9.31071H42.1726L42.1974 8.52638C41.726 9.1589 41.1306 9.41191 40.2872 9.41191C39.2949 9.41191 38.6251 8.57698 38.6251 7.38784C38.6251 5.56618 39.8158 4.52885 41.8253 4.52885C42.0237 4.52885 42.2966 4.55415 42.5695 4.57945C42.6191 4.32644 42.6439 4.22524 42.6439 4.09873C42.6439 3.61802 42.3214 3.41561 41.478 3.41561C40.957 3.41561 40.3616 3.49151 39.9647 3.64332L39.6918 3.71922L39.5182 3.76982L39.7662 2.09997C40.6841 1.82166 41.2795 1.69516 41.9493 1.69516C43.5122 1.69516 44.3556 2.45418 44.3556 3.87103C44.3556 4.25054 44.3308 4.50355 44.2068 5.36378L43.8347 7.99506L43.7851 8.47578L43.7354 8.85529L43.7106 9.1083L43.6858 9.31071ZM48.7962 1.82166C48.7466 1.79636 48.6721 1.79636 48.6225 1.79636C48.0271 1.79636 47.6798 2.12527 47.1093 3.0108L47.2829 1.87226H45.6208L44.5045 9.31071H46.3402C47.01 4.75656 47.1589 3.97223 48.0519 3.97223H48.176C48.3 3.21321 48.5481 2.50478 48.8706 1.82166H48.7962Z" fill="#070606"/>
<path fill-rule="evenodd" clip-rule="evenodd" d="M41.1309 16.5217C41.1309 18.2169 40.6099 19.2036 39.8161 19.2036C39.2207 19.2289 38.8734 18.5458 38.8734 17.5591C38.8734 16.3699 39.3944 15.029 40.2378 15.029C40.9076 15.029 41.1309 15.7627 41.1309 16.5217ZM42.9418 16.547C42.9418 14.6748 42.0239 13.2073 40.337 13.2073C38.3772 13.2073 37.0873 14.9784 37.0873 17.5844C37.0873 19.4566 37.8563 21 39.692 21C41.5526 21 42.9418 19.659 42.9418 16.547ZM37.6578 11.917L37.3849 13.9157C36.7648 13.5615 36.343 13.435 35.8717 13.435C34.6065 13.435 33.7134 14.8519 33.7134 16.8506C33.7134 18.2422 34.3088 19.0771 35.3011 19.0771C35.7228 19.0771 36.1942 18.9253 36.7648 18.5964L36.4671 20.6964C35.8469 20.8988 35.4251 20.9747 34.9538 20.9747C33.118 20.9747 31.9521 19.4566 31.9521 17.0277C31.9521 13.7639 33.5398 11.4616 35.7973 11.4616C36.095 11.4616 36.343 11.4869 36.5663 11.5628L37.2609 11.7652C37.4594 11.8158 37.509 11.8411 37.6578 11.917ZM26.3704 13.2579C26.3208 13.2326 26.2464 13.2326 26.1967 13.2326C25.6262 13.2326 25.3285 13.5615 24.7827 14.4471L24.9564 13.3085H23.4183L22.3764 20.747H24.0881C24.7083 16.1928 24.8571 15.4085 25.6758 15.4085C25.7254 15.4085 25.7254 15.4085 25.7998 15.4338C25.9487 14.5483 26.1719 13.8904 26.4448 13.2832L26.3704 13.2579ZM48.6476 20.6964H47.0351L47.1095 19.9626C46.6381 20.5446 46.142 20.7976 45.5218 20.7976C44.2814 20.7976 43.4628 19.5578 43.4628 17.7109C43.4628 15.2314 44.728 13.1314 46.2412 13.1314C46.911 13.1314 47.4072 13.4603 47.8785 14.1687L48.2506 11.5628H49.9376L48.6476 20.6964ZM46.1172 18.9506C46.9358 18.9506 47.4816 17.9133 47.4816 16.4458C47.4816 15.5097 47.1591 15.0037 46.5637 15.0037C45.7947 15.0037 45.2489 16.041 45.2489 17.5085C45.2489 18.4446 45.5466 18.9506 46.1172 18.9506ZM10.3695 20.6711C9.79897 20.8735 9.20359 20.9747 8.60821 20.9747C6.69803 20.9747 5.70573 19.8361 5.70573 17.635C5.70573 15.0796 6.97092 13.2073 8.68264 13.2073C10.0967 13.2073 10.9897 14.2446 10.9897 15.9145C10.9897 16.4458 10.9153 17.0024 10.7665 17.7615H7.39264C7.36784 17.888 7.36784 17.9386 7.36784 17.9892C7.36784 18.8494 7.88879 19.2795 8.88109 19.2795C9.50128 19.2795 10.047 19.1277 10.6424 18.7988L10.3695 20.6711ZM9.40205 16.2434C9.40205 16.0916 9.42686 15.9651 9.42686 15.8639C9.42686 15.2567 9.12917 14.9025 8.60821 14.9025C8.06245 14.9025 7.69033 15.3832 7.51668 16.2434H9.40205ZM30.6621 20.6711C30.0915 20.8735 29.4962 20.9747 28.9008 20.9747C26.9906 20.9747 25.9983 19.8361 25.9983 17.635C25.9983 15.0796 27.2635 13.2073 28.9752 13.2073C30.3892 13.2073 31.2823 14.2446 31.2823 15.9145C31.2823 16.4458 31.2079 17.0024 31.059 17.7615H27.6604C27.6356 17.888 27.6356 17.9386 27.6356 17.9892C27.6356 18.8494 28.1565 19.2795 29.1488 19.2795C29.769 19.2795 30.3148 19.1277 30.9102 18.7988L30.6621 20.6711ZM29.7194 16.2434C29.7442 16.0916 29.7442 15.9651 29.7442 15.8639C29.7442 15.2567 29.4465 14.9025 28.9256 14.9025C28.3798 14.9025 28.0077 15.3832 27.834 16.2434H29.7194ZM54.4773 20.6711C53.9068 20.8735 53.3114 20.9747 52.716 20.9747C50.8058 20.9747 49.8135 19.8361 49.8135 17.635C49.8135 15.0796 51.0787 13.2073 52.8152 13.2073C54.2293 13.2073 55.1223 14.2446 55.1223 15.9145C55.1223 16.4458 55.0479 17.0024 54.8991 17.7615H51.5004C51.4756 17.888 51.4756 17.9386 51.4756 17.9892C51.4756 18.8494 51.9966 19.2795 52.9889 19.2795C53.6091 19.2795 54.1548 19.1277 54.7502 18.7988L54.4773 20.6711ZM53.5098 16.2434C53.5098 16.0916 53.5346 15.9651 53.5346 15.8639C53.5346 15.2567 53.2369 14.9025 52.716 14.9025C52.1702 14.9025 51.7981 15.3832 51.6245 16.2434H53.5098ZM5.30881 13.6121C4.98631 13.3844 4.51497 13.182 3.89478 13.182C3.20017 13.182 2.65441 13.3338 2.65441 14.0675C2.65441 15.3832 5.15997 14.9025 5.15997 17.7362C5.15997 20.3168 3.49786 21 2.00941 21C1.33961 21 0.570573 20.7723 0 20.5193L0.421728 18.6217C0.769034 18.9506 1.43884 19.153 2.03422 19.153C2.57998 19.153 3.39863 19.0012 3.39863 18.0398C3.39863 16.547 0.893072 17.1036 0.893072 14.4724C0.893072 12.0688 2.35671 11.3604 3.79555 11.3604C4.58939 11.3604 5.35843 11.4869 5.78015 11.7905L5.30881 13.6121ZM15.3559 20.6711C15.0086 20.8482 14.5372 20.9494 13.8426 20.9494C12.3541 20.9494 11.4363 19.4313 11.4363 17.5844C11.4363 15.1555 12.7759 13.2326 14.7357 13.2326C15.1574 13.2326 15.8272 13.4097 16.3482 13.7133L15.976 15.4844C15.6039 15.2314 15.2318 15.0796 14.8349 15.0796C13.917 15.0796 13.272 15.9398 13.272 17.4579C13.272 18.3434 13.7434 19.0518 14.4876 19.0518C14.9341 19.0518 15.2566 18.9506 15.6287 18.7229L15.3559 20.6711ZM21.7562 18.7988C21.657 19.4313 21.6074 20.0891 21.5329 20.7217H19.8956L20.0197 19.5325H19.9949C19.4739 20.3421 18.953 20.8988 18.0103 20.8988C16.9932 20.8988 16.4226 19.7855 16.4226 18.3434C16.4226 17.8374 16.4474 17.5591 16.5466 16.8L17.018 13.3591H18.8537L18.3576 16.8253C18.308 17.2048 18.2335 17.5591 18.2335 17.9639C18.2335 18.394 18.432 18.8494 18.9281 18.7988C19.6724 18.7988 20.1189 17.8627 20.2429 16.7747L20.7639 13.3591H22.5252L21.7562 18.7988ZM56.1642 20.6205H55.8914V19.406H55.4944V19.1277H56.5612V19.406H56.1642V20.6205ZM58 20.6205H57.7271V19.3807L57.479 20.6205H57.2062L56.9581 19.3807V20.6205H56.6852V19.1277H57.1069L57.3302 20.3168H57.355L57.5783 19.1277H57.9752C58 19.1277 58 20.6205 58 20.6205Z" fill="#1C1A1A"/>
</svg>
