<svg width="52" height="21" viewBox="0 0 52 21" fill="none" xmlns="http://www.w3.org/2000/svg">
<g clip-path="url(#clip0_989_1433)">
<path d="M9.50615 2.70742C8.89678 3.41675 7.92178 3.97621 6.94678 3.89629C6.8249 2.9372 7.30225 1.91817 7.86084 1.28877C8.47021 0.559467 9.53662 0.0399619 10.3999 0C10.5015 0.999049 10.1054 1.97812 9.50615 2.70742ZM10.3897 4.08611C8.97803 4.00619 7.76943 4.87536 7.09912 4.87536C6.41865 4.87536 5.39287 4.12607 4.27568 4.14605C2.82334 4.16603 1.47256 4.97526 0.731152 6.26403C-0.792285 8.84158 0.335059 12.6579 1.80771 14.7559C2.52881 15.795 3.39209 16.9339 4.52959 16.8939C5.60615 16.854 6.03271 16.2046 7.33271 16.2046C8.64287 16.2046 9.01865 16.8939 10.1562 16.8739C11.3343 16.8539 12.0757 15.8349 12.7968 14.7959C13.6194 13.617 13.9546 12.4681 13.9749 12.4082C13.9546 12.3882 11.6999 11.539 11.6796 8.98145C11.6593 6.84348 13.4569 5.82445 13.5382 5.76451C12.5226 4.28592 10.9382 4.12607 10.3897 4.08611ZM18.5452 1.18887V16.764H21.003V11.4391H24.4054C27.5132 11.4391 29.6968 9.3411 29.6968 6.304C29.6968 3.26689 27.5538 1.18887 24.4866 1.18887H18.5452ZM21.003 3.22693H23.8366C25.9694 3.22693 27.1882 4.34586 27.1882 6.31399C27.1882 8.28211 25.9694 9.41104 23.8265 9.41104H21.003V3.22693ZM34.1858 16.8839C35.7296 16.8839 37.1616 16.1147 37.8116 14.8958H37.8624V16.764H40.1374V9.01142C40.1374 6.76356 38.3093 5.31494 35.496 5.31494C32.8858 5.31494 30.9562 6.78354 30.8851 8.80162H33.0991C33.2819 7.84253 34.1858 7.21313 35.4249 7.21313C36.928 7.21313 37.771 7.90247 37.771 9.17127V10.0304L34.7038 10.2103C31.8499 10.3801 30.3062 11.529 30.3062 13.5271C30.3062 15.5452 31.9007 16.8839 34.1858 16.8839ZM34.846 15.0357C33.5358 15.0357 32.703 14.4163 32.703 13.4672C32.703 12.4881 33.5054 11.9186 35.039 11.8287L37.771 11.6589V12.5381C37.771 13.9967 36.5116 15.0357 34.846 15.0357ZM43.1741 21C45.571 21 46.6983 20.1009 47.6835 17.3735L51.9999 5.4648H49.5015L46.6069 14.666H46.5562L43.6616 5.4648H41.0921L45.2562 16.804L45.0327 17.4933C44.6569 18.6622 44.0476 19.1118 42.9608 19.1118C42.7679 19.1118 42.3921 19.0918 42.2397 19.0718V20.9401C42.3819 20.98 42.9913 21 43.1741 21Z" fill="#1C1A1A"/>
</g>
<defs>
<clipPath id="clip0_989_1433">
<rect width="52" height="21" fill="white"/>
</clipPath>
</defs>
</svg>
