<svg width="66" height="16" viewBox="0 0 66 16" fill="none" xmlns="http://www.w3.org/2000/svg">
<path d="M66 0H33.9385V16H66V0Z" fill="#1C1A1A"/>
<path d="M40.0884 7.02919C40.0884 6.79091 40.1467 6.58955 40.265 6.4251C40.3832 6.26066 40.5444 6.1348 40.7483 6.0509C40.9523 5.967 41.182 5.92505 41.4391 5.92505C41.7253 5.92505 41.9533 5.9519 42.1247 6.00727C42.2944 6.06265 42.4264 6.11635 42.5172 6.1734L42.5635 6.79762H42.5481C42.4641 6.72882 42.3595 6.66674 42.2378 6.61472C42.1144 6.5627 41.9842 6.51907 41.8453 6.48887C41.7065 6.45698 41.5711 6.44188 41.4357 6.44188C41.2231 6.44188 41.0517 6.47544 40.9197 6.54256C40.7877 6.60969 40.7226 6.72883 40.7226 6.89663C40.7226 7.02584 40.7535 7.12652 40.8169 7.19867C40.8786 7.27083 40.9729 7.33124 41.098 7.37654C41.2231 7.42185 41.3774 7.47051 41.5625 7.52086C41.7373 7.56784 41.9019 7.61482 42.0562 7.66181C42.2087 7.71047 42.3441 7.77256 42.459 7.84975C42.5738 7.92694 42.6629 8.0293 42.7298 8.15683C42.7949 8.28436 42.8292 8.44713 42.8292 8.64513C42.8292 9.02772 42.7024 9.32138 42.447 9.52442C42.1916 9.72746 41.8368 9.82814 41.3774 9.82814C41.1477 9.82814 40.918 9.79794 40.6849 9.73585C40.4518 9.67377 40.2632 9.59322 40.1193 9.49086L40.0781 8.8616H40.0936C40.2615 9.00087 40.4638 9.10995 40.7003 9.18881C40.9369 9.26768 41.1734 9.30795 41.4134 9.30795C41.9225 9.30795 42.1761 9.1368 42.1761 8.7928C42.1761 8.67031 42.147 8.5713 42.0904 8.49579C42.0339 8.42028 41.9396 8.35651 41.8128 8.30449C41.6842 8.25415 41.5179 8.20213 41.3123 8.14844C41.1511 8.10649 40.9969 8.0595 40.8529 8.00916C40.7072 7.95882 40.5786 7.89505 40.4638 7.81619C40.3489 7.73732 40.2598 7.63496 40.193 7.50911C40.1278 7.38326 40.0936 7.22384 40.0936 7.02919H40.0884Z" fill="white"/>
<path d="M43.3301 9.75762V5.99548H45.8069V6.54084H44.0071V7.54598H45.4281V8.07121H44.0071V9.21394H45.8069V9.7593H43.3301V9.75762Z" fill="white"/>
<path d="M46.8329 7.8766C46.8329 8.16018 46.886 8.40853 46.9923 8.61828C47.0986 8.82972 47.2511 8.99248 47.4499 9.10827C47.6488 9.22405 47.8888 9.28111 48.1681 9.28111C48.4475 9.28111 48.6926 9.23915 48.8812 9.15525C49.0697 9.07135 49.2343 8.9606 49.3766 8.82636H49.392L49.3217 9.48415C49.1726 9.58315 48.9977 9.66537 48.7955 9.72914C48.5932 9.7929 48.3567 9.82646 48.0876 9.82646C47.7842 9.82646 47.5117 9.77612 47.2717 9.67544C47.03 9.57476 46.8243 9.43549 46.6546 9.25929C46.4849 9.0831 46.3547 8.87502 46.2655 8.63842C46.1764 8.40014 46.1318 8.14676 46.1318 7.8766C46.1318 7.60643 46.1764 7.34802 46.2655 7.11142C46.3547 6.87481 46.4849 6.66842 46.6546 6.49222C46.8243 6.31603 47.03 6.17675 47.2683 6.07607C47.5082 5.97539 47.7773 5.92505 48.0773 5.92505C48.3464 5.92505 48.5795 5.9519 48.7749 6.00727C48.9703 6.06265 49.1366 6.13984 49.2754 6.2422L49.3457 6.91509H49.3303C49.188 6.77917 49.0217 6.67177 48.8298 6.59123C48.6378 6.51068 48.4133 6.47041 48.1579 6.47041C47.8785 6.47041 47.6402 6.52746 47.4431 6.64324C47.246 6.75903 47.0951 6.9218 46.9906 7.13323C46.886 7.34466 46.8346 7.59133 46.8346 7.87492L46.8329 7.8766Z" fill="white"/>
<path d="M51.5315 9.2626C51.8795 9.2626 52.1315 9.18877 52.2892 9.04278C52.4469 8.89512 52.5274 8.64677 52.5274 8.2927V5.99548H53.0931V8.32626C53.0931 8.85484 52.9576 9.23576 52.6851 9.47236C52.4143 9.70896 52.0183 9.82642 51.499 9.82642C50.9796 9.82642 50.582 9.70896 50.2957 9.47571C50.0095 9.24079 49.8655 8.8582 49.8655 8.32794V5.99716H50.5425V8.27928C50.5425 8.63167 50.6197 8.88505 50.7722 9.03607C50.9248 9.18709 51.1767 9.26428 51.5281 9.26428L51.5315 9.2626Z" fill="white"/>
<path d="M53.7568 9.75763V5.99548H55.3801C55.632 5.99548 55.8514 6.04415 56.0348 6.14315C56.2182 6.24215 56.3588 6.37808 56.4565 6.55091C56.5542 6.72375 56.6039 6.92008 56.6039 7.13822C56.6039 7.39496 56.5319 7.61982 56.3862 7.81111C56.2405 8.00241 56.0434 8.12994 55.7949 8.19202L56.7804 9.75595H56.0023L55.1127 8.28096H54.4356V9.75595H53.7586L53.7568 9.75763ZM55.1984 6.52071H54.4339V7.78762H55.1984C55.4435 7.78762 55.6217 7.7356 55.7314 7.63156C55.8411 7.52752 55.896 7.36811 55.896 7.15332C55.896 6.93854 55.8411 6.77912 55.7314 6.67509C55.6217 6.57105 55.4435 6.51903 55.1984 6.51903V6.52071Z" fill="white"/>
<path d="M57.2852 9.75762V5.99548H59.7637V6.54084H57.9639V7.54598H59.3849V8.07121H57.9639V9.21394H59.7637V9.7593H57.2852V9.75762Z" fill="white"/>
<path d="M13.545 3.7531L10.3442 11.3876H8.2561L6.68145 5.29512C6.58529 4.92077 6.50286 4.7834 6.21266 4.6237C5.73701 4.36613 4.95397 4.12401 4.26367 3.97461L4.31004 3.7531H7.67054C8.09812 3.7531 8.48448 4.03815 8.58236 4.53098L9.41347 8.94926L11.4689 3.7531H13.5433H13.545ZM21.7256 8.89603C21.7342 6.88178 18.9403 6.77017 18.9592 5.86865C18.9661 5.59562 19.2254 5.3037 19.7972 5.22986C20.0805 5.1938 20.8601 5.16461 21.7445 5.57158L22.0913 3.95229C21.6157 3.78057 21.0044 3.61572 20.2437 3.61572C18.2912 3.61572 16.9175 4.65289 16.9072 6.13997C16.8952 7.23896 17.8877 7.85199 18.6364 8.21774C19.4074 8.59209 19.665 8.83249 19.6615 9.16562C19.6564 9.67734 19.0468 9.90401 18.4801 9.91259C17.4859 9.92805 16.9106 9.64471 16.4522 9.43007L16.0933 11.1043C16.5552 11.3155 17.4069 11.4993 18.2895 11.5096C20.3656 11.5096 21.7222 10.4844 21.729 8.89774M26.8857 11.3911H28.7128L27.1175 3.75653H25.433C25.0535 3.75653 24.7341 3.97633 24.5916 4.31633L21.6277 11.3911H23.7021L24.1142 10.2509H26.6487L26.8874 11.3911H26.8857ZM24.6808 8.68653L25.7214 5.81885L26.319 8.68653H24.6808ZM16.3714 3.75653L14.7384 11.3911H12.7637L14.3967 3.75653H16.3714Z" fill="#1C1A1A"/>
</svg>
