<svg width="1000" height="667" viewBox="0 0 1000 667" fill="none" xmlns="http://www.w3.org/2000/svg">
<mask id="mask0_1170_7343" style="mask-type:luminance" maskUnits="userSpaceOnUse" x="0" y="0" width="1000" height="667">
<path d="M0 0.000121117H1000V666.667H0V0.000121117Z" fill="white"/>
</mask>
<g mask="url(#mask0_1170_7343)">
<path d="M980.147 317.763C970.803 212.418 903.458 122.816 801.257 84.2417C774.387 74.0991 745.306 67.3071 715.529 67.2231C593.833 66.8778 440.205 133.664 363.694 142.9C287.182 152.134 208.673 73.8271 96.4926 169.047C-15.6874 264.267 -23.65 511.67 168.002 580.939C359.653 650.21 484.549 543.882 569.11 579.178C653.671 614.471 812.273 620.304 914.699 553.976C975.434 514.646 988.255 409.191 980.147 317.763Z" fill="#22FF01"/>
<mask id="mask1_1170_7343" style="mask-type:luminance" maskUnits="userSpaceOnUse" x="17" y="67" width="966" height="539">
<path d="M17.0505 67.2213H982.336V605.036H17.0505V67.2213Z" fill="white"/>
</mask>
<g mask="url(#mask1_1170_7343)">
<g opacity="0.800003">
<path d="M980.147 317.763C970.803 212.418 903.458 122.816 801.257 84.2417C774.387 74.0991 745.306 67.3071 715.529 67.2231C593.833 66.8778 440.205 133.664 363.694 142.9C287.182 152.134 208.673 73.8271 96.4926 169.047C-15.6874 264.267 -23.65 511.67 168.002 580.939C359.653 650.21 484.549 543.882 569.11 579.178C653.671 614.471 812.273 620.304 914.699 553.976C975.434 514.646 988.255 409.191 980.147 317.763Z" fill="white"/>
</g>
</g>
</g>
<path d="M891.366 606.453H929.877" stroke="#1C1A1A" stroke-width="1.33333" stroke-miterlimit="10"/>
<path d="M73.7639 606.453H883.467" stroke="#1C1A1A" stroke-width="1.33333" stroke-miterlimit="10"/>
<mask id="mask2_1170_7343" style="mask-type:luminance" maskUnits="userSpaceOnUse" x="0" y="0" width="1000" height="667">
<path d="M0 0.000121117H1000V666.667H0V0.000121117Z" fill="white"/>
</mask>
<g mask="url(#mask2_1170_7343)">
<path d="M82.133 540.297C84.385 541.28 89.8916 541.157 89.8956 541.157C89.953 541.155 88.7116 537.551 88.6076 537.332C87.3996 534.805 83.5783 530.631 80.469 531.051C78.229 531.353 76.9836 533.596 77.489 535.705C78.005 537.859 80.2156 539.459 82.133 540.297Z" fill="#1C1A1A"/>
<path d="M84.0334 556.248C86.3694 556.589 91.284 555.165 91.6747 555.049C92.4507 557.8 93.4707 560.56 94.656 563.297C95.332 564.862 96.0614 566.417 96.812 567.968C96.364 567.312 95.9587 566.726 95.8934 566.652C94.06 564.532 89.272 561.516 86.3854 562.742C84.304 563.626 83.6947 566.116 84.7387 568.017C85.8054 569.958 88.36 570.918 90.4307 571.22C92.532 571.526 96.7467 570.394 97.8574 570.081C98.152 570.673 98.44 571.268 98.736 571.857C100.16 574.692 101.592 577.513 102.912 580.325C103.379 581.314 103.8 582.306 104.227 583.298C103.828 582.716 103.487 582.226 103.427 582.158C101.593 580.04 96.8067 577.024 93.9187 578.25C91.8387 579.133 91.228 581.624 92.2734 583.525C93.34 585.465 95.8947 586.426 97.9654 586.726C99.9707 587.02 103.869 586.01 105.192 585.644C105.597 586.672 106.007 587.701 106.353 588.717C106.575 589.414 106.836 590.07 107.019 590.785C107.215 591.488 107.409 592.184 107.601 592.873C107.923 594.213 108.263 595.594 108.543 596.91C108.745 597.824 108.923 598.698 109.101 599.578C108.649 598.588 107.724 596.665 107.628 596.513C106.137 594.141 101.863 590.436 98.8214 591.21C96.6307 591.768 95.6507 594.137 96.396 596.174C97.156 598.254 99.5347 599.59 101.536 600.202C103.74 600.876 108.617 600.26 109.227 600.178C109.519 601.637 109.789 603.057 110.024 604.401C110.149 605.113 110.257 605.781 110.368 606.453H112.308C112.165 605.68 112.015 604.888 111.851 604.06C111.56 602.578 111.22 601.001 110.855 599.386C111.221 599.24 113.301 598.398 115.145 597.369C116.752 599.108 120.867 601.142 121.399 601.401C120.839 602.778 120.281 604.112 119.733 605.362C119.569 605.741 119.411 606.093 119.251 606.453H121.293C121.344 606.332 121.395 606.213 121.447 606.086C122.021 604.69 122.608 603.186 123.195 601.638C123.785 601.762 128.613 602.742 130.864 602.234C132.905 601.773 135.377 600.617 136.291 598.6C137.185 596.625 136.385 594.188 134.241 593.469C131.268 592.469 126.728 595.846 125.064 598.102C124.967 598.234 124.063 599.797 123.509 600.792C123.747 600.158 123.983 599.545 124.219 598.888C124.693 597.594 125.128 596.289 125.603 594.886C125.808 594.202 126.015 593.509 126.224 592.81C126.445 592.121 126.592 591.365 126.783 590.637C127.187 588.938 127.513 587.198 127.805 585.438C128.939 585.849 132.987 587.258 135.084 587.11C137.172 586.964 139.789 586.197 140.999 584.341C142.181 582.524 141.759 579.994 139.751 578.957C136.961 577.52 131.963 580.17 129.977 582.148C129.853 582.27 128.588 583.849 127.909 584.729C128.076 583.669 128.247 582.612 128.38 581.536C128.767 578.424 129.06 575.264 129.368 572.11C129.461 571.145 129.567 570.184 129.668 569.221C130.069 569.374 134.844 571.152 137.195 570.986C139.281 570.84 141.9 570.073 143.108 568.217C144.292 566.4 143.869 563.87 141.861 562.833C139.072 561.396 134.073 564.048 132.088 566.024C131.937 566.172 130.12 568.445 129.687 569.048C129.911 566.928 130.153 564.817 130.477 562.746C130.92 559.889 131.512 557.11 132.285 554.461C132.472 554.532 137.448 556.409 139.853 556.241C141.941 556.094 144.56 555.328 145.768 553.472C146.951 551.654 146.529 549.124 144.52 548.089C141.731 546.65 136.733 549.301 134.747 551.277C134.591 551.433 132.637 553.881 132.313 554.349C132.361 554.192 132.392 554.024 132.44 553.866C133.301 551.049 134.489 548.426 135.721 546.026C136.435 544.63 137.196 543.334 137.964 542.093C138.855 542.537 142.948 544.525 145.129 544.612C147.22 544.696 149.908 544.22 151.312 542.509C152.688 540.832 152.547 538.273 150.664 537.021C148.049 535.285 142.789 537.372 140.599 539.118C140.48 539.213 139.376 540.313 138.584 541.125C138.937 540.569 139.295 539.989 139.644 539.464C140.957 537.488 142.281 535.758 143.465 534.236C144.145 533.377 144.779 532.612 145.379 531.902C146.48 531.885 150.92 531.749 152.861 530.837C154.755 529.948 156.921 528.289 157.379 526.121C157.827 524 156.521 521.793 154.275 521.552C151.155 521.216 147.448 525.49 146.308 528.05C146.209 528.272 145.067 531.906 145.124 531.906C145.124 531.906 145.177 531.906 145.191 531.905C144.6 532.576 143.975 533.301 143.308 534.109C142.088 535.608 140.723 537.312 139.363 539.268C137.997 541.22 136.569 543.377 135.271 545.785C133.965 548.198 132.716 550.802 131.776 553.653C131.765 553.685 131.757 553.72 131.748 553.753C131.764 552.833 131.724 550.262 131.697 550.065C131.337 547.286 129.008 542.129 125.923 541.558C123.7 541.149 121.817 542.889 121.641 545.052C121.46 547.26 123.06 549.468 124.621 550.862C126.381 552.436 131.267 553.957 131.656 554.077C130.785 556.8 130.113 559.665 129.592 562.601C129.292 564.278 129.043 565.98 128.815 567.686C128.803 566.89 128.787 566.18 128.773 566.081C128.413 563.302 126.085 558.146 122.999 557.576C120.776 557.164 118.893 558.906 118.717 561.068C118.536 563.276 120.137 565.485 121.697 566.88C123.281 568.293 127.42 569.674 128.52 570.026C128.44 570.681 128.351 571.336 128.273 571.993C127.896 575.141 127.535 578.285 127.085 581.357C126.928 582.441 126.732 583.501 126.541 584.562C126.531 583.857 126.515 583.262 126.503 583.172C126.143 580.393 123.813 575.236 120.729 574.665C118.505 574.256 116.623 575.997 116.447 578.158C116.265 580.365 117.867 582.576 119.427 583.969C120.937 585.32 124.748 586.629 126.053 587.053C125.824 588.134 125.596 589.218 125.325 590.256C125.124 590.96 124.98 591.652 124.74 592.348C124.515 593.042 124.293 593.73 124.073 594.41C123.603 595.706 123.124 597.046 122.633 598.297C122.297 599.172 121.961 599.998 121.627 600.832C121.796 599.756 122.084 597.641 122.088 597.462C122.131 595.602 121.469 592.576 120.155 590.448C120.163 590.173 120.147 589.9 120.103 589.628C119.759 587.486 117.748 585.896 115.563 586.477C112.531 587.284 110.608 592.608 110.464 595.404C110.456 595.569 110.564 597.37 110.651 598.505C110.497 597.846 110.357 597.205 110.192 596.528C109.875 595.186 109.517 593.858 109.14 592.426C108.932 591.741 108.723 591.05 108.511 590.352C108.316 589.656 108.023 588.942 107.779 588.23C107.179 586.592 106.492 584.958 105.763 583.33C106.937 583.049 111.089 581.99 112.757 580.71C114.417 579.437 116.177 577.352 116.163 575.138C116.147 572.969 114.4 571.092 112.152 571.336C109.033 571.674 106.325 576.644 105.759 579.388C105.725 579.558 105.54 581.573 105.459 582.682C105.013 581.706 104.573 580.729 104.089 579.757C102.697 576.949 101.199 574.152 99.7147 571.353C99.26 570.496 98.8174 569.637 98.372 568.777C98.7907 568.681 103.755 567.53 105.621 566.097C107.283 564.824 109.043 562.74 109.028 560.525C109.012 558.356 107.264 556.478 105.017 556.722C101.897 557.061 99.1907 562.03 98.624 564.776C98.5827 564.982 98.32 567.881 98.2894 568.621C97.308 566.729 96.3454 564.836 95.4747 562.93C94.2667 560.304 93.228 557.66 92.412 555.022C92.6067 554.978 97.792 553.798 99.7054 552.33C101.367 551.057 103.127 548.973 103.111 546.758C103.096 544.59 101.348 542.714 99.1 542.957C95.9814 543.296 93.2747 548.265 92.708 551.009C92.664 551.224 92.384 554.344 92.3734 554.912C92.3254 554.756 92.2574 554.6 92.212 554.442C91.376 551.614 90.92 548.774 90.624 546.092C90.4494 544.533 90.3694 543.034 90.324 541.573C91.312 541.453 95.824 540.853 97.6907 539.721C99.4814 538.637 101.46 536.76 101.688 534.556C101.911 532.398 100.38 530.341 98.12 530.337C94.9814 530.332 91.7467 534.974 90.8814 537.638C90.8347 537.784 90.52 539.31 90.3067 540.425C90.2974 539.765 90.2734 539.085 90.276 538.453C90.2814 536.081 90.4307 533.908 90.5787 531.985C90.672 530.892 90.7787 529.906 90.888 528.985C91.796 528.36 95.424 525.798 96.54 523.968C97.6294 522.181 98.52 519.602 97.7067 517.542C96.9107 515.525 94.604 514.404 92.596 515.442C89.8094 516.884 89.076 522.494 89.536 525.257C89.5774 525.497 90.6294 529.16 90.6774 529.128C90.6774 529.128 90.7214 529.097 90.732 529.09C90.6094 529.974 90.488 530.925 90.3774 531.965C90.1854 533.889 89.988 536.064 89.932 538.445C89.8707 540.826 89.8694 543.414 90.116 546.14C90.3587 548.872 90.7534 551.733 91.5414 554.629C91.5494 554.662 91.5627 554.694 91.572 554.726C91.0787 553.952 89.6254 551.83 89.496 551.68C87.6627 549.56 82.876 546.545 79.988 547.772C77.9067 548.654 77.2974 551.145 78.3414 553.046C79.4094 554.988 81.9627 555.946 84.0334 556.248Z" fill="#1C1A1A"/>
<path d="M137.837 541.508C137.885 541.537 138.838 537.848 138.872 537.608C139.258 534.833 138.373 529.244 135.548 527.879C133.513 526.896 131.237 528.079 130.497 530.117C129.738 532.199 130.698 534.752 131.837 536.508C133.17 538.571 137.833 541.505 137.837 541.508Z" fill="#1C1A1A"/>
<path d="M814.258 550.302C816.169 551.137 820.842 551.032 820.846 551.032C820.895 551.03 819.841 547.972 819.753 547.786C818.729 545.641 815.485 542.098 812.845 542.454C810.945 542.712 809.887 544.614 810.315 546.404C810.754 548.233 812.629 549.59 814.258 550.302Z" fill="#1C1A1A"/>
<path d="M815.871 563.841C817.853 564.131 822.025 562.921 822.355 562.823C823.014 565.157 823.881 567.501 824.887 569.823C825.459 571.152 826.079 572.472 826.717 573.788C826.337 573.231 825.993 572.736 825.937 572.671C824.381 570.872 820.317 568.313 817.866 569.353C816.099 570.103 815.583 572.217 816.47 573.831C817.374 575.479 819.543 576.293 821.299 576.548C823.083 576.809 826.661 575.849 827.605 575.583C827.854 576.085 828.098 576.589 828.35 577.091C829.558 579.495 830.774 581.889 831.895 584.276C832.289 585.116 832.647 585.959 833.01 586.8C832.671 586.305 832.382 585.892 832.331 585.832C830.775 584.035 826.713 581.475 824.261 582.516C822.495 583.264 821.978 585.379 822.865 586.992C823.77 588.64 825.938 589.455 827.695 589.711C829.398 589.959 832.707 589.101 833.83 588.791C834.174 589.664 834.519 590.536 834.815 591.399C835.003 591.991 835.225 592.548 835.379 593.155C835.546 593.752 835.711 594.341 835.874 594.927C836.147 596.064 836.435 597.237 836.674 598.353C836.845 599.129 836.995 599.871 837.147 600.619C836.765 599.776 835.978 598.147 835.897 598.016C834.631 596.003 831.003 592.859 828.422 593.515C826.563 593.988 825.731 596 826.363 597.728C827.01 599.493 829.029 600.628 830.727 601.147C832.597 601.719 836.737 601.197 837.254 601.128C837.502 602.365 837.733 603.571 837.93 604.712C838.037 605.315 838.129 605.883 838.223 606.453H839.869C839.747 605.797 839.621 605.124 839.481 604.423C839.234 603.164 838.946 601.827 838.635 600.455C838.947 600.331 840.713 599.616 842.278 598.743C843.639 600.219 847.133 601.945 847.585 602.165C847.11 603.335 846.635 604.467 846.173 605.528C846.031 605.849 845.898 606.147 845.761 606.453H847.495C847.539 606.349 847.582 606.249 847.625 606.143C848.114 604.957 848.611 603.681 849.11 602.367C849.61 602.472 853.709 603.304 855.619 602.872C857.35 602.48 859.45 601.5 860.226 599.788C860.985 598.112 860.305 596.043 858.486 595.432C855.961 594.585 852.109 597.451 850.697 599.365C850.614 599.479 849.846 600.804 849.377 601.647C849.577 601.109 849.778 600.589 849.978 600.033C850.382 598.933 850.75 597.827 851.153 596.636C851.327 596.055 851.503 595.467 851.679 594.873C851.869 594.289 851.994 593.647 852.154 593.029C852.498 591.588 852.775 590.109 853.022 588.616C853.985 588.967 857.419 590.161 859.201 590.036C860.971 589.912 863.194 589.26 864.221 587.685C865.225 586.144 864.866 583.996 863.161 583.116C860.794 581.896 856.551 584.147 854.866 585.823C854.761 585.927 853.686 587.267 853.111 588.015C853.251 587.115 853.398 586.219 853.51 585.304C853.839 582.663 854.087 579.98 854.349 577.305C854.429 576.485 854.517 575.669 854.603 574.853C854.945 574.981 858.998 576.489 860.991 576.351C862.763 576.225 864.986 575.575 866.01 573.999C867.015 572.457 866.658 570.311 864.953 569.431C862.585 568.209 858.343 570.46 856.657 572.139C856.53 572.264 854.987 574.195 854.619 574.704C854.809 572.905 855.014 571.115 855.289 569.357C855.666 566.932 856.169 564.573 856.825 562.324C856.983 562.384 861.206 563.979 863.249 563.835C865.019 563.709 867.242 563.06 868.269 561.484C869.273 559.941 868.914 557.795 867.21 556.916C864.843 555.695 860.601 557.945 858.914 559.623C858.782 559.755 857.123 561.831 856.849 562.229C856.889 562.095 856.914 561.953 856.955 561.82C857.686 559.427 858.695 557.203 859.741 555.165C860.347 553.98 860.993 552.881 861.645 551.825C862.399 552.203 865.875 553.891 867.727 553.965C869.502 554.036 871.782 553.633 872.974 552.18C874.142 550.757 874.022 548.584 872.423 547.523C870.205 546.049 865.741 547.82 863.882 549.303C863.781 549.383 862.843 550.315 862.171 551.005C862.471 550.533 862.774 550.04 863.071 549.595C864.185 547.917 865.309 546.449 866.314 545.157C866.893 544.428 867.429 543.78 867.938 543.177C868.873 543.161 872.641 543.047 874.289 542.273C875.897 541.519 877.734 540.111 878.122 538.271C878.505 536.471 877.395 534.596 875.489 534.392C872.841 534.105 869.694 537.735 868.727 539.907C868.643 540.095 867.674 543.181 867.722 543.181C867.722 543.181 867.767 543.18 867.779 543.18C867.277 543.749 866.746 544.365 866.179 545.049C865.145 546.321 863.986 547.768 862.831 549.428C861.674 551.085 860.461 552.917 859.358 554.961C858.251 557.008 857.19 559.219 856.393 561.639C856.383 561.665 856.378 561.696 856.369 561.723C856.382 560.943 856.347 558.76 856.326 558.592C856.019 556.235 854.045 551.859 851.425 551.373C849.538 551.025 847.941 552.503 847.79 554.337C847.637 556.211 848.995 558.087 850.321 559.269C851.814 560.604 855.961 561.896 856.29 561.999C855.551 564.309 854.981 566.741 854.539 569.232C854.286 570.657 854.073 572.1 853.879 573.549C853.869 572.875 853.855 572.271 853.843 572.188C853.538 569.828 851.562 565.452 848.943 564.968C847.057 564.619 845.458 566.097 845.309 567.931C845.155 569.805 846.513 571.681 847.838 572.864C849.182 574.064 852.695 575.237 853.629 575.536C853.561 576.092 853.486 576.647 853.419 577.204C853.101 579.876 852.793 582.544 852.411 585.152C852.278 586.072 852.113 586.973 851.95 587.873C851.941 587.275 851.927 586.769 851.917 586.693C851.611 584.335 849.634 579.957 847.017 579.473C845.129 579.125 843.531 580.603 843.382 582.437C843.229 584.311 844.586 586.187 845.911 587.369C847.193 588.516 850.427 589.627 851.535 589.985C851.341 590.904 851.147 591.824 850.918 592.704C850.747 593.303 850.625 593.891 850.421 594.481C850.23 595.071 850.042 595.653 849.855 596.232C849.454 597.331 849.05 598.469 848.631 599.532C848.347 600.272 848.063 600.975 847.778 601.681C847.922 600.768 848.166 598.975 848.17 598.821C848.206 597.243 847.645 594.675 846.529 592.869C846.535 592.636 846.522 592.404 846.485 592.172C846.193 590.355 844.486 589.004 842.631 589.499C840.058 590.184 838.426 594.701 838.305 597.076C838.297 597.215 838.389 598.744 838.462 599.707C838.333 599.147 838.214 598.603 838.073 598.029C837.803 596.891 837.501 595.763 837.179 594.547C837.005 593.967 836.826 593.38 836.646 592.787C836.482 592.196 836.233 591.591 836.025 590.987C835.515 589.595 834.933 588.209 834.314 586.827C835.31 586.589 838.835 585.691 840.25 584.603C841.659 583.523 843.154 581.753 843.141 579.873C843.127 578.033 841.645 576.44 839.737 576.647C837.089 576.935 834.791 581.152 834.311 583.48C834.282 583.627 834.123 585.336 834.057 586.277C833.677 585.449 833.303 584.62 832.894 583.795C831.711 581.412 830.439 579.036 829.181 576.66C828.794 575.933 828.419 575.204 828.041 574.476C828.397 574.395 832.609 573.417 834.194 572.201C835.603 571.12 837.098 569.351 837.085 567.471C837.07 565.631 835.589 564.036 833.681 564.245C831.033 564.532 828.735 568.749 828.255 571.079C828.219 571.255 827.998 573.713 827.971 574.343C827.137 572.737 826.322 571.131 825.581 569.513C824.557 567.283 823.675 565.037 822.982 562.801C823.147 562.763 827.549 561.761 829.173 560.517C830.582 559.435 832.077 557.667 832.063 555.787C832.05 553.945 830.566 552.353 828.659 552.56C826.011 552.848 823.714 557.065 823.233 559.395C823.195 559.577 822.958 562.225 822.95 562.707C822.909 562.575 822.851 562.441 822.813 562.308C822.103 559.909 821.717 557.496 821.465 555.22C821.317 553.897 821.249 552.625 821.21 551.385C822.049 551.284 825.878 550.773 827.462 549.813C828.982 548.893 830.662 547.3 830.855 545.429C831.045 543.599 829.745 541.853 827.827 541.849C825.163 541.844 822.417 545.784 821.683 548.045C821.643 548.169 821.377 549.465 821.195 550.411C821.186 549.852 821.167 549.273 821.17 548.737C821.174 546.724 821.299 544.879 821.426 543.248C821.506 542.32 821.595 541.483 821.687 540.701C822.458 540.171 825.538 537.996 826.486 536.443C827.41 534.925 828.167 532.737 827.477 530.989C826.801 529.277 824.843 528.325 823.138 529.207C820.773 530.429 820.15 535.192 820.542 537.537C820.575 537.74 821.469 540.849 821.51 540.821C821.51 540.821 821.547 540.797 821.557 540.791C821.453 541.54 821.349 542.348 821.254 543.231C821.093 544.864 820.925 546.709 820.878 548.732C820.825 550.752 820.825 552.948 821.033 555.26C821.238 557.58 821.573 560.009 822.242 562.467C822.25 562.495 822.262 562.523 822.27 562.551C821.85 561.892 820.618 560.091 820.507 559.964C818.951 558.165 814.889 555.605 812.437 556.647C810.671 557.396 810.154 559.511 811.041 561.124C811.947 562.771 814.114 563.585 815.871 563.841Z" fill="#1C1A1A"/>
<path d="M861.537 551.33C861.578 551.356 862.388 548.223 862.416 548.02C862.742 545.666 861.993 540.92 859.594 539.763C857.868 538.928 855.936 539.932 855.306 541.662C854.664 543.428 855.478 545.595 856.445 547.086C857.577 548.838 861.534 551.328 861.537 551.33Z" fill="#1C1A1A"/>
<path d="M921.126 573.887C920.018 574.371 917.308 574.31 917.305 574.31C917.277 574.308 917.888 572.535 917.938 572.427C918.534 571.184 920.416 569.13 921.945 569.335C923.048 569.484 923.661 570.587 923.413 571.627C923.158 572.687 922.07 573.474 921.126 573.887Z" fill="#1C1A1A"/>
<path d="M920.192 581.74C919.042 581.906 916.622 581.206 916.43 581.149C916.048 582.502 915.546 583.862 914.962 585.209C914.629 585.98 914.272 586.745 913.9 587.508C914.121 587.185 914.321 586.897 914.353 586.861C915.256 585.817 917.612 584.332 919.034 584.936C920.058 585.372 920.358 586.598 919.844 587.533C919.32 588.489 918.061 588.961 917.042 589.109C916.008 589.261 913.933 588.704 913.386 588.548C913.241 588.84 913.1 589.133 912.953 589.424C912.253 590.818 911.549 592.208 910.897 593.592C910.668 594.078 910.461 594.566 910.25 595.054C910.446 594.768 910.614 594.528 910.645 594.493C911.548 593.45 913.904 591.966 915.325 592.57C916.349 593.004 916.649 594.23 916.134 595.166C915.609 596.121 914.352 596.594 913.333 596.742C912.345 596.886 910.426 596.39 909.776 596.21C909.576 596.716 909.376 597.222 909.205 597.721C909.096 598.065 908.966 598.389 908.877 598.741C908.78 599.086 908.684 599.429 908.59 599.768C908.432 600.428 908.264 601.108 908.125 601.756C908.026 602.205 907.94 602.636 907.85 603.069C908.073 602.581 908.529 601.636 908.577 601.56C909.31 600.392 911.416 598.568 912.912 598.949C913.99 599.224 914.473 600.39 914.106 601.393C913.73 602.417 912.56 603.074 911.574 603.377C910.49 603.708 908.089 603.405 907.789 603.365C907.645 604.082 907.512 604.781 907.397 605.442C907.334 605.793 907.281 606.122 907.228 606.453H906.273C906.342 606.073 906.417 605.682 906.497 605.274C906.641 604.545 906.809 603.769 906.989 602.974C906.808 602.902 905.782 602.489 904.876 601.981C904.085 602.837 902.06 603.838 901.797 603.966C902.073 604.645 902.348 605.301 902.617 605.917C902.698 606.102 902.776 606.276 902.856 606.453H901.849C901.825 606.393 901.8 606.334 901.774 606.272C901.492 605.586 901.202 604.845 900.913 604.084C900.622 604.144 898.246 604.626 897.138 604.377C896.133 604.15 894.917 603.581 894.466 602.588C894.026 601.614 894.421 600.416 895.476 600.061C896.94 599.569 899.173 601.232 899.993 602.342C900.041 602.408 900.486 603.176 900.758 603.666C900.642 603.354 900.525 603.052 900.409 602.729C900.176 602.093 899.961 601.449 899.728 600.76C899.628 600.422 899.525 600.081 899.422 599.737C899.313 599.398 899.241 599.026 899.148 598.668C898.948 597.83 898.786 596.974 898.644 596.108C898.086 596.312 896.094 597.004 895.061 596.932C894.033 596.86 892.745 596.482 892.15 595.568C891.566 594.673 891.776 593.429 892.764 592.918C894.137 592.212 896.597 593.516 897.574 594.489C897.636 594.548 898.26 595.325 898.593 595.76C898.51 595.237 898.426 594.717 898.361 594.186C898.17 592.656 898.026 591.1 897.874 589.548C897.829 589.073 897.776 588.6 897.726 588.125C897.529 588.201 895.178 589.076 894.022 588.993C892.996 588.922 891.706 588.545 891.11 587.63C890.528 586.736 890.736 585.49 891.725 584.981C893.098 584.273 895.558 585.578 896.536 586.55C896.609 586.624 897.504 587.744 897.718 588.04C897.609 586.996 897.489 585.957 897.329 584.937C897.11 583.532 896.82 582.164 896.44 580.86C896.346 580.894 893.897 581.82 892.713 581.736C891.685 581.662 890.396 581.285 889.801 580.373C889.22 579.478 889.426 578.232 890.416 577.722C891.788 577.014 894.249 578.32 895.226 579.292C895.304 579.369 896.266 580.573 896.425 580.805C896.401 580.726 896.386 580.644 896.362 580.566C895.94 579.18 895.354 577.888 894.746 576.708C894.396 576.02 894.021 575.382 893.644 574.77C893.205 574.99 891.189 575.968 890.116 576.01C889.086 576.052 887.764 575.82 887.072 574.976C886.394 574.152 886.465 572.89 887.39 572.274C888.678 571.421 891.268 572.446 892.345 573.308C892.405 573.353 892.948 573.894 893.338 574.294C893.164 574.021 892.989 573.736 892.816 573.477C892.169 572.504 891.518 571.653 890.936 570.904C890.6 570.481 890.288 570.104 889.994 569.756C889.45 569.745 887.266 569.678 886.31 569.23C885.378 568.792 884.312 567.976 884.086 566.909C883.865 565.865 884.508 564.777 885.614 564.658C887.15 564.493 888.974 566.598 889.536 567.858C889.584 567.968 890.148 569.757 890.118 569.757H890.086C890.377 570.086 890.684 570.442 891.012 570.84C891.613 571.578 892.285 572.418 892.954 573.38C893.626 574.341 894.33 575.402 894.969 576.589C895.61 577.776 896.226 579.058 896.689 580.461C896.694 580.478 896.698 580.494 896.704 580.51C896.696 580.058 896.716 578.792 896.728 578.696C896.905 577.328 898.052 574.789 899.57 574.508C900.664 574.306 901.592 575.162 901.678 576.226C901.768 577.314 900.98 578.401 900.212 579.088C899.345 579.862 896.941 580.61 896.748 580.67C897.177 582.01 897.508 583.421 897.765 584.866C897.912 585.693 898.034 586.529 898.148 587.37C898.153 586.978 898.161 586.629 898.166 586.58C898.344 585.212 899.492 582.673 901.009 582.392C902.105 582.19 903.03 583.048 903.117 584.112C903.208 585.198 902.418 586.285 901.652 586.972C900.872 587.668 898.833 588.349 898.292 588.521C898.332 588.844 898.376 589.166 898.413 589.489C898.6 591.04 898.777 592.588 898.997 594.1C899.076 594.633 899.172 595.156 899.266 595.677C899.272 595.329 899.278 595.037 899.285 594.992C899.462 593.625 900.608 591.086 902.126 590.806C903.221 590.602 904.149 591.461 904.236 592.525C904.325 593.61 903.537 594.7 902.769 595.385C902.025 596.049 900.149 596.694 899.506 596.902C899.618 597.434 899.73 597.969 899.865 598.48C899.964 598.826 900.034 599.166 900.153 599.51C900.264 599.852 900.373 600.19 900.481 600.525C900.713 601.162 900.948 601.824 901.19 602.438C901.356 602.869 901.521 603.276 901.685 603.686C901.602 603.156 901.46 602.116 901.458 602.028C901.438 601.11 901.762 599.621 902.41 598.574C902.406 598.438 902.414 598.305 902.436 598.17C902.605 597.116 903.596 596.333 904.67 596.62C906.164 597.017 907.109 599.637 907.18 601.014C907.184 601.096 907.132 601.982 907.089 602.542C907.164 602.216 907.232 601.901 907.314 601.568C907.47 600.908 907.646 600.253 907.832 599.548C907.934 599.212 908.038 598.872 908.141 598.528C908.237 598.184 908.382 597.833 908.501 597.484C908.797 596.676 909.136 595.873 909.496 595.07C908.917 594.933 906.873 594.412 906.052 593.781C905.234 593.154 904.368 592.128 904.376 591.038C904.384 589.97 905.242 589.045 906.349 589.166C907.885 589.333 909.218 591.778 909.497 593.13C909.513 593.213 909.605 594.206 909.644 594.752C909.864 594.27 910.08 593.79 910.318 593.313C911.004 591.93 911.741 590.552 912.472 589.174C912.696 588.753 912.913 588.329 913.133 587.908C912.928 587.86 910.484 587.293 909.564 586.588C908.746 585.961 907.88 584.934 907.888 583.844C907.894 582.776 908.756 581.853 909.862 581.973C911.397 582.14 912.729 584.586 913.008 585.936C913.029 586.038 913.158 587.465 913.173 587.829C913.657 586.898 914.13 585.966 914.56 585.029C915.154 583.736 915.664 582.434 916.066 581.136C915.97 581.113 913.418 580.534 912.477 579.812C911.66 579.184 910.792 578.157 910.8 577.068C910.808 576 911.668 575.076 912.774 575.197C914.31 575.364 915.642 577.81 915.921 579.16C915.942 579.266 916.08 580.802 916.085 581.081C916.109 581.004 916.142 580.928 916.165 580.85C916.577 579.458 916.801 578.06 916.946 576.738C917.033 575.972 917.072 575.234 917.094 574.516C916.608 574.456 914.386 574.16 913.468 573.604C912.586 573.07 911.612 572.146 911.5 571.061C911.39 569.998 912.145 568.986 913.257 568.985C914.801 568.982 916.394 571.268 916.821 572.578C916.842 572.65 916.997 573.401 917.104 573.949C917.108 573.625 917.118 573.29 917.117 572.98C917.116 571.812 917.042 570.742 916.969 569.796C916.924 569.257 916.872 568.772 916.817 568.318C916.37 568.01 914.584 566.75 914.034 565.849C913.498 564.969 913.06 563.7 913.46 562.685C913.852 561.693 914.988 561.141 915.976 561.652C917.348 562.361 917.709 565.124 917.482 566.484C917.462 566.601 916.944 568.404 916.921 568.388C916.921 568.388 916.898 568.374 916.893 568.37C916.954 568.805 917.013 569.273 917.068 569.785C917.164 570.732 917.261 571.804 917.288 572.976C917.318 574.148 917.318 575.421 917.197 576.764C917.077 578.108 916.884 579.517 916.496 580.941C916.492 580.958 916.485 580.974 916.48 580.99C916.722 580.608 917.438 579.564 917.501 579.49C918.405 578.446 920.761 576.962 922.182 577.566C923.208 578.001 923.506 579.226 922.993 580.162C922.468 581.118 921.21 581.592 920.192 581.74Z" fill="#1C1A1A"/>
<path d="M893.706 574.483C893.682 574.498 893.213 572.681 893.195 572.563C893.007 571.197 893.442 568.446 894.833 567.774C895.834 567.29 896.955 567.873 897.319 568.875C897.691 569.899 897.221 571.158 896.659 572.022C896.003 573.038 893.706 574.483 893.706 574.483Z" fill="#1C1A1A"/>
</g>
<mask id="mask3_1170_7343" style="mask-type:luminance" maskUnits="userSpaceOnUse" x="0" y="0" width="1000" height="667">
<path d="M0 0.000121117H1000V666.667H0V0.000121117Z" fill="white"/>
</mask>
<g mask="url(#mask3_1170_7343)">
<path d="M124.96 170.338C120.548 172.918 118.884 177.911 118.085 180.307C116.981 183.617 113.12 178.099 105.395 180.859C97.6692 183.617 96.5652 189.687 94.9105 191.342C93.2545 192.998 82.2185 197.413 82.2185 197.413H192.956" stroke="#1C1A1A" stroke-width="1.33333" stroke-miterlimit="10" stroke-linecap="round" stroke-linejoin="round"/>
<path d="M198.473 197.412H211.889C211.889 197.412 214.096 185.273 209.13 179.203C204.165 173.133 193.129 181.963 189.818 173.133C189.818 173.133 179.886 158.787 167.746 157.684C155.608 156.579 150.641 165.96 146.778 170.927C142.916 175.892 140.709 168.719 131.329 168.719" stroke="#1C1A1A" stroke-width="1.33333" stroke-miterlimit="10" stroke-linecap="round" stroke-linejoin="round"/>
<path d="M145.476 187.557C143.227 189.652 142.916 192.447 142.916 192.447" stroke="#1C1A1A" stroke-width="1.33333" stroke-miterlimit="10" stroke-linecap="round" stroke-linejoin="round"/>
<path d="M187.61 178.1C187.61 178.1 179.886 170.374 171.057 170.926C162.228 171.478 165.54 181.962 161.677 185.273C157.814 188.584 153.4 184.169 148.434 185.824" stroke="#1C1A1A" stroke-width="1.33333" stroke-miterlimit="10" stroke-linecap="round" stroke-linejoin="round"/>
<path d="M424.818 47.9883C421.179 50.115 419.806 54.235 419.147 56.2096C418.236 58.9403 415.051 54.3896 408.68 56.6643C402.308 58.9403 401.399 63.947 400.034 65.3123C398.668 66.6776 389.567 70.3176 389.567 70.3176H480.898" stroke="#1C1A1A" stroke-width="1.33333" stroke-miterlimit="10" stroke-linecap="round" stroke-linejoin="round"/>
<path d="M485.448 70.3179H496.513C496.513 70.3179 498.335 60.3059 494.237 55.2992C490.143 50.2939 481.04 57.5752 478.309 50.2939C478.309 50.2939 470.117 38.4605 460.107 37.5512C450.093 36.6405 445.999 44.3779 442.812 48.4739C439.627 52.5685 437.807 46.6525 430.069 46.6525" stroke="#1C1A1A" stroke-width="1.33333" stroke-miterlimit="10" stroke-linecap="round" stroke-linejoin="round"/>
<path d="M441.739 62.1902C439.883 63.9182 439.627 66.2222 439.627 66.2222" stroke="#1C1A1A" stroke-width="1.33333" stroke-miterlimit="10" stroke-linecap="round" stroke-linejoin="round"/>
<path d="M476.49 54.3895C476.49 54.3895 470.118 48.0188 462.836 48.4735C455.555 48.9282 458.286 57.5748 455.1 60.3055C451.914 63.0362 448.274 59.3948 444.178 60.7615" stroke="#1C1A1A" stroke-width="1.33333" stroke-miterlimit="10" stroke-linecap="round" stroke-linejoin="round"/>
<path d="M831.589 172.047C827.95 174.175 826.577 178.294 825.918 180.27C825.007 182.999 821.823 178.448 815.451 180.724C809.079 182.999 808.17 188.006 806.805 189.371C805.439 190.736 796.338 194.378 796.338 194.378H887.669" stroke="#1C1A1A" stroke-width="1.33333" stroke-miterlimit="10" stroke-linecap="round" stroke-linejoin="round"/>
<path d="M892.22 194.377H903.286C903.286 194.377 905.106 184.365 901.01 179.358C896.914 174.353 887.811 181.634 885.082 174.353C885.082 174.353 876.89 162.52 866.878 161.61C856.864 160.7 852.77 168.437 849.583 172.533C846.399 176.628 844.578 170.712 836.842 170.712" stroke="#1C1A1A" stroke-width="1.33333" stroke-miterlimit="10" stroke-linecap="round" stroke-linejoin="round"/>
<path d="M848.51 186.249C846.653 187.977 846.398 190.281 846.398 190.281" stroke="#1C1A1A" stroke-width="1.33333" stroke-miterlimit="10" stroke-linecap="round" stroke-linejoin="round"/>
<path d="M883.26 178.449C883.26 178.449 876.89 172.078 869.608 172.533C862.326 172.987 865.058 181.634 861.871 184.365C858.684 187.095 855.044 183.455 850.95 184.821" stroke="#1C1A1A" stroke-width="1.33333" stroke-miterlimit="10" stroke-linecap="round" stroke-linejoin="round"/>
</g>
<path d="M709.509 269.621L750.097 251.739L695.903 128.721L709.509 269.621ZM798.464 361.526L768.688 293.938L688.164 329.411L669.101 286.141L659.396 76.9072L718.317 50.9499L797.563 230.829L823.093 219.581L841.685 261.779L816.152 273.027L845.928 340.617L798.464 361.526Z" fill="#1C1A1A"/>
<path d="M709.509 269.621L750.097 251.739L695.903 128.721L709.509 269.621ZM798.464 361.526L768.688 293.938L688.164 329.411L669.101 286.141L659.396 76.9072L718.317 50.9499L797.563 230.829L823.093 219.581L841.685 261.779L816.152 273.027L845.928 340.617L798.464 361.526Z" stroke="#1C1A1A" stroke-width="1.33333" stroke-miterlimit="10"/>
<path d="M703.043 272.559L743.631 254.678L689.436 131.659L703.043 272.559ZM791.998 364.465L762.222 296.877L681.699 332.35L662.635 289.079L652.931 79.8459L711.851 53.8886L791.096 233.767L816.628 222.519L835.219 264.718L809.686 275.966L839.462 343.555L791.998 364.465Z" fill="#22FF01"/>
<path d="M703.043 272.559L743.631 254.678L689.436 131.659L703.043 272.559ZM791.998 364.465L762.222 296.877L681.699 332.35L662.635 289.079L652.931 79.8459L711.851 53.8886L791.096 233.767L816.628 222.519L835.219 264.718L809.686 275.966L839.462 343.555L791.998 364.465Z" stroke="#1C1A1A" stroke-width="1.33333" stroke-miterlimit="10"/>
<mask id="mask4_1170_7343" style="mask-type:luminance" maskUnits="userSpaceOnUse" x="0" y="0" width="1000" height="667">
<path d="M0 0.000121117H1000V666.667H0V0.000121117Z" fill="white"/>
</mask>
<g mask="url(#mask4_1170_7343)">
<path d="M535.935 368.13C542.267 366.964 546.439 363.948 548.451 359.07C550.463 354.198 551.382 348.664 551.212 342.469C551.039 336.28 550.484 330.621 549.54 325.492L524.268 188.293C523.231 182.66 521.732 176.84 519.78 170.841C517.823 164.844 515.031 159.864 511.39 155.897C507.751 151.936 502.643 150.553 496.08 151.762C489.512 152.973 485.176 156.093 483.072 161.113C480.963 166.138 480.067 171.798 480.38 178.098C480.69 184.4 481.37 190.37 482.407 196.004L507.679 333.202C508.623 338.33 510.118 343.818 512.164 349.661C514.21 355.512 517.159 360.332 521.012 364.125C524.86 367.922 529.834 369.254 535.935 368.13ZM545.562 420.397C528.44 423.55 513.546 422.321 500.874 416.708C488.202 411.096 477.812 402.082 469.706 389.666C461.599 377.253 455.919 362.208 452.662 344.529L426.966 205.024C423.615 186.834 423.371 170.389 426.243 155.686C429.111 140.99 435.467 128.756 445.308 118.996C455.148 109.236 468.863 102.737 486.452 99.4971C503.806 96.2997 518.76 97.5197 531.318 103.153C543.868 108.789 554.107 117.965 562.028 130.674C569.946 143.39 575.582 158.842 578.932 177.032L604.63 316.537C607.886 334.214 607.939 350.298 604.788 364.785C601.636 379.273 595.14 391.397 585.299 401.157C575.459 410.916 562.211 417.329 545.562 420.397Z" fill="#1C1A1A"/>
<path d="M535.935 368.13C542.267 366.964 546.439 363.948 548.451 359.07C550.463 354.198 551.382 348.664 551.212 342.469C551.039 336.28 550.484 330.621 549.54 325.492L524.268 188.293C523.231 182.66 521.732 176.84 519.78 170.841C517.823 164.844 515.031 159.864 511.39 155.897C507.751 151.936 502.643 150.553 496.08 151.762C489.512 152.973 485.176 156.093 483.072 161.113C480.963 166.138 480.067 171.798 480.38 178.098C480.69 184.4 481.37 190.37 482.407 196.004L507.679 333.202C508.623 338.33 510.118 343.818 512.164 349.661C514.21 355.512 517.159 360.332 521.012 364.125C524.86 367.922 529.834 369.254 535.935 368.13ZM545.562 420.397C528.44 423.55 513.546 422.321 500.874 416.708C488.202 411.096 477.812 402.082 469.706 389.666C461.599 377.253 455.919 362.208 452.662 344.529L426.966 205.024C423.615 186.834 423.371 170.389 426.243 155.686C429.111 140.99 435.467 128.756 445.308 118.996C455.148 109.236 468.863 102.737 486.452 99.4971C503.806 96.2997 518.76 97.5197 531.318 103.153C543.868 108.789 554.107 117.965 562.028 130.674C569.946 143.39 575.582 158.842 578.932 177.032L604.63 316.537C607.886 334.214 607.939 350.298 604.788 364.785C601.636 379.273 595.14 391.397 585.299 401.157C575.459 410.916 562.211 417.329 545.562 420.397Z" stroke="#1C1A1A" stroke-width="1.33333" stroke-miterlimit="10"/>
<path d="M528.294 369.893C534.626 368.728 538.798 365.711 540.81 360.833C542.822 355.963 543.74 350.428 543.571 344.232C543.398 338.043 542.844 332.384 541.899 327.255L516.627 190.056C515.59 184.423 514.091 178.603 512.139 172.604C510.182 166.607 507.39 161.627 503.748 157.66C500.11 153.699 495.002 152.317 488.439 153.527C481.871 154.736 477.535 157.857 475.431 162.876C473.322 167.901 472.426 173.561 472.739 179.861C473.048 186.163 473.728 192.133 474.766 197.767L500.038 334.967C500.983 340.093 502.476 345.581 504.523 351.424C506.568 357.275 509.518 362.096 513.371 365.888C517.219 369.687 522.192 371.019 528.294 369.893ZM537.92 422.16C520.799 425.313 505.904 424.084 493.232 418.472C480.56 412.859 470.171 403.845 462.064 391.429C453.959 379.017 448.278 363.971 445.02 346.292L419.324 206.787C415.974 188.599 415.73 172.153 418.602 157.449C421.47 142.753 427.826 130.519 437.667 120.759C447.507 111 461.223 104.5 478.811 101.26C496.164 98.064 511.119 99.2827 523.676 104.917C536.227 110.552 546.466 119.729 554.387 132.439C562.304 145.155 567.94 160.607 571.292 178.795L596.988 318.3C600.244 335.977 600.296 352.061 597.146 366.548C593.996 381.036 587.5 393.16 577.659 402.92C567.818 412.679 554.57 419.092 537.92 422.16Z" fill="#22FF01"/>
<path d="M528.294 369.893C534.626 368.728 538.798 365.711 540.81 360.833C542.822 355.963 543.74 350.428 543.571 344.232C543.398 338.043 542.844 332.384 541.899 327.255L516.627 190.056C515.59 184.423 514.091 178.603 512.139 172.604C510.182 166.607 507.39 161.627 503.748 157.66C500.11 153.699 495.002 152.317 488.439 153.527C481.871 154.736 477.535 157.857 475.431 162.876C473.322 167.901 472.426 173.561 472.739 179.861C473.048 186.163 473.728 192.133 474.766 197.767L500.038 334.967C500.983 340.093 502.476 345.581 504.523 351.424C506.568 357.275 509.518 362.096 513.371 365.888C517.219 369.687 522.192 371.019 528.294 369.893ZM537.92 422.16C520.799 425.313 505.904 424.084 493.232 418.472C480.56 412.859 470.171 403.845 462.064 391.429C453.959 379.017 448.278 363.971 445.02 346.292L419.324 206.787C415.974 188.599 415.73 172.153 418.602 157.449C421.47 142.753 427.826 130.519 437.667 120.759C447.507 111 461.223 104.5 478.811 101.26C496.164 98.064 511.119 99.2827 523.676 104.917C536.227 110.552 546.466 119.729 554.387 132.439C562.304 145.155 567.94 160.607 571.292 178.795L596.988 318.3C600.244 335.977 600.296 352.061 597.146 366.548C593.996 381.036 587.5 393.16 577.659 402.92C567.818 412.679 554.57 419.092 537.92 422.16Z" stroke="#1C1A1A" stroke-width="1.33333" stroke-miterlimit="10"/>
</g>
<path d="M223.945 259.186L267.113 269.375L297.993 138.543L223.945 259.186ZM239.555 386.135L256.521 314.254L170.881 294.04L181.743 248.02L300.081 75.1938L362.744 89.9845L317.592 281.29L344.745 287.698L334.153 332.576L306.999 326.167L290.033 398.05L239.555 386.135Z" fill="#1C1A1A"/>
<path d="M223.945 259.186L267.113 269.375L297.993 138.543L223.945 259.186ZM239.555 386.135L256.521 314.254L170.881 294.04L181.743 248.02L300.081 75.1938L362.744 89.9845L317.592 281.29L344.745 287.698L334.153 332.576L306.999 326.167L290.033 398.05L239.555 386.135Z" stroke="#1C1A1A" stroke-width="1.33333" stroke-miterlimit="10"/>
<path d="M217.046 257.663L260.214 267.852L291.094 137.019L217.046 257.663ZM232.656 384.612L249.622 312.73L163.982 292.518L174.843 246.498L293.183 73.6709L355.846 88.4616L310.692 279.766L337.847 286.175L327.254 331.052L300.1 324.644L283.134 396.526L232.656 384.612Z" fill="#22FF01"/>
<path d="M217.046 257.663L260.214 267.852L291.094 137.019L217.046 257.663ZM232.656 384.612L249.622 312.73L163.982 292.518L174.843 246.498L293.183 73.6709L355.846 88.4616L310.692 279.766L337.847 286.175L327.254 331.052L300.1 324.644L283.134 396.526L232.656 384.612Z" stroke="#1C1A1A" stroke-width="1.33333" stroke-miterlimit="10"/>
<mask id="mask5_1170_7343" style="mask-type:luminance" maskUnits="userSpaceOnUse" x="0" y="0" width="1000" height="667">
<path d="M0 0.000121117H1000V666.667H0V0.000121117Z" fill="white"/>
</mask>
<g mask="url(#mask5_1170_7343)">
<path d="M712.787 398.672C712.787 398.672 708.043 430.392 709.821 441.064C711.6 451.736 735.316 499.168 735.316 499.168V505.691L717.233 514.584L722.569 526.739L729.981 524.96L722.867 558.756L738.281 562.016L758.144 518.735C758.144 518.735 792.532 508.061 793.124 505.393C793.717 502.725 787.492 461.52 787.492 461.52C787.492 461.52 779.784 424.167 774.745 411.715C769.704 399.264 763.48 387.999 763.48 387.999L712.787 398.672Z" fill="#1C1A1A"/>
<path d="M712.787 398.672C712.787 398.672 708.043 430.392 709.821 441.064C711.6 451.736 735.316 499.168 735.316 499.168V505.691L717.233 514.584L722.569 526.739L729.981 524.96L722.867 558.756L738.281 562.016L758.144 518.735C758.144 518.735 792.532 508.061 793.124 505.393C793.717 502.725 787.492 461.52 787.492 461.52C787.492 461.52 779.784 424.167 774.745 411.715C769.704 399.264 763.48 387.999 763.48 387.999L712.787 398.672Z" stroke="#1C1A1A" stroke-width="1.33333" stroke-miterlimit="10"/>
<path d="M730.573 444.029L742.432 447.586L760.812 495.018L738.281 505.393" stroke="white" stroke-width="1.33333" stroke-miterlimit="10"/>
<path d="M754.882 520.216L734.427 524.365" stroke="white" stroke-width="1.33333" stroke-miterlimit="10"/>
<path d="M695.773 320.779L679.213 333.699L675.286 325.689L664.239 331.897C664.239 331.897 663.826 366.899 666.79 368.305C669.753 369.712 706.083 348.377 706.083 348.377C706.083 348.377 708.51 386.895 707.905 392.657C707.298 398.419 711.241 401.149 713.969 400.847C716.698 400.543 768.257 393.871 769.47 392.355C770.685 390.837 771.898 386.895 771.291 384.469C770.685 382.043 759.463 339.885 759.463 339.885C759.463 339.885 790.094 344.739 791.307 342.009C792.521 339.279 801.619 313.196 801.619 313.196L786.151 309.556L780.389 318.352C780.389 318.352 747.331 304.704 736.715 304.704C726.101 304.704 699.109 318.352 695.773 320.779Z" fill="white"/>
<path d="M695.773 320.779L679.213 333.699L675.286 325.689L664.239 331.897C664.239 331.897 663.826 366.899 666.79 368.305C669.753 369.712 706.083 348.377 706.083 348.377C706.083 348.377 708.51 386.895 707.905 392.657C707.298 398.419 711.241 401.149 713.969 400.847C716.698 400.543 768.257 393.871 769.47 392.355C770.685 390.837 771.898 386.895 771.291 384.469C770.685 382.043 759.463 339.885 759.463 339.885C759.463 339.885 790.094 344.739 791.307 342.009C792.521 339.279 801.619 313.196 801.619 313.196L786.151 309.556L780.389 318.352C780.389 318.352 747.331 304.704 736.715 304.704C726.101 304.704 699.109 318.352 695.773 320.779Z" stroke="#1C1A1A" stroke-width="1.33333" stroke-miterlimit="10"/>
<path d="M780.388 318.352L788.199 321.516" stroke="#1C1A1A" stroke-width="1.33333" stroke-miterlimit="10"/>
<path d="M740.573 337.281L759.462 339.885L738.78 342.984" stroke="#1C1A1A" stroke-width="1.33333" stroke-miterlimit="10"/>
<path d="M669.649 344.571L667.14 347.425" stroke="#1C1A1A" stroke-width="1.33333" stroke-miterlimit="10"/>
<path d="M679.213 333.699L672.191 341.68" stroke="#1C1A1A" stroke-width="1.33333" stroke-miterlimit="10"/>
<path d="M751.233 355.219C744.647 364.544 731.064 382.909 722.321 388.776" stroke="#1C1A1A" stroke-width="1.33333" stroke-miterlimit="10"/>
<path d="M755.077 349.667C755.077 349.667 754.384 350.699 753.18 352.437" stroke="#1C1A1A" stroke-width="1.33333" stroke-miterlimit="10"/>
<path d="M722.469 384.336C720.499 386.383 718.573 388.205 716.944 389.428" stroke="#1C1A1A" stroke-width="1.33333" stroke-miterlimit="10"/>
<path d="M734.707 370.036C734.707 370.036 729.591 376.635 724.261 382.431" stroke="#1C1A1A" stroke-width="1.33333" stroke-miterlimit="10"/>
<path d="M664.239 331.898L662.768 298.704C662.768 298.704 656.816 287.312 656.684 286.412C656.553 285.511 658.923 274.439 659.56 272.507C660.199 270.575 663.549 272.538 665.275 275.964C667 279.391 666.156 284.111 666.156 284.111C666.156 284.111 670.077 289.976 670.771 292.632C671.465 295.29 670.189 299.154 670.189 299.154L675.285 325.688L664.239 331.898Z" fill="white"/>
<path d="M664.239 331.898L662.768 298.704C662.768 298.704 656.816 287.312 656.684 286.412C656.553 285.511 658.923 274.439 659.56 272.507C660.199 270.575 663.549 272.538 665.275 275.964C667 279.391 666.156 284.111 666.156 284.111C666.156 284.111 670.077 289.976 670.771 292.632C671.465 295.29 670.189 299.154 670.189 299.154L675.285 325.688L664.239 331.898Z" stroke="#1C1A1A" stroke-width="1.33333" stroke-miterlimit="10"/>
<path d="M662.386 272.311C662.386 272.311 660.45 272.736 660.855 274.532C661.259 276.328 663.158 283.472 662.883 285.509" stroke="#1C1A1A" stroke-width="1.33333" stroke-miterlimit="10"/>
<path d="M786.151 308.13C786.151 308.13 809.169 269.015 811.287 267.884C813.405 266.755 829.503 267.179 829.503 267.179C829.503 267.179 835.717 258.566 836.563 259.554L837.41 260.542C837.41 260.542 839.67 259.271 840.377 259.978L841.082 260.683C841.082 260.683 842.635 259.412 843.482 259.836C844.33 260.26 844.33 261.53 844.33 261.53C844.33 261.53 846.025 260.542 845.601 262.378C845.178 264.214 839.953 273.251 837.834 274.522C835.717 275.792 814.111 275.792 814.111 275.792L802.391 310.531L786.151 308.13Z" fill="white"/>
<path d="M786.151 308.13C786.151 308.13 809.169 269.015 811.287 267.884C813.405 266.755 829.503 267.179 829.503 267.179C829.503 267.179 835.717 258.566 836.563 259.554L837.41 260.542C837.41 260.542 839.67 259.271 840.377 259.978L841.082 260.683C841.082 260.683 842.635 259.412 843.482 259.836C844.33 260.26 844.33 261.53 844.33 261.53C844.33 261.53 846.025 260.542 845.601 262.378C845.178 264.214 839.953 273.251 837.834 274.522C835.717 275.792 814.111 275.792 814.111 275.792L802.391 310.531L786.151 308.13Z" stroke="#1C1A1A" stroke-width="1.33333" stroke-miterlimit="10"/>
<path d="M837.411 260.542C837.411 260.542 832.045 270.568 830.915 271.556" stroke="#1C1A1A" stroke-width="1.33333" stroke-miterlimit="10"/>
<path d="M841.082 260.683L834.445 272.827" stroke="#1C1A1A" stroke-width="1.33333" stroke-miterlimit="10"/>
<path d="M844.33 261.53L837.975 272.262" stroke="#1C1A1A" stroke-width="1.33333" stroke-miterlimit="10"/>
<path d="M660.33 330.322L663.576 339.964L680.268 328.334L676.254 319.725L660.33 330.322Z" fill="white"/>
<path d="M660.33 330.322L663.576 339.964L680.268 328.334L676.254 319.725L660.33 330.322Z" stroke="#1C1A1A" stroke-width="1.33333" stroke-miterlimit="10"/>
<path d="M760.371 269.523C760.371 269.523 760.371 275.588 758.855 280.441C757.339 285.295 761.585 289.54 760.371 291.056C759.159 292.573 755.217 294.696 755.217 294.696C755.217 294.696 753.397 302.884 750.363 304.097C747.331 305.311 738.839 301.671 738.839 301.671C738.839 301.671 731.257 291.967 736.411 283.473C741.567 274.983 760.371 269.523 760.371 269.523Z" fill="white"/>
<path d="M760.371 269.523C760.371 269.523 760.371 275.588 758.855 280.441C757.339 285.295 761.585 289.54 760.371 291.056C759.159 292.573 755.217 294.696 755.217 294.696C755.217 294.696 753.397 302.884 750.363 304.097C747.331 305.311 738.839 301.671 738.839 301.671C738.839 301.671 731.257 291.967 736.411 283.473C741.567 274.983 760.371 269.523 760.371 269.523Z" stroke="#1C1A1A" stroke-width="1.33333" stroke-miterlimit="10"/>
<path d="M754.909 284.561C754.548 285.688 753.882 286.481 753.422 286.335C752.961 286.187 752.88 285.155 753.24 284.028C753.6 282.901 754.265 282.108 754.725 282.255C755.186 282.401 755.269 283.435 754.909 284.561Z" fill="#1C1A1A"/>
<path d="M752.371 278.839C752.371 278.839 754.139 276.319 756.774 277.837" stroke="#1C1A1A" stroke-width="1.33333" stroke-miterlimit="10"/>
<path d="M747.942 291.303C747.942 291.303 748.915 294.807 753.198 295.196" stroke="#1C1A1A" stroke-width="1.33333" stroke-miterlimit="10"/>
<path d="M766.741 255.268C766.741 255.268 770.077 263.155 766.135 268.31C762.192 273.466 752.184 273.768 746.117 281.655C740.052 289.54 742.479 299.852 743.995 303.188C745.511 306.524 743.085 319.262 738.839 321.082C734.593 322.902 727.617 324.115 729.436 328.36C731.257 332.607 733.38 339.886 731.56 343.524C729.74 347.164 718.215 353.534 709.116 350.196C700.019 346.86 700.323 340.188 702.748 335.639C705.173 331.091 700.323 333.212 695.165 325.935C690.009 318.656 683.641 305.918 691.829 299.548C700.019 293.18 706.387 291.056 706.993 284.991C707.601 278.926 704.481 264.518 712.367 258.452C720.252 252.387 724.713 253.823 724.713 253.823C724.713 253.823 732.167 245.563 740.356 245.563C748.544 245.563 751.88 250.719 751.88 250.719C751.88 250.719 762.192 242.531 766.741 255.268Z" fill="#1C1A1A"/>
<path d="M766.741 255.268C766.741 255.268 770.077 263.155 766.135 268.31C762.192 273.466 752.184 273.768 746.117 281.655C740.052 289.54 742.479 299.852 743.995 303.188C745.511 306.524 743.085 319.262 738.839 321.082C734.593 322.902 727.617 324.115 729.436 328.36C731.257 332.607 733.38 339.886 731.56 343.524C729.74 347.164 718.215 353.534 709.116 350.196C700.019 346.86 700.323 340.188 702.748 335.639C705.173 331.091 700.323 333.212 695.165 325.935C690.009 318.656 683.641 305.918 691.829 299.548C700.019 293.18 706.387 291.056 706.993 284.991C707.601 278.926 704.481 264.518 712.367 258.452C720.252 252.387 724.713 253.823 724.713 253.823C724.713 253.823 732.167 245.563 740.356 245.563C748.544 245.563 751.88 250.719 751.88 250.719C751.88 250.719 762.192 242.531 766.741 255.268Z" stroke="#1C1A1A" stroke-width="1.33333" stroke-miterlimit="10"/>
<path d="M784.938 304.704L782.208 311.679L801.922 318.655L804.651 307.736L784.938 304.704Z" fill="white"/>
<path d="M784.938 304.704L782.208 311.679L801.922 318.655L804.651 307.736L784.938 304.704Z" stroke="#1C1A1A" stroke-width="1.33333" stroke-miterlimit="10"/>
<path d="M717.233 514.583C717.233 514.583 678.26 528.253 678.729 531.073C679.2 533.891 688.364 558.563 692.123 562.558C695.881 566.553 697.527 568.902 698.232 565.613C698.936 562.323 697.996 558.33 697.996 556.683C697.996 555.039 699.876 536.242 700.581 535.302C701.287 534.362 722.569 526.738 722.569 526.738L717.233 514.583Z" fill="white"/>
<path d="M717.233 514.583C717.233 514.583 678.26 528.253 678.729 531.073C679.2 533.891 688.364 558.563 692.123 562.558C695.881 566.553 697.527 568.902 698.232 565.613C698.936 562.323 697.996 558.33 697.996 556.683C697.996 555.039 699.876 536.242 700.581 535.302C701.287 534.362 722.569 526.738 722.569 526.738L717.233 514.583Z" stroke="#1C1A1A" stroke-width="1.33333" stroke-miterlimit="10"/>
<path d="M694.237 537.182L689.864 524.97C683.488 527.646 678.561 530.06 678.729 531.073C679.2 533.892 688.364 558.564 692.123 562.558C695.881 566.552 697.527 568.902 698.232 565.613C698.936 562.322 697.996 558.328 697.996 556.684C697.996 555.04 699.876 536.242 700.581 535.302L694.237 537.182Z" fill="white"/>
<path d="M694.237 537.182L689.864 524.97C683.488 527.646 678.561 530.06 678.729 531.073C679.2 533.892 688.364 558.564 692.123 562.558C695.881 566.552 697.527 568.902 698.232 565.613C698.936 562.322 697.996 558.328 697.996 556.684C697.996 555.04 699.876 536.242 700.581 535.302L694.237 537.182Z" stroke="#1C1A1A" stroke-width="1.33333" stroke-miterlimit="10"/>
<path d="M722.866 558.755C722.866 558.755 711.728 597.117 712.094 599.213C712.461 601.309 723.062 604.607 727.138 605.763C731.213 606.919 741.546 606.506 744.301 605.391C747.057 604.277 748.798 602.047 746.629 601.242C744.46 600.437 738.48 598.929 738.48 598.929L729.754 587.47L738.282 562.015L722.866 558.755Z" fill="white"/>
<path d="M722.866 558.755C722.866 558.755 711.728 597.117 712.094 599.213C712.461 601.309 723.062 604.607 727.138 605.763C731.213 606.919 741.546 606.506 744.301 605.391C747.057 604.277 748.798 602.047 746.629 601.242C744.46 600.437 738.48 598.929 738.48 598.929L729.754 587.47L738.282 562.015L722.866 558.755Z" stroke="#1C1A1A" stroke-width="1.33333" stroke-miterlimit="10"/>
<path d="M746.629 601.242C744.46 600.437 738.48 598.929 738.48 598.929L729.755 587.47L727.733 592.777L714.459 588.541C713.023 594.591 711.972 598.511 712.095 599.213C712.461 601.309 723.063 604.606 727.139 605.763C731.212 606.919 741.545 606.505 744.301 605.39C747.056 604.275 748.799 602.047 746.629 601.242Z" fill="white"/>
<path d="M746.629 601.242C744.46 600.437 738.48 598.929 738.48 598.929L729.755 587.47L727.733 592.777L714.459 588.541C713.023 594.591 711.972 598.511 712.095 599.213C712.461 601.309 723.063 604.606 727.139 605.763C731.212 606.919 741.545 606.505 744.301 605.39C747.056 604.275 748.799 602.047 746.629 601.242Z" stroke="#1C1A1A" stroke-width="1.33333" stroke-miterlimit="10"/>
</g>
<mask id="mask6_1170_7343" style="mask-type:luminance" maskUnits="userSpaceOnUse" x="0" y="0" width="1000" height="667">
<path d="M0 0.000121117H1000V666.667H0V0.000121117Z" fill="white"/>
</mask>
<g mask="url(#mask6_1170_7343)">
<path d="M452.609 246.247C452.609 246.247 464.403 256.814 466.125 256.814C467.845 256.814 469.565 251.654 472.267 255.339C474.97 259.025 472.267 263.203 472.267 263.203C472.267 263.203 483.079 274.998 481.359 277.21C479.639 279.421 471.53 284.09 471.53 284.09L469.81 304.731L447.694 298.589L447.449 290.97L435.899 283.353C435.899 283.353 429.755 273.031 433.933 262.957C438.11 252.882 452.609 246.247 452.609 246.247Z" fill="white"/>
<path d="M452.609 246.247C452.609 246.247 464.403 256.814 466.125 256.814C467.845 256.814 469.565 251.654 472.267 255.339C474.97 259.025 472.267 263.203 472.267 263.203C472.267 263.203 483.079 274.998 481.359 277.21C479.639 279.421 471.53 284.09 471.53 284.09L469.81 304.731L447.694 298.589L447.449 290.97L435.899 283.353C435.899 283.353 429.755 273.031 433.933 262.957C438.11 252.882 452.609 246.247 452.609 246.247Z" stroke="#1C1A1A" stroke-width="1.33333" stroke-miterlimit="10"/>
<path d="M452.609 246.247C452.609 246.247 441.06 256.322 442.288 257.551C443.517 258.779 449.661 260.499 448.677 262.219C447.694 263.941 444.992 269.346 444.992 269.346C444.992 269.346 449.906 272.05 449.661 273.523C449.414 274.998 448.186 276.473 447.449 276.226C446.712 275.981 439.585 273.523 438.848 277.455C438.11 281.387 441.305 285.073 444.009 286.302C446.712 287.53 451.136 284.827 451.136 284.827C451.136 284.827 448.186 290.725 447.449 290.97C446.712 291.217 433.442 285.319 428.281 283.107C423.121 280.895 418.452 277.701 419.681 272.295C420.91 266.889 422.385 260.009 427.053 256.077C431.721 252.145 435.653 247.722 435.653 247.722C435.653 247.722 429.02 244.035 433.933 242.07C438.848 240.105 444.009 242.07 444.009 242.07C444.009 242.07 442.288 236.665 446.712 237.646C451.136 238.63 453.346 241.579 452.609 246.247Z" fill="#1C1A1A"/>
<path d="M452.609 246.247C452.609 246.247 441.06 256.322 442.288 257.551C443.517 258.779 449.661 260.499 448.677 262.219C447.694 263.941 444.992 269.346 444.992 269.346C444.992 269.346 449.906 272.05 449.661 273.523C449.414 274.998 448.186 276.473 447.449 276.226C446.712 275.981 439.585 273.523 438.848 277.455C438.11 281.387 441.305 285.073 444.009 286.302C446.712 287.53 451.136 284.827 451.136 284.827C451.136 284.827 448.186 290.725 447.449 290.97C446.712 291.217 433.442 285.319 428.281 283.107C423.121 280.895 418.452 277.701 419.681 272.295C420.91 266.889 422.385 260.009 427.053 256.077C431.721 252.145 435.653 247.722 435.653 247.722C435.653 247.722 429.02 244.035 433.933 242.07C438.848 240.105 444.009 242.07 444.009 242.07C444.009 242.07 442.288 236.665 446.712 237.646C451.136 238.63 453.346 241.579 452.609 246.247Z" stroke="#1C1A1A" stroke-width="1.33333" stroke-miterlimit="10"/>
<path d="M471.53 284.09L463.667 288.513L470.547 293.427L471.53 284.09Z" fill="#1C1A1A"/>
<path d="M471.53 284.09L463.667 288.513L470.547 293.427L471.53 284.09Z" stroke="#1C1A1A" stroke-width="1.33333" stroke-miterlimit="10"/>
<path d="M456.541 254.111C456.541 254.111 451.626 254.111 452.118 258.78" stroke="#1C1A1A" stroke-width="1.33333" stroke-miterlimit="10"/>
<path d="M462.081 260.109C462.979 261.215 463.151 262.563 462.465 263.118C461.78 263.674 460.497 263.227 459.6 262.119C458.703 261.013 458.531 259.665 459.216 259.11C459.901 258.554 461.184 259.001 462.081 260.109Z" fill="#1C1A1A"/>
<path d="M434.541 576.286C434.541 576.286 435.754 588.418 436.966 590.237C438.18 592.057 449.705 597.818 452.132 600.246C454.558 602.672 449.098 604.492 446.369 605.704C443.64 606.918 440.606 606.614 435.148 605.098C429.688 603.582 424.532 599.033 421.196 597.516C417.86 596 409.368 593.27 409.974 591.148C410.581 589.025 421.196 571.737 421.196 571.737L434.541 576.286Z" fill="white"/>
<path d="M434.541 576.286C434.541 576.286 435.754 588.418 436.966 590.237C438.18 592.057 449.705 597.818 452.132 600.246C454.558 602.672 449.098 604.492 446.369 605.704C443.64 606.918 440.606 606.614 435.148 605.098C429.688 603.582 424.532 599.033 421.196 597.516C417.86 596 409.368 593.27 409.974 591.148C410.581 589.025 421.196 571.737 421.196 571.737L434.541 576.286Z" stroke="#1C1A1A" stroke-width="1.33333" stroke-miterlimit="10"/>
<path d="M554.036 582.352C554.036 582.352 567.38 599.64 568.291 599.942C570.479 600.664 579.429 590.868 581.168 589.434C586.235 585.26 590.841 580.577 594.469 575.085C595.967 572.817 600.495 565.104 596.8 562.638C592.219 559.585 586.667 566.765 582.848 568.401C580.725 569.312 574.659 572.041 574.659 572.041L554.036 582.352Z" fill="white"/>
<path d="M554.036 582.352C554.036 582.352 567.38 599.64 568.291 599.942C570.479 600.664 579.429 590.868 581.168 589.434C586.235 585.26 590.841 580.577 594.469 575.085C595.967 572.817 600.495 565.104 596.8 562.638C592.219 559.585 586.667 566.765 582.848 568.401C580.725 569.312 574.659 572.041 574.659 572.041L554.036 582.352Z" stroke="#1C1A1A" stroke-width="1.33333" stroke-miterlimit="10"/>
<path d="M446.066 420.094C446.066 420.094 446.975 435.562 448.188 437.382C449.402 439.2 453.648 453.455 453.648 453.455L443.943 508.956L419.376 570.523L436.967 578.408L472.148 513.507C472.148 513.507 484.28 482.267 484.583 481.358C484.886 480.448 554.036 582.351 554.036 582.351L568.594 572.951L522.494 472.563L499.747 418.576L446.066 420.094Z" fill="#1C1A1A"/>
<path d="M446.066 420.094C446.066 420.094 446.975 435.562 448.188 437.382C449.402 439.2 453.648 453.455 453.648 453.455L443.943 508.956L419.376 570.523L436.967 578.408L472.148 513.507C472.148 513.507 484.28 482.267 484.583 481.358C484.886 480.448 554.036 582.351 554.036 582.351L568.594 572.951L522.494 472.563L499.747 418.576L446.066 420.094Z" stroke="#1C1A1A" stroke-width="1.33333" stroke-miterlimit="10"/>
<path d="M419.68 559.605L417.253 573.253L436.664 581.744L443.943 570.827L419.68 559.605Z" fill="white"/>
<path d="M419.68 559.605L417.253 573.253L436.664 581.744L443.943 570.827L419.68 559.605Z" stroke="#1C1A1A" stroke-width="1.33333" stroke-miterlimit="10"/>
<path d="M547.363 579.016L555.249 586.901L574.659 572.041L567.381 562.941L547.363 579.016Z" fill="white"/>
<path d="M547.363 579.016L555.249 586.901L574.659 572.041L567.381 562.941L547.363 579.016Z" stroke="#1C1A1A" stroke-width="1.33333" stroke-miterlimit="10"/>
<path d="M444.5 303.012C444.5 303.012 436.391 332.99 437.373 340.854C438.356 348.717 435.653 422.929 435.653 422.929C435.653 422.929 453.345 428.334 473.988 426.124C494.629 423.912 506.669 419.98 506.669 419.98C506.669 419.98 486.028 338.15 482.588 328.321C479.148 318.493 470.548 307.189 470.548 307.189L444.5 303.012Z" fill="white"/>
<path d="M444.5 303.012C444.5 303.012 436.391 332.99 437.373 340.854C438.356 348.717 435.653 422.929 435.653 422.929C435.653 422.929 453.345 428.334 473.988 426.124C494.629 423.912 506.669 419.98 506.669 419.98C506.669 419.98 486.028 338.15 482.588 328.321C479.148 318.493 470.548 307.189 470.548 307.189L444.5 303.012Z" stroke="#1C1A1A" stroke-width="1.33333" stroke-miterlimit="10"/>
<path d="M445.237 295.148L442.042 304.732L475.216 313.332L476.2 302.274L445.237 295.148Z" fill="white"/>
<path d="M445.237 295.148L442.042 304.732L475.216 313.332L476.2 302.274L445.237 295.148Z" stroke="#1C1A1A" stroke-width="1.33333" stroke-miterlimit="10"/>
<path d="M521.66 413.836L528.54 415.556C528.54 415.556 531.489 411.379 533.701 410.641C535.912 409.905 538.614 410.396 541.318 410.396C544.021 410.396 546.478 406.709 548.69 408.431C550.902 410.151 547.462 412.116 546.233 412.608C545.004 413.099 539.106 414.328 539.106 414.328C539.106 414.328 553.113 418.505 554.096 418.505C555.078 418.505 553.358 420.963 552.13 421.699C550.902 422.437 546.724 422.683 546.724 422.683C546.724 422.683 539.844 425.141 536.404 425.385C532.964 425.632 523.872 422.683 523.872 422.683L518.22 420.472L514.778 419.243L521.66 413.836Z" fill="white"/>
<path d="M521.66 413.836L528.54 415.556C528.54 415.556 531.489 411.379 533.701 410.641C535.912 409.905 538.614 410.396 541.318 410.396C544.021 410.396 546.478 406.709 548.69 408.431C550.902 410.151 547.462 412.116 546.233 412.608C545.004 413.099 539.106 414.328 539.106 414.328C539.106 414.328 553.113 418.505 554.096 418.505C555.078 418.505 553.358 420.963 552.13 421.699C550.902 422.437 546.724 422.683 546.724 422.683C546.724 422.683 539.844 425.141 536.404 425.385C532.964 425.632 523.872 422.683 523.872 422.683L518.22 420.472L514.778 419.243L521.66 413.836Z" stroke="#1C1A1A" stroke-width="1.33333" stroke-miterlimit="10"/>
<path d="M452.363 316.527C452.363 316.527 442.042 325.864 444.746 334.465C447.449 343.065 512.567 425.385 512.567 425.385L526.083 412.608L469.318 318.001" fill="white"/>
<path d="M452.363 316.527C452.363 316.527 442.042 325.864 444.746 334.465C447.449 343.065 512.567 425.385 512.567 425.385L526.083 412.608L469.318 318.001" stroke="#1C1A1A" stroke-width="1.33333" stroke-miterlimit="10"/>
<path d="M463.96 454.364L483.066 478.931" stroke="white" stroke-width="1.33333" stroke-miterlimit="10"/>
</g>
<mask id="mask7_1170_7343" style="mask-type:luminance" maskUnits="userSpaceOnUse" x="0" y="0" width="1000" height="667">
<path d="M0 0.000121117H1000V666.667H0V0.000121117Z" fill="white"/>
</mask>
<g mask="url(#mask7_1170_7343)">
<path d="M180.339 252.442C180.339 252.442 172.429 260.159 171.851 264.982C171.272 269.805 164.519 289.869 166.835 293.727C169.149 297.586 181.496 305.303 181.496 305.303C181.496 305.303 166.449 309.162 167.607 317.071C168.764 324.981 174.165 325.753 174.165 325.753C174.165 325.753 162.011 332.89 166.063 338.101C170.115 343.309 179.76 342.537 181.304 338.293C182.847 334.049 179.953 328.646 179.953 328.646C179.953 328.646 187.671 326.331 189.599 323.053C191.529 319.773 190.949 316.686 190.949 316.686C190.949 316.686 197.701 317.843 201.753 314.949C205.805 312.055 207.541 302.987 207.541 302.987C207.541 302.987 221.817 294.885 226.833 281.766C231.849 268.647 230.113 263.246 226.833 259.194C223.553 255.143 199.631 243.182 192.3 244.725C184.969 246.269 180.339 252.442 180.339 252.442Z" fill="#1C1A1A"/>
<path d="M180.339 252.442C180.339 252.442 172.429 260.159 171.851 264.982C171.272 269.805 164.519 289.869 166.835 293.727C169.149 297.586 181.496 305.303 181.496 305.303C181.496 305.303 166.449 309.162 167.607 317.071C168.764 324.981 174.165 325.753 174.165 325.753C174.165 325.753 162.011 332.89 166.063 338.101C170.115 343.309 179.76 342.537 181.304 338.293C182.847 334.049 179.953 328.646 179.953 328.646C179.953 328.646 187.671 326.331 189.599 323.053C191.529 319.773 190.949 316.686 190.949 316.686C190.949 316.686 197.701 317.843 201.753 314.949C205.805 312.055 207.541 302.987 207.541 302.987C207.541 302.987 221.817 294.885 226.833 281.766C231.849 268.647 230.113 263.246 226.833 259.194C223.553 255.143 199.631 243.182 192.3 244.725C184.969 246.269 180.339 252.442 180.339 252.442Z" stroke="#1C1A1A" stroke-width="1.33333" stroke-miterlimit="10"/>
<path d="M196.737 301.251L200.596 319.194L220.466 307.618L215.065 299.901C215.065 299.901 201.368 304.531 196.737 301.251Z" fill="white"/>
<path d="M196.737 301.251L200.596 319.194L220.466 307.618L215.065 299.901C215.065 299.901 201.368 304.531 196.737 301.251Z" stroke="#1C1A1A" stroke-width="1.33333" stroke-miterlimit="10"/>
<path d="M195.58 263.632L183.426 285.046C183.426 285.046 187.862 294.885 190.564 297.972C193.265 301.058 196.545 304.917 205.612 305.881C214.68 306.846 220.081 297.972 220.468 292.185C220.853 286.397 214.68 269.226 214.68 269.226L195.58 263.632Z" fill="white"/>
<path d="M195.58 263.632L183.426 285.046C183.426 285.046 187.862 294.885 190.564 297.972C193.265 301.058 196.545 304.917 205.612 305.881C214.68 306.846 220.081 297.972 220.468 292.185C220.853 286.397 214.68 269.226 214.68 269.226L195.58 263.632Z" stroke="#1C1A1A" stroke-width="1.33333" stroke-miterlimit="10"/>
<path d="M184.969 286.975C184.969 286.975 179.181 284.661 180.531 289.483C181.882 294.307 188.055 294.307 188.055 294.307L184.969 286.975Z" fill="white"/>
<path d="M184.969 286.975C184.969 286.975 179.181 284.661 180.531 289.483C181.882 294.307 188.055 294.307 188.055 294.307L184.969 286.975Z" stroke="#1C1A1A" stroke-width="1.33333" stroke-miterlimit="10"/>
<path d="M216.223 274.242C216.223 274.242 216.995 270.963 219.888 272.891C222.781 274.821 218.923 281.959 218.923 281.959L216.223 274.242Z" fill="white"/>
<path d="M216.223 274.242C216.223 274.242 216.995 270.963 219.888 272.891C222.781 274.821 218.923 281.959 218.923 281.959L216.223 274.242Z" stroke="#1C1A1A" stroke-width="1.33333" stroke-miterlimit="10"/>
<path d="M201.175 284.66L203.683 290.448L207.541 288.904" stroke="#1C1A1A" stroke-width="1.33333" stroke-miterlimit="10"/>
<path d="M200.789 294.5C200.789 294.5 208.699 297.972 211.786 289.484" stroke="#1C1A1A" stroke-width="1.33333" stroke-miterlimit="10"/>
<path d="M206.384 280.609C206.384 280.609 208.892 277.33 212.172 278.294" stroke="#1C1A1A" stroke-width="1.33333" stroke-miterlimit="10"/>
<path d="M202.332 273.278C202.332 273.278 205.419 269.419 210.05 270.77" stroke="#1C1A1A" stroke-width="1.33333" stroke-miterlimit="10"/>
<path d="M195.387 275.786C195.387 275.786 189.985 273.471 187.669 279.645" stroke="#1C1A1A" stroke-width="1.33333" stroke-miterlimit="10"/>
<path d="M196.599 284.258C197.092 285.262 196.948 286.343 196.279 286.673C195.61 287.001 194.667 286.453 194.175 285.449C193.682 284.445 193.824 283.363 194.494 283.035C195.164 282.706 196.106 283.254 196.599 284.258Z" fill="#1C1A1A"/>
<path d="M291.54 269.25C291.54 269.25 302.564 261.77 303.352 260.982C304.138 260.194 308.864 257.045 311.029 255.274C313.194 253.502 313.785 247.595 316.148 248.581C318.51 249.565 319.1 251.927 318.313 253.698C317.525 255.47 313.588 258.619 313.588 258.619C313.588 258.619 324.416 256.454 325.006 257.635C325.596 258.817 325.596 261.377 324.809 262.361C324.021 263.345 323.037 264.526 323.037 264.526C323.037 264.526 322.25 271.219 321.069 273.385C319.888 275.55 315.36 276.927 312.21 276.927C309.061 276.927 302.564 277.715 302.564 277.715L295.281 280.667L291.54 269.25Z" fill="white"/>
<path d="M291.54 269.25C291.54 269.25 302.564 261.77 303.352 260.982C304.138 260.194 308.864 257.045 311.029 255.274C313.194 253.502 313.785 247.595 316.148 248.581C318.51 249.565 319.1 251.927 318.313 253.698C317.525 255.47 313.588 258.619 313.588 258.619C313.588 258.619 324.416 256.454 325.006 257.635C325.596 258.817 325.596 261.377 324.809 262.361C324.021 263.345 323.037 264.526 323.037 264.526C323.037 264.526 322.25 271.219 321.069 273.385C319.888 275.55 315.36 276.927 312.21 276.927C309.061 276.927 302.564 277.715 302.564 277.715L295.281 280.667L291.54 269.25Z" stroke="#1C1A1A" stroke-width="1.33333" stroke-miterlimit="10"/>
<path d="M195.236 388.287L194.721 397.291L251.061 392.147L248.488 383.913L195.236 388.287Z" fill="white"/>
<path d="M195.236 388.287L194.721 397.291L251.061 392.147L248.488 383.913L195.236 388.287Z" stroke="#1C1A1A" stroke-width="1.33333" stroke-miterlimit="10"/>
<path d="M199.713 315.86C199.713 315.86 189.901 321.604 187.304 326.056C184.708 330.507 164.305 363.152 165.789 366.861C167.272 370.572 173.95 375.024 176.917 375.024C179.885 375.024 206.224 379.103 206.224 379.103L202.08 319.936L199.713 315.86Z" fill="white"/>
<path d="M199.713 315.86C199.713 315.86 189.901 321.604 187.304 326.056C184.708 330.507 164.305 363.152 165.789 366.861C167.272 370.572 173.95 375.024 176.917 375.024C179.885 375.024 206.224 379.103 206.224 379.103L202.08 319.936L199.713 315.86Z" stroke="#1C1A1A" stroke-width="1.33333" stroke-miterlimit="10"/>
<path d="M193.24 360.926C193.24 360.926 184.708 367.605 177.289 369.458" stroke="#1C1A1A" stroke-width="1.33333" stroke-miterlimit="10"/>
<path d="M191.595 362.547C191.595 362.547 188.704 368.668 184.963 371.05" stroke="#1C1A1A" stroke-width="1.33333" stroke-miterlimit="10"/>
<path d="M291.54 269.25C291.54 269.25 204.529 312.166 198.229 315.118C191.929 318.072 185.433 331.852 187.009 342.678C188.584 353.505 196.064 365.317 196.654 367.089C197.245 368.861 194.686 383.625 194.096 386.381C193.505 389.137 193.702 391.302 196.261 392.484C198.82 393.665 247.444 386.972 249.216 385.988C250.986 385.002 252.562 382.641 251.381 378.506C250.2 374.373 245.278 363.546 245.278 362.561C245.278 361.577 236.814 334.608 236.814 334.608C236.814 334.608 276.578 300.945 281.106 295.433C285.634 289.921 295.281 280.668 295.281 280.668L291.54 269.25Z" fill="white"/>
<path d="M291.54 269.25C291.54 269.25 204.529 312.166 198.229 315.118C191.929 318.072 185.433 331.852 187.009 342.678C188.584 353.505 196.064 365.317 196.654 367.089C197.245 368.861 194.686 383.625 194.096 386.381C193.505 389.137 193.702 391.302 196.261 392.484C198.82 393.665 247.444 386.972 249.216 385.988C250.986 385.002 252.562 382.641 251.381 378.506C250.2 374.373 245.278 363.546 245.278 362.561C245.278 361.577 236.814 334.608 236.814 334.608C236.814 334.608 276.578 300.945 281.106 295.433C285.634 289.921 295.281 280.668 295.281 280.668L291.54 269.25Z" stroke="#1C1A1A" stroke-width="1.33333" stroke-miterlimit="10"/>
<path d="M209.247 365.89C207.571 367.46 206.093 368.698 204.922 369.451" stroke="#1C1A1A" stroke-width="1.33333" stroke-miterlimit="10"/>
<path d="M212.753 351.679C223.594 344.657 236.814 334.608 236.814 334.608C236.814 334.608 222.635 352.329 212.402 362.787" stroke="#1C1A1A" stroke-width="1.33333" stroke-miterlimit="10"/>
<path d="M200.592 358.231C202.487 357.781 205.745 356.044 209.555 353.703" stroke="#1C1A1A" stroke-width="1.33333" stroke-miterlimit="10"/>
<path d="M220.475 361.38C220.475 361.38 214.175 368.074 211.616 369.846" stroke="#1C1A1A" stroke-width="1.33333" stroke-miterlimit="10"/>
<path d="M241.444 324.89C240.398 326.258 239.37 327.426 238.389 328.308" stroke="#1C1A1A" stroke-width="1.33333" stroke-miterlimit="10"/>
<path d="M256.499 297.007C256.499 297.007 250.425 311.221 244.135 321.017" stroke="#1C1A1A" stroke-width="1.33333" stroke-miterlimit="10"/>
<path d="M286.619 271.809L291.54 284.605" stroke="#1C1A1A" stroke-width="1.33333" stroke-miterlimit="10"/>
<path d="M220.19 526.692L209.642 567.597L202.954 577.886L198.58 592.55L207.584 596.924C207.584 596.924 212.472 592.036 215.302 594.866C218.132 597.696 218.389 602.584 218.389 602.584C218.389 602.584 232.024 606.7 234.854 606.442C237.684 606.185 242.057 606.957 242.572 605.67C243.086 604.385 243.344 594.609 242.057 593.322C241.162 592.428 231.81 589.436 225.85 584.318C223.245 582.082 221.274 575.292 220.962 575.056C219.933 574.285 242.057 529.522 242.057 529.522L220.19 526.692Z" fill="white"/>
<path d="M220.19 526.692L209.642 567.597L202.954 577.886L198.58 592.55L207.584 596.924C207.584 596.924 212.472 592.036 215.302 594.866C218.132 597.696 218.389 602.584 218.389 602.584C218.389 602.584 232.024 606.7 234.854 606.442C237.684 606.185 242.057 606.957 242.572 605.67C243.086 604.385 243.344 594.609 242.057 593.322C241.162 592.428 231.81 589.436 225.85 584.318C223.245 582.082 221.274 575.292 220.962 575.056C219.933 574.285 242.057 529.522 242.057 529.522L220.19 526.692Z" stroke="#1C1A1A" stroke-width="1.33333" stroke-miterlimit="10"/>
<path d="M242.572 605.671C243.086 604.384 243.344 594.608 242.057 593.321C241.162 592.427 231.81 589.435 225.849 584.317C223.244 582.083 221.274 575.292 220.961 575.056C220.857 574.977 221.001 574.429 221.325 573.54L208.884 568.763L202.954 577.887L198.58 592.549L207.584 596.923C207.584 596.923 212.472 592.035 215.302 594.865C218.132 597.696 218.389 602.584 218.389 602.584C218.389 602.584 232.024 606.699 234.853 606.441C237.684 606.185 242.057 606.957 242.572 605.671Z" fill="#1C1A1A"/>
<path d="M242.572 605.671C243.086 604.384 243.344 594.608 242.057 593.321C241.162 592.427 231.81 589.435 225.849 584.317C223.244 582.083 221.274 575.292 220.961 575.056C220.857 574.977 221.001 574.429 221.325 573.54L208.884 568.763L202.954 577.887L198.58 592.549L207.584 596.923C207.584 596.923 212.472 592.035 215.302 594.865C218.132 597.696 218.389 602.584 218.389 602.584C218.389 602.584 232.024 606.699 234.853 606.441C237.684 606.185 242.057 606.957 242.572 605.671Z" stroke="#1C1A1A" stroke-width="1.33333" stroke-miterlimit="10"/>
<path d="M259.293 514.086L284.479 576.936C284.479 576.936 282.859 586.428 284.479 588.974C286.1 591.521 289.804 600.782 289.804 600.782L303.233 597.541C303.233 597.541 302.075 592.91 305.78 593.142C309.485 593.374 312.263 594.994 312.263 594.994C312.263 594.994 323.145 589.206 326.387 587.353C329.628 585.502 331.248 582.954 331.017 582.029C330.785 581.102 327.544 573.925 323.84 574.618C320.135 575.314 313.189 578.325 309.716 578.325C306.243 578.325 298.603 575.777 296.981 573C295.361 570.221 284.505 523.605 284.505 523.605L281.417 501.224L270.356 463.406L259.293 514.086Z" fill="white"/>
<path d="M259.293 514.086L284.479 576.936C284.479 576.936 282.859 586.428 284.479 588.974C286.1 591.521 289.804 600.782 289.804 600.782L303.233 597.541C303.233 597.541 302.075 592.91 305.78 593.142C309.485 593.374 312.263 594.994 312.263 594.994C312.263 594.994 323.145 589.206 326.387 587.353C329.628 585.502 331.248 582.954 331.017 582.029C330.785 581.102 327.544 573.925 323.84 574.618C320.135 575.314 313.189 578.325 309.716 578.325C306.243 578.325 298.603 575.777 296.981 573C295.361 570.221 284.505 523.605 284.505 523.605L281.417 501.224L270.356 463.406L259.293 514.086Z" stroke="#1C1A1A" stroke-width="1.33333" stroke-miterlimit="10"/>
<path d="M331.017 582.029C330.785 581.102 327.544 573.925 323.84 574.618C320.134 575.314 313.189 578.325 309.716 578.325C306.242 578.325 298.602 575.778 296.981 573C296.822 572.725 296.57 572.014 296.25 570.977L284.124 576.049L284.478 576.936C284.478 576.936 282.858 586.428 284.478 588.974C286.1 591.521 289.804 600.782 289.804 600.782L303.233 597.541C303.233 597.541 302.074 592.91 305.78 593.142C309.485 593.374 312.262 594.994 312.262 594.994C312.262 594.994 323.145 589.206 326.386 587.353C329.628 585.501 331.248 582.954 331.017 582.029Z" fill="#1C1A1A"/>
<path d="M331.017 582.029C330.785 581.102 327.544 573.925 323.84 574.618C320.134 575.314 313.189 578.325 309.716 578.325C306.242 578.325 298.602 575.778 296.981 573C296.822 572.725 296.57 572.014 296.25 570.977L284.124 576.049L284.478 576.936C284.478 576.936 282.858 586.428 284.478 588.974C286.1 591.521 289.804 600.782 289.804 600.782L303.233 597.541C303.233 597.541 302.074 592.91 305.78 593.142C309.485 593.374 312.262 594.994 312.262 594.994C312.262 594.994 323.145 589.206 326.386 587.353C329.628 585.501 331.248 582.954 331.017 582.029Z" stroke="#1C1A1A" stroke-width="1.33333" stroke-miterlimit="10"/>
<path d="M194.722 397.29L177.743 531.065C177.743 531.065 199.867 533.894 225.335 533.124C250.804 532.352 257.492 531.322 257.492 531.322L270.612 470.352L284.504 523.604L290.936 521.546C290.936 521.546 283.734 478.326 279.616 469.065C275.5 459.805 251.062 392.146 251.062 392.146L194.722 397.29Z" fill="#1C1A1A"/>
<path d="M194.722 397.29L177.743 531.065C177.743 531.065 199.867 533.894 225.335 533.124C250.804 532.352 257.492 531.322 257.492 531.322L270.612 470.352L284.504 523.604L290.936 521.546C290.936 521.546 283.734 478.326 279.616 469.065C275.5 459.805 251.062 392.146 251.062 392.146L194.722 397.29Z" stroke="#1C1A1A" stroke-width="1.33333" stroke-miterlimit="10"/>
</g>
</svg>
