<svg width="388" height="281" viewBox="0 0 388 281" fill="none" xmlns="http://www.w3.org/2000/svg">
<path d="M374.17 140.164C370.78 113.164 362.3 87.0937 352.17 68.4037C327.7 23.4937 259.53 -6.54631 208.17 1.22369C164.36 7.84369 143.31 47.8137 103.81 61.6837C67.4697 74.4437 34.7497 84.2937 17.6197 117.964C-18.6703 189.084 70.0397 266.834 146.07 260.774C170.07 258.854 191.51 249.624 216.14 253.954C266.14 262.744 282.74 272.194 326.9 254.614C370.41 237.284 380.1 187.394 374.17 140.164Z" fill="#22FF01"/>
<path opacity="0.8" d="M374.17 140.164C370.78 113.164 362.3 87.0937 352.17 68.4037C327.7 23.4937 259.53 -6.54631 208.17 1.22369C164.36 7.84369 143.31 47.8137 103.81 61.6837C67.4697 74.4437 34.7497 84.2937 17.6197 117.964C-18.6703 189.084 70.0397 266.834 146.07 260.774C170.07 258.854 191.51 249.624 216.14 253.954C266.14 262.744 282.74 272.194 326.9 254.614C370.41 237.284 380.1 187.394 374.17 140.164Z" fill="white"/>
<path d="M199.24 276.084L156.59 180.584H259.94L387.39 264.654" fill="white"/>
<path d="M199.24 276.084L156.59 180.584H259.94L387.39 264.654" stroke="#1C1A1A" stroke-width="0.75" stroke-linecap="round" stroke-linejoin="round"/>
<path d="M188.66 272.324L156.59 186.954V180.584L201.96 280.534L188.66 272.324Z" fill="#1C1A1A" stroke="#1C1A1A" stroke-width="0.75" stroke-linecap="round" stroke-linejoin="round"/>
<path d="M215.68 184.534L259.64 236.064L206.28 248.494L175.96 190.894L215.68 184.534Z" fill="white" stroke="#1C1A1A" stroke-width="0.75" stroke-linecap="round" stroke-linejoin="round"/>
<path d="M206.28 248.494V250.014L258.73 239.404L259.64 236.064L206.28 248.494Z" fill="#1C1A1A" stroke="#1C1A1A" stroke-width="0.75" stroke-linecap="round" stroke-linejoin="round"/>
<path d="M214.02 203.074L216.27 206.394L221.99 204.844L219.61 201.604L214.02 203.074Z" fill="#1C1A1A"/>
<path d="M235.67 223.384L232.95 219.704L226.45 221.454L228.99 225.214L235.67 223.384Z" fill="#1C1A1A"/>
<path d="M209.35 196.154L211.02 198.634L216.4 197.264L214.71 194.964L209.35 196.154Z" fill="#1C1A1A"/>
<path d="M219.71 211.484L222.79 216.044L229.08 214.454L225.68 209.844L219.71 211.484Z" fill="#1C1A1A"/>
<path d="M235.999 213.624L230.609 214.994L233.309 218.654L238.799 217.174L235.999 213.624Z" fill="#1C1A1A"/>
<path d="M223.34 216.844L225.91 220.664L232.37 218.914L229.66 215.234L223.34 216.844Z" fill="#1C1A1A"/>
<path d="M203.26 197.504L204.92 200.184L210.08 198.864L208.39 196.364L203.26 197.504Z" fill="#1C1A1A"/>
<path d="M216.8 207.184L219.18 210.694L225.1 209.054L222.57 205.624L216.8 207.184Z" fill="#1C1A1A"/>
<path d="M211.56 199.424L213.48 202.274L219.02 200.814L216.98 198.044L211.56 199.424Z" fill="#1C1A1A"/>
<path d="M199.919 205.854L198.239 202.824L192.109 204.384L193.819 207.464L199.919 205.854Z" fill="#1C1A1A"/>
<path d="M191.109 213.184L195.32 212.054L193.369 208.534L189.229 209.624L191.109 213.184Z" fill="#1C1A1A"/>
<path d="M201.439 194.564L202.749 196.684L207.839 195.554L206.469 193.534L201.439 194.564Z" fill="#1C1A1A"/>
<path d="M197.78 201.994L196.16 199.074L189.93 200.444L191.65 203.554L197.78 201.994Z" fill="#1C1A1A"/>
<path d="M195.39 195.794L196.63 198.034L201.81 196.894L200.48 194.754L195.39 195.794Z" fill="#1C1A1A"/>
<path d="M186.68 204.824L190.74 203.784L189 200.654L184.95 201.544L186.68 204.824Z" fill="#1C1A1A"/>
<path d="M188.17 197.274L189.47 199.614L195.7 198.244L194.45 195.984L188.17 197.274Z" fill="#1C1A1A"/>
<path d="M207.74 204.734L209.84 208.124L215.34 206.644L213.09 203.324L207.74 204.734Z" fill="#1C1A1A"/>
<path d="M221.86 216.284L218.79 211.744L213.06 213.324L215.84 217.814L221.86 216.284Z" fill="#1C1A1A"/>
<path d="M197.09 198.864L198.69 201.764L203.99 200.414L202.32 197.714L197.09 198.864Z" fill="#1C1A1A"/>
<path d="M198.29 217.394L193.97 218.584L196.21 222.814L200.66 221.684L198.29 217.394Z" fill="#1C1A1A"/>
<path d="M210.34 208.934L212.56 212.514L218.25 210.954L215.88 207.434L210.34 208.934Z" fill="#1C1A1A"/>
<path d="M206.319 204.174L204.489 201.224L199.149 202.584L200.829 205.624L206.319 204.174Z" fill="#1C1A1A"/>
<path d="M216.35 235.524L210.24 237.084L212.42 241.014L218.55 239.504L216.35 235.524Z" fill="#1C1A1A"/>
<path d="M206.89 192.524L212.12 191.454L209.31 187.634L204.16 188.484L206.89 192.524Z" fill="#1C1A1A"/>
<path d="M193.99 195.154L191.46 190.584L185.05 191.644L187.71 196.444L193.99 195.154Z" fill="#1C1A1A"/>
<path d="M202.31 210.164L200.38 206.674L194.28 208.284L196.23 211.804L202.31 210.164Z" fill="#1C1A1A"/>
<path d="M217.88 222.834L215.42 218.864L209.06 220.484L211.34 224.604L217.88 222.834Z" fill="#1C1A1A"/>
<path d="M214.919 218.054L212.139 213.574L206.149 215.224L208.599 219.654L214.919 218.054Z" fill="#1C1A1A"/>
<path d="M224.98 220.914L222.4 217.084L216.34 218.624L218.8 222.584L224.98 220.914Z" fill="#1C1A1A"/>
<path d="M208.92 208.374L206.82 204.974L201.28 206.444L203.21 209.914L208.92 208.374Z" fill="#1C1A1A"/>
<path d="M205.42 200.994L207.24 203.924L212.55 202.524L210.62 199.664L205.42 200.994Z" fill="#1C1A1A"/>
<path d="M211.64 212.774L209.42 209.184L203.66 210.734L205.7 214.414L211.64 212.774Z" fill="#1C1A1A"/>
<path d="M228.07 225.474L225.52 221.714L219.3 223.394L221.67 227.224L228.07 225.474Z" fill="#1C1A1A"/>
<path d="M223.96 232.644L221.25 228.274L214.41 230.154L216.81 234.464L223.96 232.644Z" fill="#1C1A1A"/>
<path d="M203.459 226.734L201.119 222.504L196.649 223.644L198.929 227.964L203.459 226.734Z" fill="#1C1A1A"/>
<path d="M195.78 212.874L191.55 214.014L193.54 217.764L197.83 216.584L195.78 212.874Z" fill="#1C1A1A"/>
<path d="M215.89 234.704L213.51 230.394L207.45 232.054L209.78 236.254L215.89 234.704Z" fill="#1C1A1A"/>
<path d="M204.79 214.654L202.76 210.984L196.68 212.624L198.74 216.334L204.79 214.654Z" fill="#1C1A1A"/>
<path d="M207.439 193.334L208.799 195.344L214.119 194.164L212.709 192.254L207.439 193.334Z" fill="#1C1A1A"/>
<path d="M184.51 200.714L188.54 199.824L187.24 197.464L183.22 198.284L184.51 200.714Z" fill="#1C1A1A"/>
<path d="M200.92 193.734L205.92 192.714L203.17 188.644L198.27 189.454L200.92 193.734Z" fill="#1C1A1A"/>
<path d="M194.93 194.964L199.98 193.934L197.3 189.614L192.41 190.424L194.93 194.964Z" fill="#1C1A1A"/>
<path d="M192.92 207.714L191.2 204.614L187.12 205.654L188.79 208.794L192.92 207.714Z" fill="#1C1A1A"/>
<path d="M213.1 191.254L217.62 190.324L214.78 186.734L210.31 187.464L213.1 191.254Z" fill="#1C1A1A"/>
<path d="M186.77 196.634L184.09 191.794L180.13 192.454L182.78 197.444L186.77 196.634Z" fill="#1C1A1A"/>
<path d="M209.33 237.314L204.53 238.534L206.61 242.454L211.51 241.244L209.33 237.314Z" fill="#1C1A1A"/>
<path d="M232.14 231.494L225.38 233.214L227.85 237.204L234.83 235.474L232.14 231.494Z" fill="#1C1A1A"/>
<path d="M224.46 233.454L217.26 235.284L219.47 239.274L226.92 237.434L224.46 233.454Z" fill="#1C1A1A"/>
<path d="M240.14 229.454L233.08 231.254L235.77 235.244L243.08 233.434L240.14 229.454Z" fill="#1C1A1A"/>
<path d="M247.09 227.684L241.09 229.214L244.04 233.204L250.24 231.664L247.09 227.684Z" fill="#1C1A1A"/>
<path d="M206.549 232.304L201.899 233.574L204.089 237.714L208.869 236.494L206.549 232.304Z" fill="#1C1A1A"/>
<path d="M220.75 227.474L218.38 223.644L211.8 225.424L213.96 229.334L220.75 227.474Z" fill="#1C1A1A"/>
<path d="M231.6 230.694L228.6 226.264L222.17 228.024L224.88 232.404L231.6 230.694Z" fill="#1C1A1A"/>
<path d="M213.06 229.574L210.89 225.664L204.82 227.314L207 231.234L213.06 229.574Z" fill="#1C1A1A"/>
<path d="M201.47 232.754L206.1 231.484L203.92 227.554L199.37 228.784L201.47 232.754Z" fill="#1C1A1A"/>
<path d="M207.689 219.894L205.249 215.474L199.189 217.144L201.569 221.444L207.689 219.894Z" fill="#1C1A1A"/>
<path d="M239.56 228.664L236.25 224.174L229.53 226.014L232.54 230.454L239.56 228.664Z" fill="#1C1A1A"/>
<path d="M210.44 224.844L208.15 220.714L202.03 222.274L204.37 226.494L210.44 224.844Z" fill="#1C1A1A"/>
<path d="M226.62 209.584L230.03 214.204L235.38 212.844L231.7 208.184L226.62 209.584Z" fill="#1C1A1A"/>
<path d="M219.969 200.564L224.709 199.314L222.579 196.624L217.939 197.804L219.969 200.564Z" fill="#1C1A1A"/>
<path d="M215.689 194.754L217.349 197.014L221.969 195.844L220.299 193.734L215.689 194.754Z" fill="#1C1A1A"/>
<path d="M246.469 226.904L242.889 222.354L237.189 223.914L240.509 228.424L246.469 226.904Z" fill="#1C1A1A"/>
<path d="M220.55 201.354L222.94 204.584L227.82 203.264L225.32 200.094L220.55 201.354Z" fill="#1C1A1A"/>
<path d="M233.89 219.444L236.61 223.134L242.28 221.584L239.41 217.954L233.89 219.444Z" fill="#1C1A1A"/>
<path d="M215.09 193.954L219.68 192.944L218.25 191.124L213.7 192.054L215.09 193.954Z" fill="#1C1A1A"/>
<path d="M226.04 208.804L231.09 207.404L228.44 204.044L223.52 205.374L226.04 208.804Z" fill="#1C1A1A"/>
<path d="M266.609 190.294V198.474C265.779 199.277 264.863 199.988 263.879 200.594C262.369 201.504 249.939 203.594 249.939 203.594L265.699 220.884C265.699 220.884 280.149 219.304 284.199 218.154C288.439 216.934 287.529 201.474 287.529 201.474L266.609 190.294Z" fill="white" stroke="#1C1A1A" stroke-width="0.75" stroke-linecap="round" stroke-linejoin="round"/>
<path d="M266.61 190.294V198.474C266.61 198.474 266.39 198.694 266.03 199.014L284.46 218.074C288.4 216.304 287.53 201.504 287.53 201.504L266.61 190.294Z" fill="#1C1A1A" stroke="#1C1A1A" stroke-width="0.75" stroke-linecap="round" stroke-linejoin="round"/>
<path d="M238.72 85.6938V172.404L304.81 224.544V90.5439L238.72 85.6938Z" fill="white" stroke="#1C1A1A" stroke-width="0.75" stroke-linecap="round" stroke-linejoin="round"/>
<path d="M243.27 90.2439V163.304L298.75 197.564V95.0939L243.27 90.2439Z" fill="#22FF01" stroke="#1C1A1A" stroke-width="0.75" stroke-linecap="round" stroke-linejoin="round"/>
<path d="M311.48 90.5438H304.81V224.574H311.48V90.5438Z" fill="#1C1A1A" stroke="#1C1A1A" stroke-width="0.75" stroke-linecap="round" stroke-linejoin="round"/>
<path d="M246.91 94.7938L247.21 159.974L293.59 186.344V105.634L261.76 100.814L259.64 96.3038L246.91 94.7938Z" fill="white" stroke="#1C1A1A" stroke-width="0.75" stroke-linecap="round" stroke-linejoin="round"/>
<path d="M249.939 102.674V158.154L290.869 179.984V109.954L249.939 102.674Z" fill="#22FF01" stroke="#1C1A1A" stroke-width="0.75" stroke-linecap="round" stroke-linejoin="round"/>
<path d="M273.878 156.825C279.653 154.886 282.168 146.863 279.496 138.905C276.824 130.947 269.976 126.068 264.201 128.007C258.427 129.945 255.911 137.969 258.583 145.927C261.255 153.885 268.103 158.764 273.878 156.825Z" fill="#1C1A1A"/>
<path d="M270.25 143.324L274.14 139.014C274.402 138.63 274.537 138.173 274.524 137.708C274.511 137.242 274.352 136.793 274.07 136.424C273.49 135.594 272.58 135.424 272.07 136.014L268.33 140.164L264.58 134.164C264.04 133.294 263.13 133.024 262.58 133.564C262.29 133.922 262.125 134.365 262.111 134.825C262.096 135.286 262.233 135.738 262.5 136.114L266.39 142.364L262.43 146.654C262.167 147.038 262.034 147.496 262.048 147.962C262.062 148.427 262.224 148.876 262.51 149.244C262.738 149.606 263.096 149.867 263.51 149.974C263.69 150.018 263.878 150.012 264.055 149.956C264.232 149.899 264.389 149.795 264.51 149.654L268.26 145.504L272 151.504C272.23 151.912 272.61 152.213 273.06 152.344C273.232 152.398 273.417 152.405 273.593 152.362C273.769 152.32 273.93 152.231 274.06 152.104C274.347 151.744 274.509 151.301 274.521 150.841C274.534 150.381 274.396 149.929 274.13 149.554L270.25 143.324Z" fill="white"/>
<path d="M257.21 121.474L280.13 128.204" stroke="#1C1A1A" stroke-width="0.75" stroke-linecap="round" stroke-linejoin="round"/>
<path d="M256.3 115.104L286.01 123.394" stroke="#1C1A1A" stroke-width="0.75" stroke-linecap="round" stroke-linejoin="round"/>
<path d="M276.78 257.964C276.78 257.964 262.29 259.304 256.93 263.594C251.57 267.884 255.59 270.034 260.68 271.374C265.77 272.714 288.58 270.564 291.53 267.614C294.48 264.664 291.53 257.424 276.78 257.964Z" fill="white" stroke="#1C1A1A" stroke-width="0.75" stroke-linecap="round" stroke-linejoin="round"/>
<path d="M291.529 267.654C292.099 267.085 292.453 266.335 292.529 265.534C286.039 265.214 277.529 267.094 269.799 269.534C267.19 270.364 264.54 271.062 261.859 271.624C268.599 272.434 288.769 270.374 291.529 267.654Z" fill="#1C1A1A" stroke="#1C1A1A" stroke-width="0.75" stroke-linecap="round" stroke-linejoin="round"/>
<path d="M225.41 98.8138L236 104.324" stroke="#1C1A1A" stroke-linecap="round" stroke-linejoin="round"/>
<path d="M219.33 95.6538L222.48 97.2938" stroke="#1C1A1A" stroke-linecap="round" stroke-linejoin="round"/>
<path d="M227.74 126.574L231.33 126.984" stroke="#1C1A1A" stroke-linecap="round" stroke-linejoin="round"/>
<path d="M214 124.984L223.68 126.104" stroke="#1C1A1A" stroke-linecap="round" stroke-linejoin="round"/>
<path d="M230 152.324L218 155.654" stroke="#1C1A1A" stroke-linecap="round" stroke-linejoin="round"/>
<path d="M214.511 5.65381C208.834 5.65381 203.285 7.33703 198.566 10.4906C193.846 13.6442 190.167 18.1265 187.995 23.3708C185.823 28.615 185.255 34.3856 186.362 39.9529C187.469 45.5202 190.203 50.634 194.217 54.6478C198.23 58.6615 203.344 61.395 208.911 62.5023C214.479 63.6097 220.249 63.0414 225.494 60.8692C230.738 58.6969 235.22 55.0184 238.374 50.2987C241.527 45.579 243.211 40.0301 243.211 34.3538C243.211 26.7421 240.187 19.4421 234.805 14.0598C229.422 8.67755 222.122 5.65381 214.511 5.65381ZM214.511 57.4138C209.95 57.4118 205.493 56.0577 201.702 53.5226C197.911 50.9876 194.957 47.3854 193.213 43.1716C191.469 38.9577 191.014 34.3214 191.905 29.8489C192.796 25.3763 194.993 21.2684 198.218 18.0444C201.444 14.8204 205.553 12.6251 210.025 11.7362C214.498 10.8472 219.134 11.3045 223.348 13.0501C227.561 14.7958 231.162 17.7514 233.695 21.5434C236.228 25.3354 237.581 29.7934 237.581 34.3538C237.586 37.3858 236.993 40.3891 235.836 43.1916C234.678 45.9941 232.98 48.5407 230.836 50.6856C228.693 52.8305 226.148 54.5315 223.347 55.6912C220.545 56.8509 217.543 57.4464 214.511 57.4438V57.4138Z" fill="#1C1A1A"/>
<path d="M216.56 34.3838C216.57 34.7912 216.459 35.1924 216.239 35.536C216.02 35.8796 215.704 36.1502 215.33 36.313C214.956 36.4759 214.543 36.5237 214.142 36.4503C213.741 36.3769 213.371 36.1858 213.079 35.9012C212.788 35.6165 212.587 35.2514 212.504 34.8525C212.421 34.4535 212.458 34.0388 212.612 33.6613C212.766 33.2838 213.028 32.9606 213.366 32.7331C213.704 32.5055 214.103 32.3839 214.51 32.3838C215.045 32.3836 215.559 32.5927 215.943 32.9664C216.326 33.3401 216.547 33.8488 216.56 34.3838Z" fill="#1C1A1A"/>
<path d="M207.641 44.7938L214.511 34.3838L226.121 43.9938" stroke="#1C1A1A" stroke-linecap="round" stroke-linejoin="round"/>
<path d="M62.2098 56.3837L58.7598 46.9537L60.5998 49.0237V45.8036L64.5098 51.7837L61.0598 30.3937L65.6598 42.1237L66.1198 31.7737L66.8098 35.2237L67.7298 23.4937L69.3398 41.4337L71.6398 35.2237L71.1798 43.2737L77.3898 24.8737L74.3998 47.8737L78.7698 44.6537L76.2398 48.7937L79.4598 46.4937L75.7898 57.0737L62.4398 57.3036" fill="#22FF01"/>
<path d="M76.97 79.6136H62.59L58.71 54.6936H80.84L76.97 79.6136Z" fill="#1C1A1A" stroke="#1C1A1A" stroke-linecap="round" stroke-linejoin="round"/>
<path d="M116.34 79.4436H43.75V272.554H116.34V79.4436Z" fill="white" stroke="#1C1A1A" stroke-linecap="round" stroke-linejoin="round"/>
<path d="M111.4 85.7837H47.9697V132.294H111.4V85.7837Z" stroke="#1C1A1A" stroke-linecap="round" stroke-linejoin="round"/>
<path d="M92.37 104.814H67V113.274H92.37V104.814Z" fill="#1C1A1A"/>
<path d="M111.4 140.054H47.9697V186.564H111.4V140.054Z" stroke="#1C1A1A" stroke-linecap="round" stroke-linejoin="round"/>
<path d="M92.37 159.084H67V167.544H92.37V159.084Z" fill="#1C1A1A"/>
<path d="M111.4 194.314H47.9697V240.824H111.4V194.314Z" stroke="#1C1A1A" stroke-linecap="round" stroke-linejoin="round"/>
<path d="M92.37 213.344H67V221.804H92.37V213.344Z" fill="#1C1A1A"/>
<mask id="mask0_1166_483" style="mask-type:luminance" maskUnits="userSpaceOnUse" x="0" y="45" width="230" height="229">
<path d="M230 45.6538H0V273.654H230V45.6538Z" fill="white"/>
</mask>
<g mask="url(#mask0_1166_483)">
<path d="M124.12 261.534C124.12 261.534 160.5 245.464 180.06 244.254L194.33 275.784H86.5498L124.12 261.534Z" fill="#1C1A1A" stroke="#1C1A1A" stroke-width="0.75" stroke-linecap="round" stroke-linejoin="round"/>
<path d="M168.4 71.5537C168.4 71.5537 194.01 101.974 199.4 107.554C204.79 113.134 204.99 117.184 203.25 119.684C201.51 122.184 188.43 126.814 174.95 135.474C161.47 144.134 123.15 166.474 122.77 167.254C122.39 168.034 118.72 140.254 118.72 140.254L182.84 113.874L182.65 111.944L161.85 73.4337L168.4 71.5537Z" fill="white"/>
<mask id="mask1_1166_483" style="mask-type:luminance" maskUnits="userSpaceOnUse" x="118" y="71" width="87" height="97">
<path d="M168.4 71.5537C168.4 71.5537 194.01 101.974 199.4 107.554C204.79 113.134 204.99 117.184 203.25 119.684C201.51 122.184 188.43 126.814 174.95 135.474C161.47 144.134 123.15 166.474 122.77 167.254C122.39 168.034 118.72 140.254 118.72 140.254L182.84 113.874L182.65 111.944L161.85 73.4337L168.4 71.5537Z" fill="white"/>
</mask>
<g mask="url(#mask1_1166_483)">
<path d="M193.05 116.454L163.33 73.0537L161.9 73.4737L182.7 111.984L182.89 113.914L118.77 140.294C118.77 140.294 118.84 140.774 118.94 141.584L123.12 151.174L193.05 116.454Z" fill="#22FF01"/>
<path opacity="0.5" d="M193.05 116.454L163.33 73.0537L161.9 73.4737L182.7 111.984L182.89 113.914L118.77 140.294C118.77 140.294 118.84 140.774 118.94 141.584L123.12 151.174L193.05 116.454Z" fill="white"/>
</g>
<path d="M168.4 71.5537C168.4 71.5537 194.01 101.974 199.4 107.554C204.79 113.134 204.99 117.184 203.25 119.684C201.51 122.184 188.43 126.814 174.95 135.474C161.47 144.134 123.15 166.474 122.77 167.254C122.39 168.034 118.72 140.254 118.72 140.254L182.84 113.874L182.65 111.944L161.85 73.4337L168.4 71.5537Z" stroke="#1C1A1A" stroke-width="0.75" stroke-linecap="round" stroke-linejoin="round"/>
<path d="M147.99 58.2637C147.99 58.2637 144.91 55.5637 143.37 58.2637C141.83 60.9637 141.64 65.3837 142.6 65.7737C143.56 66.1637 147.41 65.5837 147.99 64.4237C148.57 63.2637 147.99 58.2637 147.99 58.2637Z" fill="white" stroke="#1C1A1A" stroke-width="0.75" stroke-linecap="round" stroke-linejoin="round"/>
<path d="M153.38 56.9138C153.38 56.9138 150.11 53.4538 147.99 54.7938C145.87 56.1338 146.45 63.4638 147.22 64.0438C147.99 64.6238 152.61 63.0438 153.22 62.1138C153.83 61.1838 153.38 56.9138 153.38 56.9138Z" fill="white" stroke="#1C1A1A" stroke-width="0.75" stroke-linecap="round" stroke-linejoin="round"/>
<path d="M160.701 57.1038C160.701 57.1038 157.811 53.1038 155.121 53.1038C152.431 53.1038 150.491 62.7338 151.461 63.5038C152.431 64.2738 158.771 63.3138 159.161 62.7338C159.778 60.8871 160.292 59.0076 160.701 57.1038Z" fill="white" stroke="#1C1A1A" stroke-width="0.75" stroke-linecap="round" stroke-linejoin="round"/>
<path d="M166.331 63.6538C166.331 62.5038 165.761 52.4838 162.331 53.0638C158.901 53.6438 155.211 61.7338 155.401 63.0638C155.591 64.3938 166.331 63.6538 166.331 63.6538Z" fill="white" stroke="#1C1A1A" stroke-width="0.75" stroke-linecap="round" stroke-linejoin="round"/>
<path d="M182.84 113.914C182.84 113.914 192.66 117.574 196.32 117.374Z" fill="white"/>
<path d="M182.84 113.914C182.84 113.914 192.66 117.574 196.32 117.374" stroke="#1C1A1A" stroke-width="0.75" stroke-linecap="round" stroke-linejoin="round"/>
<path d="M102.09 276.044C112.55 274.284 125.951 267.094 129.941 258.044C126.941 242.354 123.151 220.254 123.151 206.734C123.151 184.014 129.151 171.114 126.421 155.734C123.691 140.354 117.951 130.324 111.791 126.274C111.791 126.274 102.36 128.774 92.7305 137.824C83.1005 146.874 74.6305 162.434 71.3305 177.264C68.0305 192.094 63.6305 237.724 63.6305 249.664C63.6305 261.604 62.7705 276.424 62.7705 276.424C74.3005 276.424 85.8305 276.424 97.3605 276.424C98.9454 276.439 100.528 276.312 102.09 276.044Z" fill="white"/>
<mask id="mask2_1166_483" style="mask-type:luminance" maskUnits="userSpaceOnUse" x="62" y="126" width="68" height="151">
<path d="M102.09 276.044C112.55 274.284 125.951 267.094 129.941 258.044C126.941 242.354 123.151 220.254 123.151 206.734C123.151 184.014 129.151 171.114 126.421 155.734C123.691 140.354 117.951 130.324 111.791 126.274C111.791 126.274 102.36 128.774 92.7305 137.824C83.1005 146.874 74.6305 162.434 71.3305 177.264C68.0305 192.094 63.6305 237.724 63.6305 249.664C63.6305 261.604 62.7705 276.424 62.7705 276.424C74.3005 276.424 85.8305 276.424 97.3605 276.424C98.9454 276.439 100.528 276.312 102.09 276.044Z" fill="white"/>
</mask>
<g mask="url(#mask2_1166_483)">
<path d="M129.941 258.034C124.081 263.034 97.6905 272.744 93.8405 273.604C89.9905 274.464 92.1305 266.324 98.1205 258.194C104.11 250.064 90.8405 261.194 88.7005 262.044C86.5605 262.894 89.5605 246.204 89.5605 238.044C89.5605 229.884 97.2705 160.564 97.2705 160.564L111.821 134.014L116.821 131.014C115.424 129.157 113.735 127.54 111.821 126.224C111.821 126.224 102.39 128.724 92.7605 137.774C83.1305 146.824 74.6305 162.434 71.3305 177.264C68.0305 192.094 63.6305 237.724 63.6305 249.664C63.6305 261.604 62.7705 276.424 62.7705 276.424C74.3005 276.424 85.8305 276.424 97.3605 276.424C98.9399 276.425 100.516 276.284 102.071 276.004C112.551 274.284 125.951 267.094 129.941 258.034Z" fill="#22FF01"/>
<path opacity="0.5" d="M129.941 258.034C124.081 263.034 97.6905 272.744 93.8405 273.604C89.9905 274.464 92.1305 266.324 98.1205 258.194C104.11 250.064 90.8405 261.194 88.7005 262.044C86.5605 262.894 89.5605 246.204 89.5605 238.044C89.5605 229.884 97.2705 160.564 97.2705 160.564L111.821 134.014L116.821 131.014C115.424 129.157 113.735 127.54 111.821 126.224C111.821 126.224 102.39 128.724 92.7605 137.774C83.1305 146.824 74.6305 162.434 71.3305 177.264C68.0305 192.094 63.6305 237.724 63.6305 249.664C63.6305 261.604 62.7705 276.424 62.7705 276.424C74.3005 276.424 85.8305 276.424 97.3605 276.424C98.9399 276.425 100.516 276.284 102.071 276.004C112.551 274.284 125.951 267.094 129.941 258.034Z" fill="white"/>
</g>
<path d="M102.09 276.044C112.55 274.284 125.951 267.094 129.941 258.044C126.941 242.354 123.151 220.254 123.151 206.734C123.151 184.014 129.151 171.114 126.421 155.734C123.691 140.354 117.951 130.324 111.791 126.274C111.791 126.274 102.36 128.774 92.7305 137.824C83.1005 146.874 74.6305 162.434 71.3305 177.264C68.0305 192.094 63.6305 237.724 63.6305 249.664C63.6305 261.604 62.7705 276.424 62.7705 276.424C74.3005 276.424 85.8305 276.424 97.3605 276.424C98.9454 276.439 100.528 276.312 102.09 276.044Z" stroke="#1C1A1A" stroke-width="0.75" stroke-linecap="round" stroke-linejoin="round"/>
<path d="M111.23 129.814L127.77 159.934L128.66 176.454C128.66 176.454 133.27 164.674 131.22 156.984C129.17 149.294 111.23 129.814 111.23 129.814Z" fill="#1C1A1A" stroke="#1C1A1A" stroke-width="0.75" stroke-linecap="round" stroke-linejoin="round"/>
<path d="M128.65 176.464L124.04 246.174L129.17 260.524L132.76 231.814L129.68 174.404L128.65 176.464Z" fill="#1C1A1A" stroke="#1C1A1A" stroke-width="0.75" stroke-linecap="round" stroke-linejoin="round"/>
<path d="M124.11 101.584C124.11 101.584 124.69 109.094 125.27 112.754C125.85 116.414 116.8 126.654 116.8 126.654L129.89 146.484L144.72 134.934C144.72 134.934 165.72 133.394 167.63 131.654C169.54 129.914 169.56 110.864 169.56 110.864L174.56 107.974C174.56 107.974 169.94 87.9737 168.79 83.5137L167.63 79.0937C167.63 79.0937 174.37 76.7737 172.83 70.0937C171.29 63.4137 161.47 60.0937 151.65 61.6137C141.83 63.1337 139.33 66.8137 139.33 66.8137C139.33 66.8137 125.46 66.6237 117.57 73.1737C109.68 79.7237 114.49 90.1137 116.99 93.7737C119.117 96.5911 121.501 99.2055 124.11 101.584Z" fill="white"/>
<mask id="mask3_1166_483" style="mask-type:luminance" maskUnits="userSpaceOnUse" x="113" y="61" width="62" height="86">
<path d="M124.11 101.584C124.11 101.584 124.69 109.094 125.27 112.754C125.85 116.414 116.8 126.654 116.8 126.654L129.89 146.484L144.72 134.934C144.72 134.934 165.72 133.394 167.63 131.654C169.54 129.914 169.56 110.864 169.56 110.864L174.56 107.974C174.56 107.974 169.94 87.9737 168.79 83.5137L167.63 79.0937C167.63 79.0937 174.37 76.7737 172.83 70.0937C171.29 63.4137 161.47 60.0937 151.65 61.6137C141.83 63.1337 139.33 66.8137 139.33 66.8137C139.33 66.8137 125.46 66.6237 117.57 73.1737C109.68 79.7237 114.49 90.1137 116.99 93.7737C119.117 96.5911 121.501 99.2055 124.11 101.584Z" fill="white"/>
</mask>
<g mask="url(#mask3_1166_483)">
<path d="M147.33 128.484C143.48 123.774 147.33 105.794 150.33 96.8037C153.33 87.8137 146.05 83.9637 146.05 83.9637L167.91 80.1937L167.61 79.0637C169.088 78.486 170.403 77.5556 171.44 76.3537L172.62 69.4037C170.62 63.0837 161.15 60.0437 151.62 61.5337C141.8 63.0737 139.3 66.7337 139.3 66.7337C139.3 66.7337 125.43 66.5437 117.54 73.0937C109.65 79.6437 114.46 90.0337 116.96 93.6937C119.083 96.5389 121.467 99.1802 124.08 101.584C124.08 101.584 124.66 109.094 125.24 112.754C125.82 116.414 116.8 126.654 116.8 126.654L129.89 146.484L144.72 134.934C144.72 134.934 160.72 133.754 166.08 132.304L167.63 131.654C167.63 131.654 151.2 133.194 147.33 128.484Z" fill="#22FF01"/>
<path opacity="0.5" d="M147.33 128.484C143.48 123.774 147.33 105.794 150.33 96.8037C153.33 87.8137 146.05 83.9637 146.05 83.9637L167.91 80.1937L167.61 79.0637C169.088 78.486 170.403 77.5556 171.44 76.3537L172.62 69.4037C170.62 63.0837 161.15 60.0437 151.62 61.5337C141.8 63.0737 139.3 66.7337 139.3 66.7337C139.3 66.7337 125.43 66.5437 117.54 73.0937C109.65 79.6437 114.46 90.0337 116.96 93.6937C119.083 96.5389 121.467 99.1802 124.08 101.584C124.08 101.584 124.66 109.094 125.24 112.754C125.82 116.414 116.8 126.654 116.8 126.654L129.89 146.484L144.72 134.934C144.72 134.934 160.72 133.754 166.08 132.304L167.63 131.654C167.63 131.654 151.2 133.194 147.33 128.484Z" fill="white"/>
<path d="M158.58 92.7337C158.58 92.7337 158.58 92.4337 158.58 91.9637C158.58 90.4737 158.83 87.2537 161.32 86.3737C164.59 85.2237 167.32 88.3037 167.32 88.3037L167.51 91.3837C167.04 90.7956 166.421 90.3431 165.718 90.0725C165.016 89.8019 164.253 89.723 163.51 89.8437C161.596 90.2459 159.866 91.2604 158.58 92.7337Z" fill="#1C1A1A"/>
<path d="M164.17 98.8937C164.17 100.484 163.73 101.784 163.17 101.784C162.61 101.784 162.17 100.484 162.17 98.8937C162.17 97.3037 162.6 96.0037 163.17 96.0037C163.74 96.0037 164.17 97.2937 164.17 98.8937Z" fill="#1C1A1A"/>
<path d="M158.1 119.064C157.03 120.174 155.6 120.534 154.91 119.874C154.22 119.214 154.53 117.764 155.6 116.654C156.67 115.544 158.09 115.184 158.78 115.844C159.47 116.504 159.17 117.954 158.1 119.064Z" fill="#1C1A1A"/>
</g>
<path d="M124.11 101.584C124.11 101.584 124.69 109.094 125.27 112.754C125.85 116.414 116.8 126.654 116.8 126.654L129.89 146.484L144.72 134.934C144.72 134.934 165.72 133.394 167.63 131.654C169.54 129.914 169.56 110.864 169.56 110.864L174.56 107.974C174.56 107.974 169.94 87.9737 168.79 83.5137L167.63 79.0937C167.63 79.0937 174.37 76.7737 172.83 70.0937C171.29 63.4137 161.47 60.0937 151.65 61.6137C141.83 63.1337 139.33 66.8137 139.33 66.8137C139.33 66.8137 125.46 66.6237 117.57 73.1737C109.68 79.7237 114.49 90.1137 116.99 93.7737C119.117 96.5911 121.501 99.2055 124.11 101.584Z" stroke="#1C1A1A" stroke-width="0.75" stroke-linecap="round" stroke-linejoin="round"/>
<path d="M142.601 82.7137C146.071 80.4037 167.601 79.0637 167.601 79.0637C167.601 79.0637 174.341 76.7437 172.801 70.0637C171.261 63.3837 161.441 60.0637 151.621 61.5837C141.801 63.1037 139.301 66.7837 139.301 66.7837C139.301 66.7837 125.431 66.5937 117.541 73.1437C109.651 79.6937 114.461 90.0837 116.961 93.7437C119.084 96.5888 121.468 99.2302 124.081 101.634C124.081 101.634 124.401 105.754 124.801 109.384L130.801 111.074L137.351 107.604L143.901 106.064C143.901 106.064 139.081 102.404 141.781 98.9437C144.481 95.4837 149.481 94.3237 149.671 91.6237C149.861 88.9237 139.131 85.0237 142.601 82.7137Z" fill="#1C1A1A" stroke="#1C1A1A" stroke-width="0.75" stroke-linecap="round" stroke-linejoin="round"/>
<path d="M163.62 71.5238C163.62 71.5238 161.36 67.3838 165.5 68.1338C169.64 68.8838 169.64 76.0438 166.25 77.5438C162.86 79.0438 144.42 75.6638 134.25 78.6738C124.08 81.6838 116.94 89.9638 116.94 89.9638" stroke="white" stroke-miterlimit="10" stroke-linecap="round"/>
<path d="M122.59 96.3638C122.59 96.3638 130.5 89.5938 136.89 88.4638C143.28 87.3338 146.68 87.3338 139.53 91.4638C132.38 95.5938 137.27 94.8438 141.79 93.3438" stroke="white" stroke-miterlimit="10" stroke-linecap="round"/>
<path d="M139.13 111.214C139.13 111.214 137.98 99.0837 132.01 98.7037C126.04 98.3237 126.23 106.984 128.01 112.954C129.79 118.924 134.01 120.844 137.44 117.764" fill="#22FF01"/>
<mask id="mask4_1166_483" style="mask-type:luminance" maskUnits="userSpaceOnUse" x="126" y="98" width="14" height="22">
<path d="M139.13 111.214C139.13 111.214 137.98 99.0837 132.01 98.7037C126.04 98.3237 126.23 106.984 128.01 112.954C129.79 118.924 134.01 120.844 137.44 117.764" fill="white"/>
</mask>
<g mask="url(#mask4_1166_483)">
<g opacity="0.5">
<path d="M139.13 111.214C139.13 111.214 137.98 99.0837 132.01 98.7037C126.04 98.3237 126.23 106.984 128.01 112.954C129.79 118.924 134.01 120.844 137.44 117.764" fill="white"/>
<path d="M139.13 111.214C139.13 111.214 137.98 99.0837 132.01 98.7037C126.04 98.3237 126.23 106.984 128.01 112.954C129.79 118.924 134.01 120.844 137.44 117.764" stroke="#1C1A1A" stroke-width="0.75" stroke-linecap="round" stroke-linejoin="round"/>
</g>
</g>
<path d="M139.13 111.214C139.13 111.214 137.98 99.0837 132.01 98.7037C126.04 98.3237 126.23 106.984 128.01 112.954C129.79 118.924 134.01 120.844 137.44 117.764" stroke="#1C1A1A" stroke-width="0.75" stroke-linecap="round" stroke-linejoin="round"/>
<path d="M117.33 119.304L136.59 148.574L127.73 159.934C123.74 152.236 119.306 144.777 114.45 137.594C107.9 128.354 107.13 126.814 107.13 126.814L117.33 119.304Z" fill="white"/>
<mask id="mask5_1166_483" style="mask-type:luminance" maskUnits="userSpaceOnUse" x="107" y="119" width="30" height="41">
<path d="M117.33 119.304L136.59 148.574L127.73 159.934C123.74 152.236 119.306 144.777 114.45 137.594C107.9 128.354 107.13 126.814 107.13 126.814L117.33 119.304Z" fill="white"/>
</mask>
<g mask="url(#mask5_1166_483)">
<path d="M117.33 119.304L107.13 126.814C107.13 126.814 107.7 127.944 111.9 133.974L122.68 127.434L117.33 119.304Z" fill="#22FF01"/>
<path opacity="0.5" d="M117.33 119.304L107.13 126.814C107.13 126.814 107.7 127.944 111.9 133.974L122.68 127.434L117.33 119.304Z" fill="white"/>
</g>
<path d="M117.33 119.304L136.59 148.574L127.73 159.934C123.74 152.236 119.306 144.777 114.45 137.594C107.9 128.354 107.13 126.814 107.13 126.814L117.33 119.304Z" stroke="#1C1A1A" stroke-width="0.75" stroke-linecap="round" stroke-linejoin="round"/>
<path d="M166.86 192.094C166.86 192.094 169.94 185.734 170.52 181.694C171.1 177.654 171.29 175.334 173.6 173.414C175.91 171.494 183.42 163.784 184.6 160.894C185.78 158.004 186.52 160.704 187.1 163.014C187.68 165.324 187.48 167.444 185.56 168.794C184.207 169.798 182.979 170.959 181.9 172.254L183.63 173.604C183.63 173.604 207.7 164.554 210.21 163.604C212.72 162.654 215.02 163.404 215.21 165.334C215.4 167.264 214.64 167.454 213.48 168.034C212.32 168.614 199.62 173.034 197.88 173.804L196.15 174.574L197.5 175.924C197.5 175.924 204.43 175.734 207.9 175.544C211.37 175.354 216.56 174.774 217.33 175.924C217.674 176.438 217.805 177.066 217.697 177.675C217.589 178.285 217.25 178.829 216.75 179.194C216.346 179.582 215.858 179.873 215.325 180.047C214.792 180.22 214.226 180.27 213.67 180.194C211.94 180.194 197.11 181.344 197.11 181.344L197.5 183.464C197.5 183.464 213.29 185.964 213.86 186.734C214.43 187.504 214.44 187.894 213.86 189.044C213.28 190.194 212.86 190.204 211.36 190.204C209.86 190.204 197.36 188.274 197.36 188.274C197.36 188.274 203.52 191.744 204.29 192.324C205.06 192.904 207.75 193.324 206.98 194.634C206.21 195.944 205.83 196.364 204.67 196.174C203.51 195.984 195.24 192.324 195.24 192.324C195.24 192.324 186.96 193.474 184.24 193.674C182.238 193.767 180.232 193.7 178.24 193.474L170.54 198.474L166.86 192.094Z" fill="white" stroke="#1C1A1A" stroke-width="0.75" stroke-linecap="round" stroke-linejoin="round"/>
<path d="M112.18 183.424C112.18 183.424 106.59 160.124 104.28 154.924C101.97 149.724 88.88 144.924 82.52 156.274C76.16 167.624 81.94 180.534 84.26 189.774C86.58 199.014 101.2 240.774 103.32 246.004C105.44 251.234 109.32 250.004 111.41 249.474C113.5 248.944 172.06 201.714 172.06 201.714L167.44 191.324L122 214.654L112.18 183.424Z" fill="white"/>
<mask id="mask6_1166_483" style="mask-type:luminance" maskUnits="userSpaceOnUse" x="79" y="149" width="94" height="101">
<path d="M112.18 183.424C112.18 183.424 106.59 160.124 104.28 154.924C101.97 149.724 88.88 144.924 82.52 156.274C76.16 167.624 81.94 180.534 84.26 189.774C86.58 199.014 101.2 240.774 103.32 246.004C105.44 251.234 109.32 250.004 111.41 249.474C113.5 248.944 172.06 201.714 172.06 201.714L167.44 191.324L122 214.654L112.18 183.424Z" fill="white"/>
</mask>
<g mask="url(#mask6_1166_483)">
<path d="M110.54 234.654C112.024 230.146 113.736 225.717 115.67 221.384C117.81 217.104 105.4 231.234 102.83 223.524C100.26 215.814 84.0005 177.294 86.9905 164.454C88.2874 158.488 91.7779 153.227 96.7705 149.714C92.0005 148.584 86.1605 149.784 82.5205 156.284C76.1705 167.644 81.9404 180.544 84.2604 189.784C86.5804 199.024 101.2 240.784 103.32 246.014C105.44 251.244 109.32 250.014 111.41 249.484C112.95 249.064 144.41 223.934 161.41 210.304L110.54 234.654Z" fill="#22FF01"/>
<path opacity="0.5" d="M110.54 234.654C112.024 230.146 113.736 225.717 115.67 221.384C117.81 217.104 105.4 231.234 102.83 223.524C100.26 215.814 84.0005 177.294 86.9905 164.454C88.2874 158.488 91.7779 153.227 96.7705 149.714C92.0005 148.584 86.1605 149.784 82.5205 156.284C76.1705 167.644 81.9404 180.544 84.2604 189.784C86.5804 199.024 101.2 240.784 103.32 246.014C105.44 251.244 109.32 250.014 111.41 249.484C112.95 249.064 144.41 223.934 161.41 210.304L110.54 234.654Z" fill="white"/>
</g>
<path d="M112.18 183.424C112.18 183.424 106.59 160.124 104.28 154.924C101.97 149.724 88.88 144.924 82.52 156.274C76.16 167.624 81.94 180.534 84.26 189.774C86.58 199.014 101.2 240.774 103.32 246.004C105.44 251.234 109.32 250.004 111.41 249.474C113.5 248.944 172.06 201.714 172.06 201.714L167.44 191.324L122 214.654L112.18 183.424Z" stroke="#1C1A1A" stroke-width="0.75" stroke-linecap="round" stroke-linejoin="round"/>
<path d="M160.7 195.174L165.9 205.764" stroke="#1C1A1A" stroke-width="0.75" stroke-linecap="round" stroke-linejoin="round"/>
<path d="M38.5502 142.044L11.9502 160.494C11.9502 160.494 25.0602 174.354 23.7102 210.714C22.7102 238.484 26.3802 270.014 31.7102 276.424H60.0302C60.0302 276.424 50.2402 222.424 50.9402 191.484C51.4902 167.974 44.4302 151.654 38.5502 142.044Z" fill="white" stroke="#1C1A1A" stroke-width="0.75" stroke-linecap="round" stroke-linejoin="round"/>
<path d="M41.7504 142.044L15.1504 160.494C15.1504 160.494 28.2604 174.354 26.9004 210.714C25.9004 238.484 29.5704 270.014 34.9004 276.424H63.2304C63.2304 276.424 53.4504 222.424 54.1504 191.484C54.6804 167.974 47.6204 151.654 41.7504 142.044Z" fill="#1C1A1A" stroke="#1C1A1A" stroke-width="0.75" stroke-linecap="round" stroke-linejoin="round"/>
<path d="M38.55 142.044H41.75L15.15 160.494H11.96L38.55 142.044Z" fill="white" stroke="#1C1A1A" stroke-width="0.75" stroke-linecap="round" stroke-linejoin="round"/>
</g>
</svg>
