<svg width="35" height="35" viewBox="0 0 35 35" fill="none" xmlns="http://www.w3.org/2000/svg">
<path d="M30.625 27.7083V25.308C30.625 24.1154 29.8989 23.0429 28.7916 22.6L25.8251 21.4134C24.4167 20.85 22.8115 21.4603 22.1331 22.8171L21.875 23.3333C21.875 23.3333 18.2292 22.6042 15.3125 19.6875C12.3958 16.7708 11.6667 13.125 11.6667 13.125L12.1829 12.8669C13.5397 12.1885 14.15 10.5833 13.5866 9.17489L12.4 6.20844C11.9571 5.10111 10.8846 4.375 9.69199 4.375H7.29167C5.68084 4.375 4.375 5.68084 4.375 7.29167C4.375 20.1783 14.8217 30.625 27.7083 30.625C29.3192 30.625 30.625 29.3192 30.625 27.7083Z" fill="#22FF01" stroke="#1C1A1A" stroke-linejoin="round"/>
</svg>
