<svg width="35" height="35" viewBox="0 0 35 35" fill="none" xmlns="http://www.w3.org/2000/svg">
<mask id="path-1-inside-1_1291_8725" fill="white">
<path d="M30.2021 5.32957C30.2021 5.32957 33.0349 4.22489 32.7979 6.90749C32.7199 8.01218 32.0118 11.8789 31.4606 16.0607L29.5721 28.4493C29.5721 28.4493 29.4146 30.2642 27.9978 30.5799C26.5817 30.8949 24.4569 29.4752 24.0632 29.1595C23.7482 28.9225 18.1613 25.3714 16.194 23.636C15.6428 23.1621 15.0128 22.2156 16.2728 21.1109L24.5357 13.2199C25.48 12.272 26.4242 10.0626 22.4897 12.7459L11.4719 20.2418C11.4719 20.2418 10.2127 21.0314 7.85237 20.3212L2.73653 18.7426C2.73653 18.7426 0.847991 17.5592 4.07455 16.3757C11.9444 12.6672 21.6241 8.87989 30.2013 5.32884"/>
</mask>
<path d="M30.2021 5.32957C30.2021 5.32957 33.0349 4.22489 32.7979 6.90749C32.7199 8.01218 32.0118 11.8789 31.4606 16.0607L29.5721 28.4493C29.5721 28.4493 29.4146 30.2642 27.9978 30.5799C26.5817 30.8949 24.4569 29.4752 24.0632 29.1595C23.7482 28.9225 18.1613 25.3714 16.194 23.636C15.6428 23.1621 15.0128 22.2156 16.2728 21.1109L24.5357 13.2199C25.48 12.272 26.4242 10.0626 22.4897 12.7459L11.4719 20.2418C11.4719 20.2418 10.2127 21.0314 7.85237 20.3212L2.73653 18.7426C2.73653 18.7426 0.847991 17.5592 4.07455 16.3757C11.9444 12.6672 21.6241 8.87989 30.2013 5.32884" fill="#0299E3"/>
<path d="M32.7979 6.90749L31.8018 6.81949L31.801 6.82826L31.8004 6.83704L32.7979 6.90749ZM31.4606 16.0607L32.4492 16.2114L32.4507 16.2014L32.452 16.1914L31.4606 16.0607ZM29.5721 28.4493L28.5835 28.2986L28.5786 28.3306L28.5758 28.3628L29.5721 28.4493ZM27.9978 30.5799L28.2149 31.556L28.2153 31.5559L27.9978 30.5799ZM24.0632 29.1595L24.6888 28.3793L24.6767 28.3696L24.6644 28.3604L24.0632 29.1595ZM16.194 23.636L16.8556 22.8861L16.846 22.8778L16.194 23.636ZM16.2728 21.1109L16.932 21.8629L16.948 21.8488L16.9634 21.8341L16.2728 21.1109ZM24.5357 13.2199L25.2263 13.9431L25.2354 13.9345L25.2442 13.9256L24.5357 13.2199ZM22.4897 12.7459L23.0522 13.5727L23.0531 13.5721L22.4897 12.7459ZM11.4719 20.2418L12.0032 21.089L12.019 21.079L12.0345 21.0686L11.4719 20.2418ZM7.85237 20.3212L7.5575 21.2768L7.56423 21.2788L7.85237 20.3212ZM2.73653 18.7426L2.20553 19.59L2.31652 19.6595L2.44167 19.6981L2.73653 18.7426ZM4.07455 16.3757L4.4189 17.3146L4.46063 17.2993L4.50083 17.2803L4.07455 16.3757ZM30.2021 5.32957C30.5654 6.26124 30.565 6.26138 30.5647 6.26151C30.5646 6.26155 30.5642 6.26168 30.564 6.26175C30.5636 6.26191 30.5633 6.26205 30.563 6.26217C30.5623 6.26242 30.5618 6.2626 30.5615 6.26273C30.5609 6.26297 30.5609 6.26298 30.5615 6.26276C30.5626 6.26231 30.5662 6.26098 30.572 6.25889C30.5837 6.2547 30.604 6.24757 30.6318 6.23859C30.6877 6.22045 30.7706 6.1957 30.8701 6.17227C31.0812 6.12257 31.3116 6.09218 31.502 6.10878C31.6907 6.12523 31.729 6.17527 31.7298 6.17626C31.7339 6.18109 31.7601 6.21244 31.7824 6.30454C31.8059 6.40175 31.8242 6.5652 31.8018 6.81949L33.794 6.99549C33.8671 6.16843 33.7203 5.43085 33.2547 4.88217C32.791 4.33581 32.1655 4.15903 31.6757 4.11633C31.1875 4.07378 30.7245 4.15189 30.4118 4.22549C30.2494 4.26372 30.1129 4.30431 30.0149 4.3361C29.9656 4.35208 29.9253 4.36607 29.8956 4.37675C29.8807 4.3821 29.8684 4.38664 29.8589 4.39022C29.8541 4.392 29.85 4.39355 29.8467 4.39484C29.845 4.39548 29.8435 4.39606 29.8422 4.39657C29.8415 4.39683 29.8409 4.39707 29.8403 4.39729C29.84 4.3974 29.8396 4.39756 29.8395 4.39761C29.8391 4.39776 29.8387 4.39791 30.2021 5.32957ZM31.8004 6.83704C31.7653 7.33402 31.5796 8.51487 31.3188 10.175C31.0632 11.802 30.7466 13.8254 30.4692 15.93L32.452 16.1914C32.7258 14.1143 33.0388 12.1134 33.2946 10.4854C33.5451 8.89053 33.7525 7.58565 33.7954 6.97794L31.8004 6.83704ZM30.472 15.91L28.5835 28.2986L30.5606 28.6L32.4492 16.2114L30.472 15.91ZM29.5721 28.4493C28.5758 28.3628 28.5758 28.3624 28.5759 28.3621C28.5759 28.362 28.5759 28.3616 28.5759 28.3614C28.576 28.361 28.576 28.3605 28.576 28.3602C28.5761 28.3594 28.5762 28.3587 28.5762 28.3581C28.5763 28.357 28.5764 28.3562 28.5764 28.3559C28.5765 28.3551 28.5764 28.356 28.5762 28.3583C28.5757 28.3629 28.5744 28.3732 28.5723 28.3884C28.568 28.4192 28.56 28.4688 28.5468 28.5315C28.5198 28.6599 28.4739 28.8272 28.4005 28.9943C28.2473 29.3434 28.0483 29.5441 27.7803 29.6038L28.2153 31.5559C29.364 31.3 29.9522 30.4353 30.2319 29.7981C30.375 29.472 30.4571 29.1658 30.5038 28.944C30.5275 28.8316 30.5429 28.737 30.5528 28.6673C30.5577 28.6323 30.5612 28.6033 30.5637 28.5812C30.5649 28.5701 30.5659 28.5607 30.5667 28.5531C30.5671 28.5493 30.5674 28.5459 30.5676 28.543C30.5678 28.5416 30.5679 28.5402 30.568 28.539C30.5681 28.5384 30.5681 28.5378 30.5682 28.5373C30.5682 28.537 30.5682 28.5366 30.5682 28.5365C30.5683 28.5361 30.5683 28.5357 29.5721 28.4493ZM27.7806 29.6037C27.4222 29.6835 26.805 29.5445 26.0715 29.2007C25.3866 28.8797 24.8244 28.4881 24.6888 28.3793L23.4376 29.9396C23.6957 30.1466 24.3928 30.6227 25.2227 31.0117C26.0041 31.3779 27.1573 31.7913 28.2149 31.556L27.7806 29.6037ZM24.6644 28.3604C24.5517 28.2756 24.0937 27.9773 23.5264 27.6047C22.9286 27.212 22.1433 26.6943 21.3073 26.1306C19.6146 24.989 17.782 23.7033 16.8556 22.8861L15.5325 24.386C16.5734 25.3042 18.5178 26.6617 20.1891 27.7888C21.0352 28.3593 21.8285 28.8823 22.4284 29.2763C22.7295 29.4741 22.979 29.6375 23.1648 29.7601C23.2575 29.8213 23.3317 29.8705 23.3868 29.9074C23.4502 29.9501 23.4675 29.9627 23.462 29.9586L24.6644 28.3604ZM16.846 22.8778C16.6464 22.7062 16.5567 22.5467 16.5418 22.4532C16.5371 22.4238 16.5352 22.3801 16.5682 22.3041C16.6053 22.2189 16.699 22.0671 16.932 21.8629L15.6135 20.359C14.8027 21.0699 14.4294 21.9031 14.5666 22.7668C14.6895 23.5412 15.1904 24.0919 15.5421 24.3943L16.846 22.8778ZM16.9634 21.8341L25.2263 13.9431L23.8451 12.4967L15.5821 20.3877L16.9634 21.8341ZM25.2442 13.9256C25.5472 13.6215 25.8422 13.2273 26.0492 12.8406C26.1526 12.6476 26.2518 12.4236 26.3106 12.1893C26.3627 11.9819 26.4218 11.6177 26.2673 11.2414C26.0722 10.7661 25.6508 10.5262 25.2397 10.4745C24.8956 10.4313 24.5562 10.5125 24.2756 10.6094C23.6957 10.8097 22.9276 11.2369 21.9262 11.9198L23.0531 13.5721C24.019 12.9133 24.6084 12.6104 24.9285 12.4999C25.0979 12.4414 25.0941 12.472 24.9905 12.459C24.926 12.4509 24.8105 12.4237 24.6871 12.3373C24.5574 12.2464 24.4677 12.1239 24.4172 12.001C24.3315 11.7924 24.3833 11.6526 24.3708 11.7024C24.3651 11.7252 24.3426 11.7911 24.2861 11.8965C24.1735 12.1068 23.9964 12.3443 23.8272 12.5141L25.2442 13.9256ZM21.9272 11.9191L10.9094 19.415L12.0345 21.0686L23.0522 13.5727L21.9272 11.9191ZM11.4719 20.2418C10.9407 19.3946 10.9412 19.3942 10.9417 19.3939C10.9419 19.3938 10.9424 19.3935 10.9427 19.3933C10.9433 19.3929 10.944 19.3925 10.9446 19.3921C10.9458 19.3913 10.947 19.3906 10.9481 19.39C10.9503 19.3886 10.9522 19.3874 10.9539 19.3865C10.9571 19.3845 10.9593 19.3832 10.9604 19.3826C10.9625 19.3814 10.9602 19.3828 10.9536 19.3862C10.9403 19.3931 10.9097 19.4082 10.862 19.4276C10.7667 19.4663 10.6028 19.5222 10.3719 19.5633C9.91566 19.6446 9.16958 19.6733 8.1405 19.3636L7.56423 21.2788C8.89547 21.6794 9.95917 21.6683 10.7227 21.5323C11.1016 21.4648 11.4001 21.3677 11.6147 21.2805C11.7219 21.237 11.808 21.196 11.8729 21.1624C11.9053 21.1456 11.9324 21.1307 11.9541 21.1183C11.965 21.1121 11.9745 21.1065 11.9827 21.1015C11.9868 21.0991 11.9905 21.0968 11.994 21.0947C11.9957 21.0937 11.9973 21.0927 11.9988 21.0917C11.9996 21.0912 12.0004 21.0907 12.0011 21.0903C12.0015 21.0901 12.002 21.0897 12.0022 21.0896C12.0027 21.0893 12.0032 21.089 11.4719 20.2418ZM8.14723 19.3657L3.03139 17.7871L2.44167 19.6981L7.55751 21.2768L8.14723 19.3657ZM2.73653 18.7426C3.26753 17.8952 3.26803 17.8955 3.26852 17.8958C3.26868 17.8959 3.26916 17.8962 3.26947 17.8964C3.27009 17.8968 3.27069 17.8972 3.27126 17.8976C3.27241 17.8983 3.27346 17.899 3.27441 17.8996C3.27631 17.9008 3.27784 17.9018 3.27902 17.9026C3.28136 17.9041 3.28235 17.9048 3.28215 17.9046C3.28168 17.9043 3.2769 17.901 3.26915 17.8951C3.25251 17.8824 3.22922 17.8629 3.20667 17.8399C3.14383 17.7756 3.17202 17.7739 3.18377 17.8497C3.20659 17.9969 3.11869 18.0448 3.21226 17.951C3.34054 17.8224 3.67157 17.5887 4.4189 17.3146L3.73021 15.4369C2.86426 15.7545 2.22139 16.1124 1.7963 16.5386C1.3365 16.9995 1.11576 17.5652 1.20739 18.1562C1.28796 18.6758 1.58663 19.0439 1.77706 19.2385C1.88114 19.3449 1.98019 19.4272 2.05423 19.4838C2.09181 19.5125 2.12446 19.5358 2.15007 19.5534C2.16292 19.5622 2.17411 19.5697 2.18341 19.5758C2.18806 19.5788 2.19225 19.5815 2.19595 19.5839C2.19779 19.5851 2.19952 19.5862 2.20112 19.5872C2.20192 19.5877 2.20268 19.5882 2.20342 19.5886C2.20379 19.5889 2.20432 19.5892 2.2045 19.5893C2.20502 19.5896 2.20553 19.59 2.73653 18.7426ZM4.50083 17.2803C12.3419 13.5854 21.9778 9.81579 30.5838 6.25279L29.8188 4.4049C21.2705 7.94398 11.547 11.749 3.64828 15.4711L4.50083 17.2803Z" fill="black" mask="url(#path-1-inside-1_1291_8725)"/>
</svg>
