<svg width="35" height="35" viewBox="0 0 35 35" fill="none" xmlns="http://www.w3.org/2000/svg">
<mask id="path-1-inside-1_1291_8713" fill="white">
<path fill-rule="evenodd" clip-rule="evenodd" d="M24.3191 3.83244C19.731 2.80683 14.9729 2.80683 10.3848 3.83244L9.8904 3.94182C8.5998 4.23037 7.41445 4.87105 6.46604 5.79269C5.51763 6.71433 4.84328 7.88084 4.5179 9.16265C3.35487 13.7455 3.35487 18.5463 4.5179 23.1291C4.8282 24.3516 5.4562 25.4703 6.33824 26.3718C7.22028 27.2733 8.325 27.9255 9.5404 28.2624L10.2185 32.3108C10.2402 32.4393 10.2959 32.5597 10.3799 32.6594C10.4638 32.7591 10.573 32.8345 10.696 32.8777C10.819 32.9209 10.9513 32.9303 11.0792 32.905C11.2071 32.8796 11.3259 32.8205 11.4231 32.7337L15.4058 29.171C18.3955 29.3534 21.396 29.1144 24.3191 28.4608L24.815 28.3514C26.1056 28.0629 27.2909 27.4222 28.2393 26.5005C29.1878 25.5789 29.8621 24.4124 30.1875 23.1306C31.3504 18.5477 31.3504 13.747 30.1875 9.16411C29.862 7.88211 29.1874 6.71547 28.2387 5.79381C27.29 4.87216 26.1044 4.23158 24.8135 3.94328L24.3191 3.83244ZM11.6156 9.04453C11.3446 9.00508 11.0682 9.05963 10.8325 9.19911H10.8121C10.2652 9.51994 9.77227 9.9239 9.35227 10.3993C9.00227 10.8033 8.81269 11.2116 8.76311 11.6054C8.73394 11.8387 8.75436 12.0749 8.8229 12.2981L8.84915 12.3127C9.2429 13.4691 9.75623 14.5818 10.3833 15.6289C11.1919 17.0996 12.1869 18.4598 13.3437 19.6758L13.3787 19.7254L13.4341 19.7662L13.4677 19.8056L13.5085 19.8406C14.7287 21.0009 16.0921 22.0006 17.5656 22.8156C19.25 23.7329 20.2723 24.166 20.8862 24.3468V24.3556C21.0656 24.411 21.2289 24.4358 21.3937 24.4358C21.9166 24.3971 22.4115 24.1846 22.7996 23.832C23.2735 23.412 23.6746 22.9177 23.9866 22.3679V22.3577C24.2798 21.8035 24.1806 21.2814 23.7577 20.927C22.9082 20.1848 21.9896 19.5255 21.0146 18.9583C20.3612 18.6039 19.6977 18.8183 19.4294 19.177L18.8562 19.9004C18.5616 20.2591 18.0279 20.2095 18.0279 20.2095L18.0133 20.2183C14.0306 19.2018 12.9675 15.1695 12.9675 15.1695C12.9675 15.1695 12.9179 14.6212 13.2869 14.3412L14.0044 13.7637C14.3485 13.4837 14.5877 12.8216 14.2187 12.1683C13.6552 11.1923 12.9973 10.274 12.2544 9.42661C12.0923 9.22718 11.8651 9.09135 11.6127 9.04307L11.6156 9.04453ZM18.3444 7.29161C18.151 7.29161 17.9655 7.36843 17.8288 7.50518C17.692 7.64192 17.6152 7.82739 17.6152 8.02078C17.6152 8.21416 17.692 8.39963 17.8288 8.53638C17.9655 8.67312 18.151 8.74994 18.3444 8.74994C20.1891 8.74994 21.7204 9.35224 22.9323 10.5072C23.555 11.1387 24.0406 11.8868 24.3585 12.7064C24.6779 13.5274 24.8237 14.4039 24.7858 15.2818C24.7818 15.3776 24.7967 15.4732 24.8296 15.5632C24.8625 15.6532 24.9129 15.7358 24.9777 15.8064C25.1087 15.9489 25.291 16.0335 25.4844 16.0416C25.6777 16.0497 25.8664 15.9807 26.0089 15.8497C26.1514 15.7187 26.236 15.5365 26.2441 15.3431C26.2894 14.2632 26.1101 13.1856 25.7177 12.1785C25.3236 11.1666 24.7259 10.2464 23.9619 9.47474L23.9473 9.46015C22.4437 8.02369 20.5406 7.29161 18.3444 7.29161ZM18.2948 9.68911C18.1014 9.68911 17.9159 9.76593 17.7792 9.90268C17.6424 10.0394 17.5656 10.2249 17.5656 10.4183C17.5656 10.6117 17.6424 10.7971 17.7792 10.9339C17.9159 11.0706 18.1014 11.1474 18.2948 11.1474H18.3196C19.6496 11.2422 20.6179 11.6856 21.296 12.4133C21.9916 13.1629 22.3519 14.0947 22.3241 15.2468C22.3197 15.4402 22.3923 15.6274 22.5259 15.7673C22.6595 15.9072 22.8432 15.9883 23.0365 15.9928C23.2299 15.9972 23.4172 15.9246 23.5571 15.791C23.6969 15.6574 23.778 15.4737 23.7825 15.2804C23.8175 13.7681 23.3304 12.4629 22.365 11.4216V11.4187C21.3777 10.3599 20.0229 9.79994 18.3925 9.69057L18.3677 9.68765L18.2948 9.68911ZM18.2671 12.1318C18.1695 12.1232 18.0712 12.1343 17.978 12.1646C17.8848 12.1948 17.7987 12.2435 17.7247 12.3077C17.6508 12.372 17.5905 12.4505 17.5476 12.5385C17.5046 12.6266 17.4799 12.7224 17.4748 12.8202C17.4697 12.9181 17.4844 13.0159 17.5179 13.1079C17.5515 13.2 17.6032 13.2843 17.6701 13.3559C17.737 13.4275 17.8176 13.4849 17.9071 13.5246C17.9967 13.5644 18.0933 13.5857 18.1912 13.5872C18.8008 13.6193 19.1902 13.8031 19.4352 14.0495C19.6816 14.2974 19.8654 14.6956 19.8989 15.3183C19.9008 15.4161 19.9223 15.5126 19.9622 15.602C20.0021 15.6914 20.0595 15.7718 20.1312 15.8385C20.2028 15.9051 20.2871 15.9567 20.3791 15.9901C20.4711 16.0235 20.5689 16.038 20.6666 16.0329C20.7644 16.0277 20.8601 16.0029 20.948 15.9599C21.0359 15.9169 21.1143 15.8567 21.1785 15.7828C21.2427 15.7089 21.2913 15.6229 21.3215 15.5298C21.3517 15.4367 21.3629 15.3385 21.3544 15.241C21.3077 14.366 21.0335 13.5931 20.4721 13.0243C19.9077 12.4556 19.1391 12.1785 18.2671 12.1318Z"/>
</mask>
<path fill-rule="evenodd" clip-rule="evenodd" d="M24.3191 3.83244C19.731 2.80683 14.9729 2.80683 10.3848 3.83244L9.8904 3.94182C8.5998 4.23037 7.41445 4.87105 6.46604 5.79269C5.51763 6.71433 4.84328 7.88084 4.5179 9.16265C3.35487 13.7455 3.35487 18.5463 4.5179 23.1291C4.8282 24.3516 5.4562 25.4703 6.33824 26.3718C7.22028 27.2733 8.325 27.9255 9.5404 28.2624L10.2185 32.3108C10.2402 32.4393 10.2959 32.5597 10.3799 32.6594C10.4638 32.7591 10.573 32.8345 10.696 32.8777C10.819 32.9209 10.9513 32.9303 11.0792 32.905C11.2071 32.8796 11.3259 32.8205 11.4231 32.7337L15.4058 29.171C18.3955 29.3534 21.396 29.1144 24.3191 28.4608L24.815 28.3514C26.1056 28.0629 27.2909 27.4222 28.2393 26.5005C29.1878 25.5789 29.8621 24.4124 30.1875 23.1306C31.3504 18.5477 31.3504 13.747 30.1875 9.16411C29.862 7.88211 29.1874 6.71547 28.2387 5.79381C27.29 4.87216 26.1044 4.23158 24.8135 3.94328L24.3191 3.83244ZM11.6156 9.04453C11.3446 9.00508 11.0682 9.05963 10.8325 9.19911H10.8121C10.2652 9.51994 9.77227 9.9239 9.35227 10.3993C9.00227 10.8033 8.81269 11.2116 8.76311 11.6054C8.73394 11.8387 8.75436 12.0749 8.8229 12.2981L8.84915 12.3127C9.2429 13.4691 9.75623 14.5818 10.3833 15.6289C11.1919 17.0996 12.1869 18.4598 13.3437 19.6758L13.3787 19.7254L13.4341 19.7662L13.4677 19.8056L13.5085 19.8406C14.7287 21.0009 16.0921 22.0006 17.5656 22.8156C19.25 23.7329 20.2723 24.166 20.8862 24.3468V24.3556C21.0656 24.411 21.2289 24.4358 21.3937 24.4358C21.9166 24.3971 22.4115 24.1846 22.7996 23.832C23.2735 23.412 23.6746 22.9177 23.9866 22.3679V22.3577C24.2798 21.8035 24.1806 21.2814 23.7577 20.927C22.9082 20.1848 21.9896 19.5255 21.0146 18.9583C20.3612 18.6039 19.6977 18.8183 19.4294 19.177L18.8562 19.9004C18.5616 20.2591 18.0279 20.2095 18.0279 20.2095L18.0133 20.2183C14.0306 19.2018 12.9675 15.1695 12.9675 15.1695C12.9675 15.1695 12.9179 14.6212 13.2869 14.3412L14.0044 13.7637C14.3485 13.4837 14.5877 12.8216 14.2187 12.1683C13.6552 11.1923 12.9973 10.274 12.2544 9.42661C12.0923 9.22718 11.8651 9.09135 11.6127 9.04307L11.6156 9.04453ZM18.3444 7.29161C18.151 7.29161 17.9655 7.36843 17.8288 7.50518C17.692 7.64192 17.6152 7.82739 17.6152 8.02078C17.6152 8.21416 17.692 8.39963 17.8288 8.53638C17.9655 8.67312 18.151 8.74994 18.3444 8.74994C20.1891 8.74994 21.7204 9.35224 22.9323 10.5072C23.555 11.1387 24.0406 11.8868 24.3585 12.7064C24.6779 13.5274 24.8237 14.4039 24.7858 15.2818C24.7818 15.3776 24.7967 15.4732 24.8296 15.5632C24.8625 15.6532 24.9129 15.7358 24.9777 15.8064C25.1087 15.9489 25.291 16.0335 25.4844 16.0416C25.6777 16.0497 25.8664 15.9807 26.0089 15.8497C26.1514 15.7187 26.236 15.5365 26.2441 15.3431C26.2894 14.2632 26.1101 13.1856 25.7177 12.1785C25.3236 11.1666 24.7259 10.2464 23.9619 9.47474L23.9473 9.46015C22.4437 8.02369 20.5406 7.29161 18.3444 7.29161ZM18.2948 9.68911C18.1014 9.68911 17.9159 9.76593 17.7792 9.90268C17.6424 10.0394 17.5656 10.2249 17.5656 10.4183C17.5656 10.6117 17.6424 10.7971 17.7792 10.9339C17.9159 11.0706 18.1014 11.1474 18.2948 11.1474H18.3196C19.6496 11.2422 20.6179 11.6856 21.296 12.4133C21.9916 13.1629 22.3519 14.0947 22.3241 15.2468C22.3197 15.4402 22.3923 15.6274 22.5259 15.7673C22.6595 15.9072 22.8432 15.9883 23.0365 15.9928C23.2299 15.9972 23.4172 15.9246 23.5571 15.791C23.6969 15.6574 23.778 15.4737 23.7825 15.2804C23.8175 13.7681 23.3304 12.4629 22.365 11.4216V11.4187C21.3777 10.3599 20.0229 9.79994 18.3925 9.69057L18.3677 9.68765L18.2948 9.68911ZM18.2671 12.1318C18.1695 12.1232 18.0712 12.1343 17.978 12.1646C17.8848 12.1948 17.7987 12.2435 17.7247 12.3077C17.6508 12.372 17.5905 12.4505 17.5476 12.5385C17.5046 12.6266 17.4799 12.7224 17.4748 12.8202C17.4697 12.9181 17.4844 13.0159 17.5179 13.1079C17.5515 13.2 17.6032 13.2843 17.6701 13.3559C17.737 13.4275 17.8176 13.4849 17.9071 13.5246C17.9967 13.5644 18.0933 13.5857 18.1912 13.5872C18.8008 13.6193 19.1902 13.8031 19.4352 14.0495C19.6816 14.2974 19.8654 14.6956 19.8989 15.3183C19.9008 15.4161 19.9223 15.5126 19.9622 15.602C20.0021 15.6914 20.0595 15.7718 20.1312 15.8385C20.2028 15.9051 20.2871 15.9567 20.3791 15.9901C20.4711 16.0235 20.5689 16.038 20.6666 16.0329C20.7644 16.0277 20.8601 16.0029 20.948 15.9599C21.0359 15.9169 21.1143 15.8567 21.1785 15.7828C21.2427 15.7089 21.2913 15.6229 21.3215 15.5298C21.3517 15.4367 21.3629 15.3385 21.3544 15.241C21.3077 14.366 21.0335 13.5931 20.4721 13.0243C19.9077 12.4556 19.1391 12.1785 18.2671 12.1318Z" fill="#665CAB" stroke="#1C1A1A" stroke-width="2" mask="url(#path-1-inside-1_1291_8713)"/>
</svg>
