<svg width="35" height="35" viewBox="0 0 35 35" fill="none" xmlns="http://www.w3.org/2000/svg">
<path d="M30.0954 9.54606L30.3537 9.94644C34.2565 16.9119 32.1644 25.6998 25.4789 30.0498C23.0914 31.5274 20.3197 32.2688 17.5437 32.2688C14.9767 32.2688 12.3737 31.5338 9.9684 30.2387L9.41736 29.8784L9.23044 29.7562L9.01468 29.8139L4.11871 31.1219L5.42679 26.226L5.48444 26.0102L5.36222 25.8233L4.99165 25.2565C4.99143 25.2562 4.99121 25.2559 4.991 25.2555C0.575546 18.4304 2.7714 9.16306 9.60246 4.91037C16.6146 0.65393 25.673 2.69017 30.0954 9.54606ZM23.45 26.6188H23.4867L23.523 26.6134C24.9415 26.4041 25.9738 25.6211 26.7731 24.5188H26.8182L26.9673 24.3034C27.4768 23.5675 27.4584 22.6246 27.2256 21.9521L27.188 21.8434L27.1067 21.7621C26.9541 21.6095 26.7517 21.4882 26.5779 21.3929C26.4791 21.3387 26.3568 21.2761 26.2411 21.2169C26.1628 21.1769 26.0876 21.1384 26.0246 21.105L26.0246 21.1049L26.0142 21.0997L22.9517 19.5684L22.9416 19.5634L22.9312 19.5588C22.7242 19.4668 22.4572 19.3648 22.155 19.4161C21.8518 19.4676 21.617 19.6541 21.4121 19.859C21.2129 20.0581 20.8737 20.4028 20.558 20.7465C20.4003 20.9182 20.245 21.0932 20.1148 21.2519C19.9914 21.4023 19.8672 21.5656 19.7925 21.7067L19.7923 21.7066L19.7871 21.7171C19.7775 21.7364 19.7692 21.7482 19.7638 21.7548C19.7611 21.7581 19.759 21.7603 19.7575 21.7617C19.7561 21.763 19.7553 21.7637 19.7551 21.7638C19.755 21.7639 19.7549 21.7639 19.7549 21.764C19.7547 21.764 19.7524 21.765 19.7469 21.7658C19.7189 21.7698 19.637 21.7651 19.5058 21.6956L19.4872 21.6858L19.4679 21.6776C18.196 21.1354 17.0839 20.4046 15.9817 19.4742C15.0729 18.5424 14.145 17.4243 13.4055 16.33C13.4027 16.3243 13.4002 16.319 13.3979 16.314C13.4078 16.3016 13.42 16.2869 13.4349 16.2695C13.4738 16.224 13.5149 16.1781 13.5655 16.1217C13.605 16.0776 13.6504 16.027 13.705 15.9651C14.2274 15.4601 14.4986 14.7901 14.6173 14.2393C14.6779 13.9579 14.7029 13.6892 14.6956 13.4645C14.6919 13.3531 14.68 13.2402 14.6547 13.1363C14.6425 13.0864 14.6215 13.013 14.5817 12.9359C14.5711 12.895 14.5575 12.8503 14.543 12.8055C14.5126 12.7117 14.4707 12.5943 14.4218 12.4629C14.3235 12.1989 14.1897 11.8587 14.046 11.4986C13.9363 11.2238 13.8209 10.9378 13.7099 10.6626C13.5325 10.2228 13.3661 9.81037 13.2514 9.51445C13.1326 9.07237 12.9291 8.74632 12.6052 8.56345C12.3184 8.40157 12.0091 8.40256 11.8392 8.4031C11.8298 8.40313 11.8209 8.40316 11.8125 8.40316H10.85C10.2987 8.40316 9.78531 8.69198 9.35893 9.11835C8.29944 10.1778 7.68124 11.6408 7.68124 13.3V13.3253L7.68378 13.3504C7.8652 15.1419 8.47763 16.9647 9.68425 18.3919C11.6308 21.3141 14.3822 23.8632 17.7018 25.4333L17.7164 25.4401L17.7313 25.4461C19.6584 26.2103 20.8947 26.5101 21.7645 26.6126C22.3888 26.6862 22.8644 26.6538 23.1802 26.6323C23.2894 26.6249 23.3795 26.6188 23.45 26.6188Z" fill="#78CE6C" stroke="black"/>
</svg>
