<svg width="23" height="23" viewBox="0 0 23 23" fill="none" xmlns="http://www.w3.org/2000/svg">
<path fill-rule="evenodd" clip-rule="evenodd" d="M15.966 -1.71661e-05H6.25059C1.67396 -1.71661e-05 0 1.67395 0 6.2506V15.9662C0 20.5427 1.67396 22.2166 6.25059 22.2166H15.963C20.5396 22.2166 22.2166 20.5427 22.2166 15.9662V6.2506C22.2166 1.67395 20.5427 -1.71661e-05 15.966 -1.71661e-05Z" fill="#C91C2E"/>
<path d="M9.69265 12.8847H10.5837L10.1367 11.8454L9.69265 12.8847ZM9.47329 13.4085L9.20902 14.0133H8.6073L9.88699 11.1102H10.4069L11.6814 14.0133H11.0635L10.8025 13.4085H9.47329ZM19.1558 14.0113H19.7374V11.1102H19.1558V14.0113ZM16.8413 12.7647H17.913V12.2361H16.8413V11.6414H18.3971V11.1121H16.2599V14.013H18.4532V13.4839H16.8413V12.7647ZM14.5305 13.1075L13.871 11.1102H13.3902L12.7307 13.1075L12.089 11.1115H11.4618L12.4742 14.0147H12.962L13.6224 12.1077L14.2826 14.0147H14.7749L15.7847 11.1115H15.1736L14.5305 13.1075ZM7.71957 12.7728C7.71957 13.245 7.48502 13.4973 7.05916 13.4973C6.63096 13.4973 6.39523 13.2379 6.39523 12.7526V11.1119H5.8059V12.7728C5.8059 13.5899 6.25982 14.0583 7.0512 14.0583C7.8503 14.0583 8.30866 13.5809 8.30866 12.7487V11.1102H7.71957V12.7728ZM4.39971 11.1102H4.9888V14.0149H4.39971V12.8353H3.06881V14.0149H2.47949V11.1102H3.06881V12.282H4.39971V11.1102Z" fill="white"/>
<path d="M11.1084 7.41199C9.0694 7.41199 7.4104 5.75297 7.4104 3.71395H7.93284C7.93284 5.46495 9.35728 6.88957 11.1084 6.88957C12.8596 6.88957 14.284 5.46495 14.284 3.71395H14.8064C14.8064 5.75297 13.1474 7.41199 11.1084 7.41199Z" fill="white"/>
</svg>
