<svg width="21" height="12" viewBox="0 0 21 12" fill="none" xmlns="http://www.w3.org/2000/svg">
<path d="M19.579 0.854996C19.719 0.389996 19.579 0.048996 18.917 0.048996H16.724C16.166 0.048996 15.911 0.343996 15.771 0.667996C15.771 0.667996 14.656 3.387 13.076 5.15C12.566 5.663 12.333 5.825 12.055 5.825C11.916 5.825 11.714 5.663 11.714 5.198V0.854996C11.714 0.296996 11.553 0.048996 11.088 0.048996H7.642C7.294 0.048996 7.084 0.306996 7.084 0.552996C7.084 1.081 7.874 1.203 7.955 2.691V5.919C7.955 6.626 7.828 6.755 7.548 6.755C6.805 6.755 4.997 4.026 3.924 0.901996C3.715 0.294996 3.504 0.0499964 2.944 0.0499964H0.752C0.125 0.0499964 0 0.344996 0 0.668996C0 1.251 0.743 4.131 3.461 7.94C5.273 10.541 7.824 11.951 10.148 11.951C11.541 11.951 11.713 11.638 11.713 11.098V9.132C11.713 8.506 11.846 8.38 12.287 8.38C12.611 8.38 13.169 8.544 14.47 9.797C15.956 11.283 16.202 11.95 17.037 11.95H19.229C19.855 11.95 20.168 11.637 19.988 11.019C19.791 10.404 19.081 9.509 18.139 8.45C17.627 7.846 16.862 7.196 16.629 6.871C16.304 6.452 16.398 6.267 16.629 5.895C16.63 5.896 19.301 2.134 19.579 0.854996Z" fill="#1C1A1A"/>
</svg>
